%TF.GenerationSoftware,KiCad,Pcbnew,8.0.4*%
%TF.CreationDate,2024-08-30T11:34:29-04:00*%
%TF.ProjectId,BREAD_Slice,42524541-445f-4536-9c69-63652e6b6963,rev?*%
%TF.SameCoordinates,PX74eba40PY8552dc0*%
%TF.FileFunction,Soldermask,Bot*%
%TF.FilePolarity,Negative*%
%FSLAX46Y46*%
G04 Gerber Fmt 4.6, Leading zero omitted, Abs format (unit mm)*
G04 Created by KiCad (PCBNEW 8.0.4) date 2024-08-30 11:34:29*
%MOMM*%
%LPD*%
G01*
G04 APERTURE LIST*
G04 Aperture macros list*
%AMRoundRect*
0 Rectangle with rounded corners*
0 $1 Rounding radius*
0 $2 $3 $4 $5 $6 $7 $8 $9 X,Y pos of 4 corners*
0 Add a 4 corners polygon primitive as box body*
4,1,4,$2,$3,$4,$5,$6,$7,$8,$9,$2,$3,0*
0 Add four circle primitives for the rounded corners*
1,1,$1+$1,$2,$3*
1,1,$1+$1,$4,$5*
1,1,$1+$1,$6,$7*
1,1,$1+$1,$8,$9*
0 Add four rect primitives between the rounded corners*
20,1,$1+$1,$2,$3,$4,$5,0*
20,1,$1+$1,$4,$5,$6,$7,0*
20,1,$1+$1,$6,$7,$8,$9,0*
20,1,$1+$1,$8,$9,$2,$3,0*%
G04 Aperture macros list end*
%ADD10C,5.100000*%
%ADD11RoundRect,0.050000X-0.800000X-0.800000X0.800000X-0.800000X0.800000X0.800000X-0.800000X0.800000X0*%
%ADD12O,1.700000X1.700000*%
%ADD13RoundRect,0.050000X-0.850000X-0.850000X0.850000X-0.850000X0.850000X0.850000X-0.850000X0.850000X0*%
%ADD14O,1.800000X1.800000*%
%ADD15RoundRect,0.050000X1.275000X-1.275000X1.275000X1.275000X-1.275000X1.275000X-1.275000X-1.275000X0*%
%ADD16C,2.650000*%
%ADD17RoundRect,0.175000X0.175000X0.650000X-0.175000X0.650000X-0.175000X-0.650000X0.175000X-0.650000X0*%
%ADD18RoundRect,0.270833X0.379167X0.679167X-0.379167X0.679167X-0.379167X-0.679167X0.379167X-0.679167X0*%
%ADD19RoundRect,0.175000X0.900000X0.175000X-0.900000X0.175000X-0.900000X-0.175000X0.900000X-0.175000X0*%
%ADD20RoundRect,0.271739X0.353261X0.678261X-0.353261X0.678261X-0.353261X-0.678261X0.353261X-0.678261X0*%
%ADD21RoundRect,0.175000X-0.537500X-0.175000X0.537500X-0.175000X0.537500X0.175000X-0.537500X0.175000X0*%
%ADD22RoundRect,0.271739X-0.353261X-0.678261X0.353261X-0.678261X0.353261X0.678261X-0.353261X0.678261X0*%
%ADD23RoundRect,0.270000X-0.405000X-1.105000X0.405000X-1.105000X0.405000X1.105000X-0.405000X1.105000X0*%
G04 APERTURE END LIST*
D10*
%TO.C,H1*%
X5000000Y95000000D03*
%TD*%
%TO.C,H3*%
X65000000Y95000000D03*
%TD*%
%TO.C,H2*%
X5000000Y5000000D03*
%TD*%
%TO.C,H4*%
X65000000Y5000000D03*
%TD*%
D11*
%TO.C,A1*%
X19988000Y39800000D03*
D12*
X19988000Y37260000D03*
X19988000Y34720000D03*
X19988000Y32180000D03*
X19988000Y29640000D03*
X19988000Y27100000D03*
X19988000Y24560000D03*
X19988000Y22020000D03*
X19988000Y19480000D03*
X19988000Y16940000D03*
X19988000Y14400000D03*
X19988000Y11860000D03*
X19988000Y9320000D03*
X19988000Y6780000D03*
X19988000Y4240000D03*
X35228000Y4240000D03*
X35228000Y6780000D03*
X35228000Y9320000D03*
X35228000Y11860000D03*
X35228000Y14400000D03*
X35228000Y16940000D03*
X35228000Y19480000D03*
X35228000Y22020000D03*
X35228000Y24560000D03*
X35228000Y27100000D03*
X35228000Y29640000D03*
X35228000Y32180000D03*
X35228000Y34720000D03*
X35228000Y37260000D03*
X35228000Y39800000D03*
%TD*%
D13*
%TO.C,J2*%
X3600000Y61450000D03*
D14*
X3600000Y58910000D03*
X3600000Y56370000D03*
X3600000Y53830000D03*
X3600000Y51290000D03*
X3600000Y48750000D03*
X3600000Y46210000D03*
X3600000Y43670000D03*
X3600000Y41130000D03*
X3600000Y38590000D03*
%TD*%
D15*
%TO.C,J4*%
X50700000Y57050000D03*
D16*
X60200000Y63400000D03*
%TD*%
D15*
%TO.C,J5*%
X50875000Y35725000D03*
D16*
X60375000Y42075000D03*
%TD*%
D15*
%TO.C,J6*%
X50675000Y78325000D03*
D16*
X60175000Y84675000D03*
%TD*%
D15*
%TO.C,J3*%
X50675000Y15250000D03*
D16*
X60175000Y21600000D03*
%TD*%
D17*
%TO.C,J1*%
X29098000Y5400000D03*
X28098000Y5400000D03*
X27098000Y5400000D03*
X26098000Y5400000D03*
D18*
X30398000Y1525000D03*
X24798000Y1525000D03*
%TD*%
D19*
%TO.C,U4*%
X47629000Y43344000D03*
X47629000Y42074000D03*
X47629000Y40804000D03*
X47629000Y39534000D03*
X47629000Y38264000D03*
X47629000Y36994000D03*
X47629000Y35724000D03*
X47629000Y34454000D03*
X38329000Y34454000D03*
X38329000Y35724000D03*
X38329000Y36994000D03*
X38329000Y38264000D03*
X38329000Y39534000D03*
X38329000Y40804000D03*
X38329000Y42074000D03*
X38329000Y43344000D03*
%TD*%
D20*
%TO.C,C1*%
X7425000Y20345000D03*
X4475000Y20345000D03*
%TD*%
D19*
%TO.C,U5*%
X47555000Y85946000D03*
X47555000Y84676000D03*
X47555000Y83406000D03*
X47555000Y82136000D03*
X47555000Y80866000D03*
X47555000Y79596000D03*
X47555000Y78326000D03*
X47555000Y77056000D03*
X38255000Y77056000D03*
X38255000Y78326000D03*
X38255000Y79596000D03*
X38255000Y80866000D03*
X38255000Y82136000D03*
X38255000Y83406000D03*
X38255000Y84676000D03*
X38255000Y85946000D03*
%TD*%
D21*
%TO.C,U1*%
X5012500Y16095000D03*
X5012500Y17045000D03*
X5012500Y17995000D03*
X7287500Y17995000D03*
X7287500Y17045000D03*
X7287500Y16095000D03*
%TD*%
D20*
%TO.C,C2*%
X10025000Y13545000D03*
X7075000Y13545000D03*
%TD*%
D22*
%TO.C,C3*%
X9775000Y20345000D03*
X12725000Y20345000D03*
%TD*%
D19*
%TO.C,U3*%
X47630000Y64616000D03*
X47630000Y63346000D03*
X47630000Y62076000D03*
X47630000Y60806000D03*
X47630000Y59536000D03*
X47630000Y58266000D03*
X47630000Y56996000D03*
X47630000Y55726000D03*
X38330000Y55726000D03*
X38330000Y56996000D03*
X38330000Y58266000D03*
X38330000Y59536000D03*
X38330000Y60806000D03*
X38330000Y62076000D03*
X38330000Y63346000D03*
X38330000Y64616000D03*
%TD*%
D22*
%TO.C,C4*%
X9775000Y23345000D03*
X12725000Y23345000D03*
%TD*%
D19*
%TO.C,U2*%
X47593000Y22619000D03*
X47593000Y21349000D03*
X47593000Y20079000D03*
X47593000Y18809000D03*
X47593000Y17539000D03*
X47593000Y16269000D03*
X47593000Y14999000D03*
X47593000Y13729000D03*
X38293000Y13729000D03*
X38293000Y14999000D03*
X38293000Y16269000D03*
X38293000Y17539000D03*
X38293000Y18809000D03*
X38293000Y20079000D03*
X38293000Y21349000D03*
X38293000Y22619000D03*
%TD*%
D23*
%TO.C,L1*%
X9850000Y17045000D03*
X12650000Y17045000D03*
%TD*%
M02*
