%TF.GenerationSoftware,KiCad,Pcbnew,8.0.5*%
%TF.CreationDate,2024-09-27T10:22:32-04:00*%
%TF.ProjectId,BREAD_Slice,42524541-445f-4536-9c69-63652e6b6963,rev?*%
%TF.SameCoordinates,PX74eba40PY8552dc0*%
%TF.FileFunction,Copper,L2,Bot*%
%TF.FilePolarity,Positive*%
%FSLAX46Y46*%
G04 Gerber Fmt 4.6, Leading zero omitted, Abs format (unit mm)*
G04 Created by KiCad (PCBNEW 8.0.5) date 2024-09-27 10:22:32*
%MOMM*%
%LPD*%
G01*
G04 APERTURE LIST*
G04 Aperture macros list*
%AMRoundRect*
0 Rectangle with rounded corners*
0 $1 Rounding radius*
0 $2 $3 $4 $5 $6 $7 $8 $9 X,Y pos of 4 corners*
0 Add a 4 corners polygon primitive as box body*
4,1,4,$2,$3,$4,$5,$6,$7,$8,$9,$2,$3,0*
0 Add four circle primitives for the rounded corners*
1,1,$1+$1,$2,$3*
1,1,$1+$1,$4,$5*
1,1,$1+$1,$6,$7*
1,1,$1+$1,$8,$9*
0 Add four rect primitives between the rounded corners*
20,1,$1+$1,$2,$3,$4,$5,0*
20,1,$1+$1,$4,$5,$6,$7,0*
20,1,$1+$1,$6,$7,$8,$9,0*
20,1,$1+$1,$8,$9,$2,$3,0*%
G04 Aperture macros list end*
%TA.AperFunction,ComponentPad*%
%ADD10R,1.600000X1.600000*%
%TD*%
%TA.AperFunction,ComponentPad*%
%ADD11O,1.600000X1.600000*%
%TD*%
%TA.AperFunction,ComponentPad*%
%ADD12R,1.700000X1.700000*%
%TD*%
%TA.AperFunction,ComponentPad*%
%ADD13O,1.700000X1.700000*%
%TD*%
%TA.AperFunction,ComponentPad*%
%ADD14R,2.550000X2.550000*%
%TD*%
%TA.AperFunction,ComponentPad*%
%ADD15C,2.550000*%
%TD*%
%TA.AperFunction,SMDPad,CuDef*%
%ADD16RoundRect,0.150000X0.150000X0.625000X-0.150000X0.625000X-0.150000X-0.625000X0.150000X-0.625000X0*%
%TD*%
%TA.AperFunction,SMDPad,CuDef*%
%ADD17RoundRect,0.250000X0.350000X0.650000X-0.350000X0.650000X-0.350000X-0.650000X0.350000X-0.650000X0*%
%TD*%
%TA.AperFunction,SMDPad,CuDef*%
%ADD18RoundRect,0.150000X0.875000X0.150000X-0.875000X0.150000X-0.875000X-0.150000X0.875000X-0.150000X0*%
%TD*%
%TA.AperFunction,SMDPad,CuDef*%
%ADD19RoundRect,0.250000X0.325000X0.650000X-0.325000X0.650000X-0.325000X-0.650000X0.325000X-0.650000X0*%
%TD*%
%TA.AperFunction,SMDPad,CuDef*%
%ADD20RoundRect,0.150000X-0.512500X-0.150000X0.512500X-0.150000X0.512500X0.150000X-0.512500X0.150000X0*%
%TD*%
%TA.AperFunction,SMDPad,CuDef*%
%ADD21RoundRect,0.250000X-0.325000X-0.650000X0.325000X-0.650000X0.325000X0.650000X-0.325000X0.650000X0*%
%TD*%
%TA.AperFunction,SMDPad,CuDef*%
%ADD22RoundRect,0.250000X-0.375000X-1.075000X0.375000X-1.075000X0.375000X1.075000X-0.375000X1.075000X0*%
%TD*%
%TA.AperFunction,ViaPad*%
%ADD23C,0.800000*%
%TD*%
%TA.AperFunction,ViaPad*%
%ADD24C,0.500000*%
%TD*%
%TA.AperFunction,Conductor*%
%ADD25C,0.500000*%
%TD*%
%TA.AperFunction,Conductor*%
%ADD26C,1.500000*%
%TD*%
%TA.AperFunction,Conductor*%
%ADD27C,1.000000*%
%TD*%
G04 APERTURE END LIST*
D10*
%TO.P,A1,1,D1/TX*%
%TO.N,unconnected-(A1-D1{slash}TX-Pad1)*%
X19988000Y39800000D03*
D11*
%TO.P,A1,2,D0/RX*%
%TO.N,unconnected-(A1-D0{slash}RX-Pad2)*%
X19988000Y37260000D03*
%TO.P,A1,3,~{RESET}*%
%TO.N,unconnected-(A1-~{RESET}-Pad3)*%
X19988000Y34720000D03*
%TO.P,A1,4,GND*%
%TO.N,GND*%
X19988000Y32180000D03*
%TO.P,A1,5,D2*%
%TO.N,/E_STOP*%
X19988000Y29640000D03*
%TO.P,A1,6,D3*%
%TO.N,/INT*%
X19988000Y27100000D03*
%TO.P,A1,7,D4*%
%TO.N,/SYNC*%
X19988000Y24560000D03*
%TO.P,A1,8,D5*%
%TO.N,/LED*%
X19988000Y22020000D03*
%TO.P,A1,9,D6*%
%TO.N,unconnected-(A1-D6-Pad9)*%
X19988000Y19480000D03*
%TO.P,A1,10,D7*%
%TO.N,unconnected-(A1-D7-Pad10)*%
X19988000Y16940000D03*
%TO.P,A1,11,D8*%
%TO.N,unconnected-(A1-D8-Pad11)*%
X19988000Y14400000D03*
%TO.P,A1,12,D9*%
%TO.N,unconnected-(A1-D9-Pad12)*%
X19988000Y11860000D03*
%TO.P,A1,13,D10*%
%TO.N,unconnected-(A1-D10-Pad13)*%
X19988000Y9320000D03*
%TO.P,A1,14,D11*%
%TO.N,unconnected-(A1-D11-Pad14)*%
X19988000Y6780000D03*
%TO.P,A1,15,D12*%
%TO.N,unconnected-(A1-D12-Pad15)*%
X19988000Y4240000D03*
%TO.P,A1,16,D13*%
%TO.N,unconnected-(A1-D13-Pad16)*%
X35228000Y4240000D03*
%TO.P,A1,17,3V3*%
%TO.N,unconnected-(A1-3V3-Pad17)*%
X35228000Y6780000D03*
%TO.P,A1,18,AREF*%
%TO.N,unconnected-(A1-AREF-Pad18)*%
X35228000Y9320000D03*
%TO.P,A1,19,A0*%
%TO.N,/CURR1*%
X35228000Y11860000D03*
%TO.P,A1,20,A1*%
%TO.N,/CURR2*%
X35228000Y14400000D03*
%TO.P,A1,21,A2*%
%TO.N,/CURR3*%
X35228000Y16940000D03*
%TO.P,A1,22,A3*%
%TO.N,/CURR4*%
X35228000Y19480000D03*
%TO.P,A1,23,A4*%
%TO.N,/I2C_DAT*%
X35228000Y22020000D03*
%TO.P,A1,24,A5*%
%TO.N,/I2C_CLK*%
X35228000Y24560000D03*
%TO.P,A1,25,A6*%
%TO.N,unconnected-(A1-A6-Pad25)*%
X35228000Y27100000D03*
%TO.P,A1,26,A7*%
%TO.N,unconnected-(A1-A7-Pad26)*%
X35228000Y29640000D03*
%TO.P,A1,27,+5V*%
%TO.N,+5V*%
X35228000Y32180000D03*
%TO.P,A1,28,~{RESET}*%
%TO.N,unconnected-(A1-~{RESET}-Pad28)*%
X35228000Y34720000D03*
%TO.P,A1,29,GND*%
%TO.N,GND*%
X35228000Y37260000D03*
%TO.P,A1,30,VIN*%
%TO.N,unconnected-(A1-VIN-Pad30)*%
X35228000Y39800000D03*
%TD*%
D12*
%TO.P,J2,1,Pin_1*%
%TO.N,GND*%
X3600000Y61450000D03*
D13*
%TO.P,J2,2,Pin_2*%
%TO.N,+12V*%
X3600000Y58910000D03*
%TO.P,J2,3,Pin_3*%
%TO.N,/I2C_CLK*%
X3600000Y56370000D03*
%TO.P,J2,4,Pin_4*%
%TO.N,/I2C_DAT*%
X3600000Y53830000D03*
%TO.P,J2,5,Pin_5*%
%TO.N,GND*%
X3600000Y51290000D03*
%TO.P,J2,6,Pin_6*%
%TO.N,/E_STOP*%
X3600000Y48750000D03*
%TO.P,J2,7,Pin_7*%
%TO.N,/INT*%
X3600000Y46210000D03*
%TO.P,J2,8,Pin_8*%
%TO.N,/SYNC*%
X3600000Y43670000D03*
%TO.P,J2,9,Pin_9*%
%TO.N,+12V*%
X3600000Y41130000D03*
%TO.P,J2,10,Pin_10*%
%TO.N,GND*%
X3600000Y38590000D03*
%TD*%
D14*
%TO.P,J4,1,Pin_1*%
%TO.N,Net-(J4-Pin_1)*%
X50700000Y57050000D03*
D15*
%TO.P,J4,2,Pin_2*%
%TO.N,Net-(J4-Pin_2)*%
X60200000Y63400000D03*
%TD*%
D14*
%TO.P,J5,1,Pin_1*%
%TO.N,Net-(J5-Pin_1)*%
X50875000Y35725000D03*
D15*
%TO.P,J5,2,Pin_2*%
%TO.N,Net-(J5-Pin_2)*%
X60375000Y42075000D03*
%TD*%
D14*
%TO.P,J6,1,Pin_1*%
%TO.N,Net-(J6-Pin_1)*%
X50675000Y78325000D03*
D15*
%TO.P,J6,2,Pin_2*%
%TO.N,Net-(J6-Pin_2)*%
X60175000Y84675000D03*
%TD*%
D14*
%TO.P,J3,1,Pin_1*%
%TO.N,Net-(J3-Pin_1)*%
X50675000Y15250000D03*
D15*
%TO.P,J3,2,Pin_2*%
%TO.N,Net-(J3-Pin_2)*%
X60175000Y21600000D03*
%TD*%
D16*
%TO.P,J1,1,Pin_1*%
%TO.N,GND*%
X29098000Y5400000D03*
%TO.P,J1,2,Pin_2*%
%TO.N,+5V*%
X28098000Y5400000D03*
%TO.P,J1,3,Pin_3*%
%TO.N,/I2C_DAT*%
X27098000Y5400000D03*
%TO.P,J1,4,Pin_4*%
%TO.N,/I2C_CLK*%
X26098000Y5400000D03*
D17*
%TO.P,J1,MP*%
%TO.N,N/C*%
X30398000Y1525000D03*
X24798000Y1525000D03*
%TD*%
D18*
%TO.P,U4,1,IP+*%
%TO.N,Net-(J5-Pin_2)*%
X47629000Y43344000D03*
%TO.P,U4,2,IP+*%
X47629000Y42074000D03*
%TO.P,U4,3,IP+*%
X47629000Y40804000D03*
%TO.P,U4,4,IP+*%
X47629000Y39534000D03*
%TO.P,U4,5,IP-*%
%TO.N,Net-(J5-Pin_1)*%
X47629000Y38264000D03*
%TO.P,U4,6,IP-*%
X47629000Y36994000D03*
%TO.P,U4,7,IP-*%
X47629000Y35724000D03*
%TO.P,U4,8,IP-*%
X47629000Y34454000D03*
%TO.P,U4,9,NC*%
%TO.N,unconnected-(U4-NC-Pad9)*%
X38329000Y34454000D03*
%TO.P,U4,10,VCC*%
%TO.N,+5V*%
X38329000Y35724000D03*
%TO.P,U4,11,NC*%
%TO.N,GND*%
X38329000Y36994000D03*
%TO.P,U4,12,VIOUT*%
%TO.N,/CURR2*%
X38329000Y38264000D03*
%TO.P,U4,13,BW_SEL*%
%TO.N,GND*%
X38329000Y39534000D03*
%TO.P,U4,14,NC*%
X38329000Y40804000D03*
%TO.P,U4,15,GND*%
X38329000Y42074000D03*
%TO.P,U4,16,NC*%
%TO.N,unconnected-(U4-NC-Pad16)*%
X38329000Y43344000D03*
%TD*%
D19*
%TO.P,C1,1*%
%TO.N,GND*%
X7425000Y20345000D03*
%TO.P,C1,2*%
%TO.N,+12V*%
X4475000Y20345000D03*
%TD*%
D18*
%TO.P,U5,1,IP+*%
%TO.N,Net-(J6-Pin_2)*%
X47555000Y85946000D03*
%TO.P,U5,2,IP+*%
X47555000Y84676000D03*
%TO.P,U5,3,IP+*%
X47555000Y83406000D03*
%TO.P,U5,4,IP+*%
X47555000Y82136000D03*
%TO.P,U5,5,IP-*%
%TO.N,Net-(J6-Pin_1)*%
X47555000Y80866000D03*
%TO.P,U5,6,IP-*%
X47555000Y79596000D03*
%TO.P,U5,7,IP-*%
X47555000Y78326000D03*
%TO.P,U5,8,IP-*%
X47555000Y77056000D03*
%TO.P,U5,9,NC*%
%TO.N,unconnected-(U5-NC-Pad9)*%
X38255000Y77056000D03*
%TO.P,U5,10,VCC*%
%TO.N,+5V*%
X38255000Y78326000D03*
%TO.P,U5,11,NC*%
%TO.N,GND*%
X38255000Y79596000D03*
%TO.P,U5,12,VIOUT*%
%TO.N,/CURR4*%
X38255000Y80866000D03*
%TO.P,U5,13,BW_SEL*%
%TO.N,GND*%
X38255000Y82136000D03*
%TO.P,U5,14,NC*%
X38255000Y83406000D03*
%TO.P,U5,15,GND*%
X38255000Y84676000D03*
%TO.P,U5,16,NC*%
%TO.N,unconnected-(U5-NC-Pad16)*%
X38255000Y85946000D03*
%TD*%
D20*
%TO.P,U1,1,FB*%
%TO.N,+5V*%
X5012500Y16095000D03*
%TO.P,U1,2,EN*%
%TO.N,+12V*%
X5012500Y17045000D03*
%TO.P,U1,3,VIN*%
X5012500Y17995000D03*
%TO.P,U1,4,GND*%
%TO.N,GND*%
X7287500Y17995000D03*
%TO.P,U1,5,SW*%
%TO.N,Net-(U1-SW)*%
X7287500Y17045000D03*
%TO.P,U1,6,BST*%
%TO.N,Net-(U1-BST)*%
X7287500Y16095000D03*
%TD*%
D19*
%TO.P,C2,1*%
%TO.N,Net-(U1-SW)*%
X10025000Y13545000D03*
%TO.P,C2,2*%
%TO.N,Net-(U1-BST)*%
X7075000Y13545000D03*
%TD*%
D21*
%TO.P,C3,1*%
%TO.N,GND*%
X9775000Y20345000D03*
%TO.P,C3,2*%
%TO.N,+5V*%
X12725000Y20345000D03*
%TD*%
D18*
%TO.P,U3,1,IP+*%
%TO.N,Net-(J4-Pin_2)*%
X47630000Y64616000D03*
%TO.P,U3,2,IP+*%
X47630000Y63346000D03*
%TO.P,U3,3,IP+*%
X47630000Y62076000D03*
%TO.P,U3,4,IP+*%
X47630000Y60806000D03*
%TO.P,U3,5,IP-*%
%TO.N,Net-(J4-Pin_1)*%
X47630000Y59536000D03*
%TO.P,U3,6,IP-*%
X47630000Y58266000D03*
%TO.P,U3,7,IP-*%
X47630000Y56996000D03*
%TO.P,U3,8,IP-*%
X47630000Y55726000D03*
%TO.P,U3,9,NC*%
%TO.N,unconnected-(U3-NC-Pad9)*%
X38330000Y55726000D03*
%TO.P,U3,10,VCC*%
%TO.N,+5V*%
X38330000Y56996000D03*
%TO.P,U3,11,NC*%
%TO.N,GND*%
X38330000Y58266000D03*
%TO.P,U3,12,VIOUT*%
%TO.N,/CURR3*%
X38330000Y59536000D03*
%TO.P,U3,13,BW_SEL*%
%TO.N,GND*%
X38330000Y60806000D03*
%TO.P,U3,14,NC*%
X38330000Y62076000D03*
%TO.P,U3,15,GND*%
X38330000Y63346000D03*
%TO.P,U3,16,NC*%
%TO.N,unconnected-(U3-NC-Pad16)*%
X38330000Y64616000D03*
%TD*%
D21*
%TO.P,C4,1*%
%TO.N,GND*%
X9775000Y23345000D03*
%TO.P,C4,2*%
%TO.N,+5V*%
X12725000Y23345000D03*
%TD*%
D18*
%TO.P,U2,1,IP+*%
%TO.N,Net-(J3-Pin_2)*%
X47593000Y22619000D03*
%TO.P,U2,2,IP+*%
X47593000Y21349000D03*
%TO.P,U2,3,IP+*%
X47593000Y20079000D03*
%TO.P,U2,4,IP+*%
X47593000Y18809000D03*
%TO.P,U2,5,IP-*%
%TO.N,Net-(J3-Pin_1)*%
X47593000Y17539000D03*
%TO.P,U2,6,IP-*%
X47593000Y16269000D03*
%TO.P,U2,7,IP-*%
X47593000Y14999000D03*
%TO.P,U2,8,IP-*%
X47593000Y13729000D03*
%TO.P,U2,9,NC*%
%TO.N,unconnected-(U2-NC-Pad9)*%
X38293000Y13729000D03*
%TO.P,U2,10,VCC*%
%TO.N,+5V*%
X38293000Y14999000D03*
%TO.P,U2,11,NC*%
%TO.N,GND*%
X38293000Y16269000D03*
%TO.P,U2,12,VIOUT*%
%TO.N,/CURR1*%
X38293000Y17539000D03*
%TO.P,U2,13,BW_SEL*%
%TO.N,GND*%
X38293000Y18809000D03*
%TO.P,U2,14,NC*%
X38293000Y20079000D03*
%TO.P,U2,15,GND*%
X38293000Y21349000D03*
%TO.P,U2,16,NC*%
%TO.N,unconnected-(U2-NC-Pad16)*%
X38293000Y22619000D03*
%TD*%
D22*
%TO.P,L1,1*%
%TO.N,Net-(U1-SW)*%
X9850000Y17045000D03*
%TO.P,L1,2*%
%TO.N,+5V*%
X12650000Y17045000D03*
%TD*%
D23*
%TO.N,GND*%
X14250000Y21895000D03*
X3750000Y13345000D03*
D24*
X7250000Y18845000D03*
D23*
X7350000Y23595000D03*
D24*
X8550000Y19545000D03*
X8550000Y21045000D03*
X7450000Y21845000D03*
D23*
X50200000Y2100000D03*
D24*
X9750000Y21845000D03*
D23*
X3550000Y16595000D03*
X14250000Y13995000D03*
X14250000Y18995000D03*
D24*
X8150000Y18845000D03*
X6150000Y16145000D03*
D23*
%TO.N,+5V*%
X28088000Y3249500D03*
%TO.N,/I2C_CLK*%
X25588000Y7200000D03*
X31388000Y24500000D03*
%TO.N,/I2C_DAT*%
X31388000Y22000000D03*
X26781039Y7195083D03*
%TO.N,/CURR1*%
X40298959Y17201041D03*
%TO.N,/CURR2*%
X41433000Y38150000D03*
%TO.N,/CURR3*%
X40573554Y59775636D03*
%TO.N,/CURR4*%
X39800000Y80800000D03*
%TD*%
D25*
%TO.N,GND*%
X7287500Y17995000D02*
X6200000Y17995000D01*
X8950000Y21845000D02*
X10650000Y21845000D01*
X40509000Y62091000D02*
X38283000Y62091000D01*
X6200000Y17995000D02*
X6150000Y17945000D01*
X9750000Y21845000D02*
X8950000Y21845000D01*
X42283000Y37783000D02*
X42283000Y39517000D01*
X6350000Y18845000D02*
X6150000Y18645000D01*
X40996000Y40804000D02*
X38329000Y40804000D01*
X40281000Y58281000D02*
X41700000Y59700000D01*
X41300000Y82500000D02*
X40366000Y83434000D01*
X8400000Y17995000D02*
X8550000Y18145000D01*
X38258000Y79624000D02*
X40324000Y79624000D01*
X42283000Y39517000D02*
X40996000Y40804000D01*
X7250000Y18032500D02*
X7287500Y17995000D01*
X41300000Y80600000D02*
X41300000Y82500000D01*
X7250000Y18845000D02*
X6350000Y18845000D01*
X42100000Y18600000D02*
X40621000Y20079000D01*
X8550000Y19245000D02*
X8150000Y18845000D01*
X6150000Y17945000D02*
X6150000Y16145000D01*
X8550000Y20345000D02*
X8550000Y19545000D01*
X8550000Y20345000D02*
X8550000Y21045000D01*
X40324000Y79624000D02*
X41300000Y80600000D01*
X40569000Y16269000D02*
X42100000Y17800000D01*
D26*
X7425000Y20345000D02*
X9775000Y20345000D01*
D25*
X38293000Y16269000D02*
X40569000Y16269000D01*
X40621000Y20079000D02*
X38293000Y20079000D01*
X40366000Y83434000D02*
X38258000Y83434000D01*
X8150000Y18845000D02*
X7250000Y18845000D01*
X6150000Y18645000D02*
X6150000Y17945000D01*
X41700000Y60900000D02*
X40509000Y62091000D01*
X8550000Y18145000D02*
X8550000Y19545000D01*
X42100000Y17800000D02*
X42100000Y18600000D01*
X8550000Y19545000D02*
X8550000Y19245000D01*
X41494000Y36994000D02*
X42283000Y37783000D01*
X7287500Y17995000D02*
X8400000Y17995000D01*
X7250000Y18845000D02*
X7250000Y18032500D01*
X38329000Y36994000D02*
X41494000Y36994000D01*
X41700000Y59700000D02*
X41700000Y60900000D01*
X38283000Y58281000D02*
X40281000Y58281000D01*
D26*
%TO.N,+5V*%
X16256000Y1524000D02*
X21336000Y1524000D01*
D27*
X43300000Y59664000D02*
X42933000Y59297000D01*
X43233000Y37121000D02*
X43233000Y32400000D01*
D26*
X22860000Y9652000D02*
X22860000Y19812000D01*
X35228000Y32180000D02*
X28098000Y25050000D01*
D27*
X43233000Y32400000D02*
X43233000Y16813000D01*
X41836000Y35724000D02*
X43233000Y37121000D01*
D26*
X21336000Y1524000D02*
X22860000Y3048000D01*
D27*
X38329000Y35724000D02*
X41836000Y35724000D01*
D25*
X12650000Y12145000D02*
X6503122Y12145000D01*
D27*
X43233000Y58997000D02*
X43233000Y37121000D01*
D26*
X12725000Y23345000D02*
X12700000Y23320000D01*
D25*
X26924000Y9652000D02*
X22860000Y9652000D01*
X5012500Y13635622D02*
X5012500Y16095000D01*
D26*
X12700000Y20320000D02*
X12700000Y17095000D01*
X22860000Y3048000D02*
X22860000Y9652000D01*
D27*
X40876000Y78354000D02*
X43300000Y75930000D01*
D25*
X28098000Y5400000D02*
X28098000Y8478000D01*
D26*
X12650000Y12145000D02*
X12650000Y5130000D01*
D25*
X28098000Y3259500D02*
X28098000Y5400000D01*
D26*
X12700000Y23320000D02*
X12700000Y20370000D01*
X12650000Y12145000D02*
X12650000Y17045000D01*
D27*
X38283000Y57011000D02*
X40647000Y57011000D01*
X43013000Y32180000D02*
X35228000Y32180000D01*
X43300000Y75930000D02*
X43300000Y59664000D01*
X43233000Y16813000D02*
X41419000Y14999000D01*
D26*
X22860000Y19812000D02*
X28098000Y25050000D01*
D27*
X43233000Y32400000D02*
X43013000Y32180000D01*
D25*
X28088000Y3249500D02*
X28098000Y3259500D01*
X6503122Y12145000D02*
X5012500Y13635622D01*
D27*
X12725000Y17120000D02*
X12650000Y17045000D01*
D25*
X35408000Y32000000D02*
X35228000Y32180000D01*
D26*
X12725000Y20345000D02*
X12700000Y20320000D01*
X12700000Y17095000D02*
X12650000Y17045000D01*
X12700000Y20370000D02*
X12725000Y20345000D01*
D27*
X42933000Y59297000D02*
X43233000Y58997000D01*
X40647000Y57011000D02*
X42933000Y59297000D01*
X41419000Y14999000D02*
X38293000Y14999000D01*
X38258000Y78354000D02*
X40876000Y78354000D01*
D25*
X28098000Y8478000D02*
X26924000Y9652000D01*
D26*
X12650000Y5130000D02*
X16256000Y1524000D01*
D25*
%TO.N,/I2C_CLK*%
X35168000Y24500000D02*
X35228000Y24560000D01*
X25588000Y7200000D02*
X26098000Y6690000D01*
X26098000Y6690000D02*
X26098000Y5400000D01*
X31388000Y24500000D02*
X35168000Y24500000D01*
%TO.N,/I2C_DAT*%
X35208000Y22000000D02*
X35228000Y22020000D01*
X26781039Y7195083D02*
X27098000Y6878122D01*
X31388000Y22000000D02*
X35208000Y22000000D01*
X27098000Y6878122D02*
X27098000Y5400000D01*
%TO.N,/CURR1*%
X40298959Y17201041D02*
X39961000Y17539000D01*
X39961000Y17539000D02*
X38293000Y17539000D01*
%TO.N,/CURR2*%
X41433000Y38150000D02*
X41319000Y38264000D01*
X41319000Y38264000D02*
X38329000Y38264000D01*
D26*
%TO.N,+12V*%
X1524000Y40256081D02*
X1524000Y35052000D01*
X2397919Y41130000D02*
X1524000Y40256081D01*
D27*
X4110000Y58910000D02*
X3600000Y58910000D01*
X5012500Y17995000D02*
X5012500Y17095000D01*
D26*
X3600000Y41130000D02*
X2397919Y41130000D01*
D27*
X4475000Y18532500D02*
X5012500Y17995000D01*
X4475000Y20345000D02*
X4475000Y18532500D01*
D26*
X1524000Y35052000D02*
X4475000Y32101000D01*
X4475000Y32101000D02*
X4475000Y20345000D01*
D25*
%TO.N,unconnected-(A1-D12-Pad15)*%
X19988000Y4420100D02*
X19988000Y4240000D01*
%TO.N,/CURR3*%
X40573554Y59775636D02*
X40333918Y59536000D01*
X40333918Y59536000D02*
X38330000Y59536000D01*
%TO.N,/CURR4*%
X39800000Y80800000D02*
X39734000Y80866000D01*
X39734000Y80866000D02*
X38255000Y80866000D01*
D27*
%TO.N,Net-(U1-SW)*%
X9850000Y13720000D02*
X10025000Y13545000D01*
X9850000Y17045000D02*
X8206238Y17045000D01*
X9850000Y17045000D02*
X9850000Y13720000D01*
D25*
%TO.N,Net-(U1-BST)*%
X7075000Y15882500D02*
X7287500Y16095000D01*
X7075000Y13545000D02*
X7075000Y15882500D01*
D26*
%TO.N,unconnected-(A1-VIN-Pad30)*%
X35245000Y39783000D02*
X35228000Y39800000D01*
%TD*%
%TA.AperFunction,Conductor*%
%TO.N,GND*%
G36*
X2280703Y32526377D02*
G01*
X2287181Y32520345D01*
X3188181Y31619345D01*
X3221666Y31558022D01*
X3224500Y31531664D01*
X3224500Y20246578D01*
X3255290Y20052174D01*
X3316116Y19864975D01*
X3316119Y19864968D01*
X3385985Y19727847D01*
X3399500Y19671557D01*
X3399500Y19645000D01*
X3399501Y19644982D01*
X3410001Y19542203D01*
X3410001Y19542201D01*
X3428198Y19487288D01*
X3465116Y19375876D01*
X3467458Y19368810D01*
X3465631Y19368205D01*
X3474500Y19328202D01*
X3474500Y18433956D01*
X3512947Y18240671D01*
X3512948Y18240667D01*
X3512949Y18240664D01*
X3513751Y18238730D01*
X3519520Y18224802D01*
X3519521Y18224798D01*
X3588364Y18058593D01*
X3588371Y18058580D01*
X3697860Y17894719D01*
X3697863Y17894715D01*
X3830811Y17761767D01*
X3862206Y17708682D01*
X3898254Y17584606D01*
X3898255Y17584604D01*
X3898256Y17584602D01*
X3899133Y17583119D01*
X3899466Y17581805D01*
X3901353Y17577446D01*
X3900649Y17577142D01*
X3916315Y17515396D01*
X3900861Y17462767D01*
X3901353Y17462554D01*
X3899630Y17458574D01*
X3899133Y17456882D01*
X3898506Y17455823D01*
X3898254Y17455395D01*
X3898254Y17455394D01*
X3852402Y17297574D01*
X3852401Y17297568D01*
X3849500Y17260702D01*
X3849500Y16829299D01*
X3852401Y16792433D01*
X3852402Y16792427D01*
X3898254Y16634607D01*
X3898254Y16634606D01*
X3898255Y16634604D01*
X3898256Y16634602D01*
X3899133Y16633119D01*
X3899466Y16631805D01*
X3901353Y16627446D01*
X3900649Y16627142D01*
X3916315Y16565396D01*
X3900861Y16512767D01*
X3901353Y16512554D01*
X3899630Y16508574D01*
X3899133Y16506882D01*
X3898506Y16505823D01*
X3898254Y16505395D01*
X3898254Y16505394D01*
X3852402Y16347574D01*
X3852401Y16347568D01*
X3849500Y16310702D01*
X3849500Y15879299D01*
X3852401Y15842433D01*
X3852402Y15842427D01*
X3898254Y15684607D01*
X3898255Y15684604D01*
X3898256Y15684602D01*
X3918324Y15650669D01*
X3981732Y15543450D01*
X3981918Y15543136D01*
X3981923Y15543130D01*
X4098129Y15426924D01*
X4098133Y15426921D01*
X4098135Y15426919D01*
X4098138Y15426918D01*
X4098141Y15426915D01*
X4201120Y15366014D01*
X4248804Y15314946D01*
X4262000Y15259282D01*
X4262000Y13561704D01*
X4262000Y13561702D01*
X4261999Y13561702D01*
X4290840Y13416718D01*
X4290842Y13416709D01*
X4347412Y13280134D01*
X4347420Y13280120D01*
X4375662Y13237854D01*
X4375663Y13237851D01*
X4375664Y13237851D01*
X4408407Y13188846D01*
X4429549Y13157205D01*
X6024708Y11562046D01*
X6054180Y11542355D01*
X6098392Y11512814D01*
X6147627Y11479916D01*
X6147628Y11479916D01*
X6147629Y11479915D01*
X6147631Y11479914D01*
X6284204Y11423344D01*
X6284209Y11423342D01*
X6284213Y11423342D01*
X6284214Y11423341D01*
X6429201Y11394500D01*
X6429204Y11394500D01*
X6429205Y11394500D01*
X6577040Y11394500D01*
X11275500Y11394500D01*
X11342539Y11374815D01*
X11388294Y11322011D01*
X11399500Y11270500D01*
X11399500Y5031578D01*
X11430290Y4837174D01*
X11491117Y4649970D01*
X11560089Y4514607D01*
X11580476Y4474595D01*
X11696172Y4315354D01*
X15441354Y570172D01*
X15600595Y454476D01*
X15683454Y412258D01*
X15775969Y365118D01*
X15775971Y365118D01*
X15775974Y365116D01*
X15876318Y332513D01*
X15963173Y304291D01*
X16157579Y273500D01*
X16162433Y273118D01*
X16227723Y248238D01*
X16269197Y192009D01*
X16273687Y122284D01*
X16239769Y61199D01*
X16178210Y28150D01*
X16152711Y25500D01*
X10543500Y25500D01*
X10476461Y45185D01*
X10430706Y97989D01*
X10419500Y149500D01*
X10419500Y2047017D01*
X10419500Y2047018D01*
X10408006Y2074767D01*
X10386767Y2096006D01*
X10359018Y2107500D01*
X10359017Y2107500D01*
X9343500Y2107500D01*
X9276461Y2127185D01*
X9230706Y2179989D01*
X9219500Y2231500D01*
X9219500Y5057007D01*
X9219499Y5057021D01*
X9219499Y5234290D01*
X9182170Y5637141D01*
X9182170Y5637142D01*
X9179873Y5649432D01*
X9107827Y6034843D01*
X8997108Y6423981D01*
X8850955Y6801244D01*
X8670617Y7163412D01*
X8457632Y7507395D01*
X8213816Y7830260D01*
X7941250Y8129250D01*
X7642260Y8401816D01*
X7642257Y8401818D01*
X7642254Y8401821D01*
X7319396Y8645631D01*
X7319395Y8645632D01*
X6975412Y8858617D01*
X6613244Y9038955D01*
X6235981Y9185108D01*
X6235967Y9185112D01*
X6235964Y9185113D01*
X5846850Y9295825D01*
X5846850Y9295826D01*
X5449140Y9370171D01*
X5123842Y9400313D01*
X5046292Y9407499D01*
X4844000Y9407499D01*
X4819469Y9407499D01*
X4808022Y9399182D01*
X4742216Y9375702D01*
X4735136Y9375500D01*
X2199500Y9375500D01*
X2132461Y9395185D01*
X2086706Y9447989D01*
X2075500Y9499500D01*
X2075500Y32432664D01*
X2095185Y32499703D01*
X2147989Y32545458D01*
X2217147Y32555402D01*
X2280703Y32526377D01*
G37*
%TD.AperFunction*%
%TA.AperFunction,Conductor*%
G36*
X50447438Y97904815D02*
G01*
X50493193Y97852011D01*
X50504398Y97800751D01*
X50518774Y90613294D01*
X50525761Y87119748D01*
X50506210Y87052669D01*
X50453498Y87006809D01*
X50401761Y86995500D01*
X46335997Y86995500D01*
X46226849Y86983766D01*
X46174507Y86972380D01*
X46070346Y86937712D01*
X46070343Y86937710D01*
X45947388Y86858692D01*
X45947387Y86858691D01*
X45896254Y86814385D01*
X45894077Y86812600D01*
X45798020Y86701744D01*
X45798017Y86701738D01*
X45737303Y86568793D01*
X45717301Y86500674D01*
X45717298Y86500662D01*
X45696500Y86356001D01*
X45696500Y81981998D01*
X45708234Y81872850D01*
X45719620Y81820508D01*
X45754288Y81716347D01*
X45754289Y81716345D01*
X45754290Y81716343D01*
X45833308Y81593388D01*
X45843061Y81582132D01*
X45872087Y81518578D01*
X45862145Y81449419D01*
X45843064Y81419726D01*
X45798018Y81367740D01*
X45798017Y81367738D01*
X45737303Y81234793D01*
X45717301Y81166674D01*
X45717298Y81166662D01*
X45696500Y81022001D01*
X45696500Y76647998D01*
X45708234Y76538850D01*
X45719620Y76486508D01*
X45754288Y76382347D01*
X45754289Y76382345D01*
X45754290Y76382343D01*
X45833308Y76259388D01*
X45833310Y76259385D01*
X45833313Y76259382D01*
X45877614Y76208255D01*
X45879400Y76206078D01*
X45990256Y76110021D01*
X45990259Y76110020D01*
X45990261Y76110018D01*
X46123210Y76049302D01*
X46191331Y76029300D01*
X46336000Y76008500D01*
X46336003Y76008500D01*
X48908966Y76008500D01*
X48908969Y76008500D01*
X49035964Y76024451D01*
X49096350Y76039864D01*
X49215449Y76086725D01*
X49332454Y76174314D01*
X49382658Y76224518D01*
X49470246Y76341523D01*
X49517732Y76468839D01*
X49559602Y76524768D01*
X49625066Y76549185D01*
X49633912Y76549501D01*
X50423149Y76549501D01*
X50490188Y76529816D01*
X50535943Y76477012D01*
X50547148Y76425752D01*
X50565065Y67467539D01*
X50568393Y65803748D01*
X50548842Y65736669D01*
X50496130Y65690809D01*
X50444393Y65679500D01*
X46233997Y65679500D01*
X46124849Y65667766D01*
X46072507Y65656380D01*
X45968346Y65621712D01*
X45968343Y65621710D01*
X45845388Y65542692D01*
X45845387Y65542691D01*
X45794254Y65498385D01*
X45792077Y65496600D01*
X45696020Y65385744D01*
X45696017Y65385738D01*
X45635303Y65252793D01*
X45615301Y65184674D01*
X45615298Y65184662D01*
X45594500Y65040001D01*
X45594500Y60692998D01*
X45606234Y60583850D01*
X45617620Y60531508D01*
X45652288Y60427347D01*
X45652289Y60427345D01*
X45652290Y60427343D01*
X45731308Y60304388D01*
X45731310Y60304385D01*
X45731313Y60304382D01*
X45775614Y60253255D01*
X45777400Y60251078D01*
X45821759Y60212641D01*
X45859534Y60153863D01*
X45859534Y60083994D01*
X45834271Y60037727D01*
X45823020Y60024744D01*
X45823017Y60024738D01*
X45762303Y59891793D01*
X45742301Y59823674D01*
X45742298Y59823662D01*
X45721500Y59679001D01*
X45721500Y55358998D01*
X45733234Y55249850D01*
X45744620Y55197508D01*
X45779288Y55093347D01*
X45779289Y55093345D01*
X45779290Y55093343D01*
X45840290Y54998425D01*
X45858310Y54970385D01*
X45858313Y54970382D01*
X45902614Y54919255D01*
X45904400Y54917078D01*
X46015256Y54821021D01*
X46015259Y54821020D01*
X46015261Y54821018D01*
X46148210Y54760302D01*
X46216331Y54740300D01*
X46361000Y54719500D01*
X46361003Y54719500D01*
X48944446Y54719500D01*
X48944449Y54719500D01*
X49071446Y54735452D01*
X49131831Y54750865D01*
X49250924Y54797722D01*
X49367930Y54885310D01*
X49418133Y54935512D01*
X49418138Y54935518D01*
X49505726Y55052523D01*
X49556803Y55189465D01*
X49556804Y55189471D01*
X49558350Y55193615D01*
X49560345Y55192871D01*
X49593552Y55244350D01*
X49657156Y55273268D01*
X49674597Y55274501D01*
X50465699Y55274501D01*
X50532738Y55254816D01*
X50578493Y55202012D01*
X50589698Y55150752D01*
X50611021Y44489748D01*
X50591470Y44422669D01*
X50538758Y44376809D01*
X50487021Y44365500D01*
X46406997Y44365500D01*
X46297849Y44353766D01*
X46245507Y44342380D01*
X46141346Y44307712D01*
X46141343Y44307710D01*
X46018388Y44228692D01*
X46018387Y44228691D01*
X45967254Y44184385D01*
X45965077Y44182600D01*
X45869020Y44071744D01*
X45869017Y44071738D01*
X45808303Y43938793D01*
X45788301Y43870674D01*
X45788298Y43870662D01*
X45767500Y43726001D01*
X45767500Y39405998D01*
X45779234Y39296850D01*
X45790620Y39244508D01*
X45825288Y39140347D01*
X45825289Y39140345D01*
X45825290Y39140343D01*
X45903390Y39018817D01*
X45923074Y38951778D01*
X45903389Y38884738D01*
X45880276Y38858065D01*
X45840254Y38823386D01*
X45838079Y38821602D01*
X45742020Y38710744D01*
X45742017Y38710738D01*
X45681303Y38577793D01*
X45661301Y38509674D01*
X45661298Y38509662D01*
X45640500Y38365001D01*
X45640500Y34071998D01*
X45652234Y33962850D01*
X45663620Y33910508D01*
X45698288Y33806347D01*
X45698289Y33806345D01*
X45698290Y33806343D01*
X45753808Y33719955D01*
X45777310Y33683385D01*
X45777313Y33683382D01*
X45821614Y33632255D01*
X45823400Y33630078D01*
X45934256Y33534021D01*
X45934259Y33534020D01*
X45934261Y33534018D01*
X46067210Y33473302D01*
X46135331Y33453300D01*
X46280000Y33432500D01*
X46280003Y33432500D01*
X50509383Y33432500D01*
X50576422Y33412815D01*
X50622177Y33360011D01*
X50633382Y33308751D01*
X50652186Y23907266D01*
X50652271Y23864748D01*
X50632720Y23797669D01*
X50580008Y23751809D01*
X50528271Y23740500D01*
X46497997Y23740500D01*
X46388849Y23728766D01*
X46336507Y23717380D01*
X46232346Y23682712D01*
X46232343Y23682710D01*
X46109388Y23603692D01*
X46109387Y23603691D01*
X46058254Y23559385D01*
X46056077Y23557600D01*
X45960020Y23446744D01*
X45960017Y23446738D01*
X45899303Y23313793D01*
X45879301Y23245674D01*
X45879298Y23245662D01*
X45858500Y23101001D01*
X45858500Y18680998D01*
X45870234Y18571850D01*
X45881620Y18519508D01*
X45916288Y18415347D01*
X45916289Y18415345D01*
X45916290Y18415343D01*
X45995308Y18292388D01*
X46022800Y18260660D01*
X46028458Y18254131D01*
X46057483Y18190575D01*
X46047539Y18121416D01*
X46028459Y18091726D01*
X45960018Y18012740D01*
X45960017Y18012738D01*
X45899303Y17879793D01*
X45879301Y17811674D01*
X45879298Y17811662D01*
X45858500Y17667001D01*
X45858500Y13346998D01*
X45870234Y13237851D01*
X45881620Y13185508D01*
X45916288Y13081347D01*
X45916289Y13081345D01*
X45916290Y13081343D01*
X45974627Y12990569D01*
X45995310Y12958385D01*
X45995313Y12958382D01*
X46039614Y12907255D01*
X46041400Y12905078D01*
X46152256Y12809021D01*
X46152259Y12809020D01*
X46152261Y12809018D01*
X46285210Y12748302D01*
X46353331Y12728300D01*
X46498000Y12707500D01*
X46498003Y12707500D01*
X49288841Y12707500D01*
X49288852Y12707500D01*
X49334625Y12709544D01*
X49356995Y12711546D01*
X49357003Y12711548D01*
X49357013Y12711548D01*
X49371939Y12713559D01*
X49402384Y12717659D01*
X49541063Y12763812D01*
X49604551Y12795590D01*
X49604558Y12795594D01*
X49724615Y12878950D01*
X49788629Y12958385D01*
X49816314Y12992739D01*
X49816319Y12992746D01*
X49816325Y12992753D01*
X49850914Y13051050D01*
X49851993Y13052763D01*
X49852541Y13053792D01*
X49852553Y13053811D01*
X49852555Y13053814D01*
X49908487Y13188846D01*
X49924111Y13334166D01*
X49923686Y13346078D01*
X49940967Y13413777D01*
X49992105Y13461386D01*
X50047607Y13474501D01*
X50549299Y13474501D01*
X50616338Y13454816D01*
X50662093Y13402012D01*
X50673298Y13350752D01*
X50699464Y268477D01*
X50699601Y199749D01*
X50680050Y132670D01*
X50627338Y86810D01*
X50575601Y75501D01*
X37072982Y75501D01*
X37045231Y64006D01*
X37043045Y61819D01*
X37037103Y58575D01*
X37035079Y57222D01*
X37034957Y57404D01*
X36981722Y28334D01*
X36955364Y25500D01*
X31237574Y25500D01*
X31170535Y45185D01*
X31124780Y97989D01*
X31114836Y167147D01*
X31143861Y230703D01*
X31172478Y255039D01*
X31216656Y282288D01*
X31340712Y406344D01*
X31432814Y555666D01*
X31487999Y722203D01*
X31498500Y824991D01*
X31498499Y2225008D01*
X31487999Y2327797D01*
X31432814Y2494334D01*
X31340712Y2643656D01*
X31216656Y2767712D01*
X31123888Y2824931D01*
X31067336Y2859813D01*
X31067331Y2859815D01*
X31065862Y2860302D01*
X30900797Y2914999D01*
X30900795Y2915000D01*
X30798010Y2925500D01*
X29997998Y2925500D01*
X29997980Y2925499D01*
X29895203Y2915000D01*
X29895200Y2914999D01*
X29728668Y2859815D01*
X29728663Y2859813D01*
X29579342Y2767711D01*
X29455289Y2643658D01*
X29363187Y2494337D01*
X29363185Y2494332D01*
X29340318Y2425322D01*
X29308001Y2327797D01*
X29308001Y2327796D01*
X29308000Y2327796D01*
X29297500Y2225017D01*
X29297500Y824999D01*
X29297501Y824982D01*
X29308000Y722204D01*
X29308001Y722201D01*
X29340940Y622800D01*
X29363186Y555666D01*
X29432910Y442624D01*
X29455289Y406343D01*
X29579344Y282288D01*
X29623522Y255039D01*
X29670247Y203091D01*
X29681470Y134129D01*
X29653627Y70047D01*
X29595558Y31190D01*
X29558426Y25500D01*
X25637574Y25500D01*
X25570535Y45185D01*
X25524780Y97989D01*
X25514836Y167147D01*
X25543861Y230703D01*
X25572478Y255039D01*
X25616656Y282288D01*
X25740712Y406344D01*
X25832814Y555666D01*
X25887999Y722203D01*
X25898500Y824991D01*
X25898499Y2225008D01*
X25887999Y2327797D01*
X25832814Y2494334D01*
X25740712Y2643656D01*
X25616656Y2767712D01*
X25523888Y2824931D01*
X25467336Y2859813D01*
X25467331Y2859815D01*
X25465862Y2860302D01*
X25300797Y2914999D01*
X25300795Y2915000D01*
X25198010Y2925500D01*
X24397998Y2925500D01*
X24397980Y2925499D01*
X24295203Y2915000D01*
X24295200Y2914999D01*
X24273504Y2907809D01*
X24203675Y2905407D01*
X24143634Y2941139D01*
X24112441Y3003660D01*
X24110500Y3025515D01*
X24110500Y8777500D01*
X24130185Y8844539D01*
X24182989Y8890294D01*
X24234500Y8901500D01*
X26561770Y8901500D01*
X26628809Y8881815D01*
X26649451Y8865181D01*
X27304383Y8210249D01*
X27337868Y8148926D01*
X27332884Y8079234D01*
X27291012Y8023301D01*
X27225548Y7998884D01*
X27166266Y8009289D01*
X27060846Y8056226D01*
X27060841Y8056228D01*
X26886609Y8093261D01*
X26875685Y8095583D01*
X26686393Y8095583D01*
X26675469Y8093261D01*
X26501236Y8056228D01*
X26501231Y8056226D01*
X26328309Y7979235D01*
X26328304Y7979232D01*
X26260788Y7930178D01*
X26194982Y7906698D01*
X26126928Y7922524D01*
X26115023Y7930174D01*
X26065130Y7966424D01*
X26040729Y7984152D01*
X25867807Y8061143D01*
X25867802Y8061145D01*
X25716703Y8093261D01*
X25682646Y8100500D01*
X25493354Y8100500D01*
X25470221Y8095583D01*
X25308197Y8061145D01*
X25308192Y8061143D01*
X25135270Y7984152D01*
X25135265Y7984149D01*
X24982129Y7872889D01*
X24855466Y7732215D01*
X24760821Y7568285D01*
X24760818Y7568278D01*
X24702327Y7388260D01*
X24702326Y7388256D01*
X24682540Y7200000D01*
X24702326Y7011744D01*
X24702327Y7011741D01*
X24760818Y6831723D01*
X24760821Y6831716D01*
X24855467Y6667784D01*
X24959148Y6552635D01*
X24982129Y6527112D01*
X25135265Y6415852D01*
X25135266Y6415852D01*
X25135270Y6415849D01*
X25256829Y6361727D01*
X25310066Y6316477D01*
X25330387Y6249628D01*
X25325470Y6213854D01*
X25300401Y6127568D01*
X25297500Y6090702D01*
X25297500Y4709299D01*
X25300401Y4672433D01*
X25300402Y4672427D01*
X25346254Y4514607D01*
X25346255Y4514604D01*
X25429917Y4373138D01*
X25429923Y4373130D01*
X25546129Y4256924D01*
X25546133Y4256921D01*
X25546135Y4256919D01*
X25687602Y4173256D01*
X25729224Y4161164D01*
X25845426Y4127403D01*
X25845429Y4127403D01*
X25845431Y4127402D01*
X25882306Y4124500D01*
X25882314Y4124500D01*
X26313686Y4124500D01*
X26313694Y4124500D01*
X26350569Y4127402D01*
X26350571Y4127403D01*
X26350573Y4127403D01*
X26392191Y4139495D01*
X26508398Y4173256D01*
X26530471Y4186310D01*
X26534878Y4188916D01*
X26602601Y4206100D01*
X26661122Y4188916D01*
X26687598Y4173258D01*
X26687599Y4173258D01*
X26687602Y4173256D01*
X26729224Y4161164D01*
X26845426Y4127403D01*
X26845429Y4127403D01*
X26845431Y4127402D01*
X26882306Y4124500D01*
X26882314Y4124500D01*
X27223500Y4124500D01*
X27290539Y4104815D01*
X27336294Y4052011D01*
X27347500Y4000500D01*
X27347500Y3801143D01*
X27330888Y3739144D01*
X27260820Y3617782D01*
X27260818Y3617778D01*
X27202327Y3437760D01*
X27202326Y3437756D01*
X27182540Y3249500D01*
X27202326Y3061244D01*
X27202327Y3061241D01*
X27260818Y2881223D01*
X27260821Y2881216D01*
X27355467Y2717284D01*
X27427738Y2637019D01*
X27482129Y2576612D01*
X27635265Y2465352D01*
X27635270Y2465349D01*
X27808192Y2388358D01*
X27808197Y2388356D01*
X27993354Y2349000D01*
X27993355Y2349000D01*
X28182644Y2349000D01*
X28182646Y2349000D01*
X28367803Y2388356D01*
X28540730Y2465349D01*
X28693871Y2576612D01*
X28820533Y2717284D01*
X28915179Y2881216D01*
X28973674Y3061244D01*
X28993460Y3249500D01*
X28973674Y3437756D01*
X28915179Y3617784D01*
X28865111Y3704504D01*
X28848500Y3766502D01*
X28848500Y4127705D01*
X29348000Y4127705D01*
X29348001Y4127705D01*
X29350486Y4127900D01*
X29508198Y4173719D01*
X29649552Y4257315D01*
X29649561Y4257322D01*
X29765678Y4373439D01*
X29765685Y4373448D01*
X29849282Y4514804D01*
X29849283Y4514807D01*
X29895099Y4672505D01*
X29895100Y4672511D01*
X29897999Y4709351D01*
X29898000Y4709366D01*
X29898000Y5150000D01*
X29348000Y5150000D01*
X29348000Y4127705D01*
X28848500Y4127705D01*
X28848500Y4492672D01*
X28853424Y4527267D01*
X28895597Y4672427D01*
X28895598Y4672433D01*
X28898499Y4709299D01*
X28898500Y4709306D01*
X28898500Y5650000D01*
X29348000Y5650000D01*
X29898000Y5650000D01*
X29898000Y6090635D01*
X29897999Y6090650D01*
X29895100Y6127490D01*
X29895099Y6127496D01*
X29849283Y6285194D01*
X29849282Y6285197D01*
X29765685Y6426553D01*
X29765678Y6426562D01*
X29649561Y6542679D01*
X29649552Y6542686D01*
X29508196Y6626283D01*
X29508193Y6626284D01*
X29350494Y6672100D01*
X29350497Y6672100D01*
X29348000Y6672297D01*
X29348000Y5650000D01*
X28898500Y5650000D01*
X28898500Y6090694D01*
X28895598Y6127569D01*
X28895597Y6127574D01*
X28853424Y6272735D01*
X28848500Y6307330D01*
X28848500Y8551921D01*
X28829859Y8645631D01*
X28829859Y8645632D01*
X28819659Y8696912D01*
X28765408Y8827883D01*
X28763765Y8832475D01*
X28763084Y8833495D01*
X28717645Y8901500D01*
X28717645Y8901501D01*
X28680950Y8956419D01*
X27402421Y10234948D01*
X27402414Y10234954D01*
X27328729Y10284188D01*
X27328729Y10284187D01*
X27279491Y10317087D01*
X27142917Y10373657D01*
X27142907Y10373660D01*
X26997920Y10402500D01*
X26997918Y10402500D01*
X24234500Y10402500D01*
X24167461Y10422185D01*
X24121706Y10474989D01*
X24110500Y10526500D01*
X24110500Y19242664D01*
X24130185Y19309703D01*
X24146819Y19330345D01*
X29051829Y24235355D01*
X30216974Y25400500D01*
X33878813Y29062341D01*
X33940134Y29095824D01*
X34009826Y29090840D01*
X34065759Y29048968D01*
X34078873Y29027066D01*
X34097432Y28987266D01*
X34097433Y28987265D01*
X34227954Y28800859D01*
X34388858Y28639955D01*
X34388861Y28639953D01*
X34575266Y28509432D01*
X34633275Y28482382D01*
X34685714Y28436209D01*
X34704866Y28369016D01*
X34684650Y28302135D01*
X34633275Y28257618D01*
X34575267Y28230569D01*
X34575265Y28230568D01*
X34388858Y28100046D01*
X34227954Y27939142D01*
X34097432Y27752735D01*
X34097431Y27752733D01*
X34001261Y27546498D01*
X34001258Y27546489D01*
X33942366Y27326698D01*
X33942364Y27326687D01*
X33922532Y27100002D01*
X33922532Y27099999D01*
X33942364Y26873314D01*
X33942366Y26873303D01*
X34001258Y26653512D01*
X34001261Y26653503D01*
X34097431Y26447268D01*
X34097432Y26447266D01*
X34227954Y26260859D01*
X34388858Y26099955D01*
X34388861Y26099953D01*
X34575266Y25969432D01*
X34633275Y25942382D01*
X34685714Y25896209D01*
X34704866Y25829016D01*
X34684650Y25762135D01*
X34633275Y25717618D01*
X34575267Y25690569D01*
X34575265Y25690568D01*
X34388858Y25560046D01*
X34227954Y25399142D01*
X34160900Y25303377D01*
X34106323Y25259752D01*
X34059325Y25250500D01*
X31927337Y25250500D01*
X31860298Y25270185D01*
X31854452Y25274182D01*
X31840734Y25284149D01*
X31840729Y25284152D01*
X31667807Y25361143D01*
X31667802Y25361145D01*
X31522001Y25392135D01*
X31482646Y25400500D01*
X31293354Y25400500D01*
X31260897Y25393602D01*
X31108197Y25361145D01*
X31108192Y25361143D01*
X30935270Y25284152D01*
X30935265Y25284149D01*
X30782129Y25172889D01*
X30655466Y25032215D01*
X30560821Y24868285D01*
X30560818Y24868278D01*
X30502327Y24688260D01*
X30502326Y24688256D01*
X30482540Y24500000D01*
X30502326Y24311744D01*
X30502327Y24311741D01*
X30560818Y24131723D01*
X30560821Y24131716D01*
X30655467Y23967784D01*
X30782129Y23827112D01*
X30935265Y23715852D01*
X30935270Y23715849D01*
X31108192Y23638858D01*
X31108197Y23638856D01*
X31293354Y23599500D01*
X31293355Y23599500D01*
X31482644Y23599500D01*
X31482646Y23599500D01*
X31667803Y23638856D01*
X31840730Y23715849D01*
X31845424Y23719259D01*
X31854452Y23725818D01*
X31920258Y23749298D01*
X31927337Y23749500D01*
X34147951Y23749500D01*
X34214990Y23729815D01*
X34235632Y23713181D01*
X34388858Y23559955D01*
X34412687Y23543270D01*
X34575266Y23429432D01*
X34612707Y23411973D01*
X34633275Y23402382D01*
X34685714Y23356209D01*
X34704866Y23289016D01*
X34684650Y23222135D01*
X34633275Y23177619D01*
X34616272Y23169690D01*
X34575267Y23150569D01*
X34575265Y23150568D01*
X34388858Y23020046D01*
X34227954Y22859142D01*
X34188908Y22803377D01*
X34134331Y22759752D01*
X34087333Y22750500D01*
X31927337Y22750500D01*
X31860298Y22770185D01*
X31854452Y22774182D01*
X31840734Y22784149D01*
X31840729Y22784152D01*
X31667807Y22861143D01*
X31667802Y22861145D01*
X31522001Y22892135D01*
X31482646Y22900500D01*
X31293354Y22900500D01*
X31260897Y22893602D01*
X31108197Y22861145D01*
X31108192Y22861143D01*
X30935270Y22784152D01*
X30935265Y22784149D01*
X30782129Y22672889D01*
X30655466Y22532215D01*
X30560821Y22368285D01*
X30560818Y22368278D01*
X30502327Y22188260D01*
X30502326Y22188256D01*
X30482540Y22000000D01*
X30502326Y21811744D01*
X30502327Y21811741D01*
X30560818Y21631723D01*
X30560821Y21631716D01*
X30655467Y21467784D01*
X30745974Y21367266D01*
X30782129Y21327112D01*
X30935265Y21215852D01*
X30935270Y21215849D01*
X31108192Y21138858D01*
X31108197Y21138856D01*
X31293354Y21099500D01*
X31293355Y21099500D01*
X31482644Y21099500D01*
X31482646Y21099500D01*
X31667803Y21138856D01*
X31840730Y21215849D01*
X31842776Y21217336D01*
X31854452Y21225818D01*
X31920258Y21249298D01*
X31927337Y21249500D01*
X34115341Y21249500D01*
X34182380Y21229815D01*
X34216916Y21196623D01*
X34227954Y21180859D01*
X34388858Y21019955D01*
X34388861Y21019953D01*
X34575266Y20889432D01*
X34633275Y20862382D01*
X34685714Y20816209D01*
X34704866Y20749016D01*
X34684650Y20682135D01*
X34633275Y20637618D01*
X34575267Y20610569D01*
X34575265Y20610568D01*
X34388858Y20480046D01*
X34227954Y20319142D01*
X34097432Y20132735D01*
X34097431Y20132733D01*
X34001261Y19926498D01*
X34001258Y19926489D01*
X33942366Y19706698D01*
X33942364Y19706687D01*
X33922532Y19480002D01*
X33922532Y19479999D01*
X33942364Y19253314D01*
X33942366Y19253303D01*
X34001258Y19033512D01*
X34001261Y19033503D01*
X34097431Y18827268D01*
X34097432Y18827266D01*
X34227954Y18640859D01*
X34388858Y18479955D01*
X34388861Y18479953D01*
X34575266Y18349432D01*
X34605656Y18335261D01*
X34633275Y18322382D01*
X34685714Y18276209D01*
X34704866Y18209016D01*
X34684650Y18142135D01*
X34633275Y18097618D01*
X34575267Y18070569D01*
X34575265Y18070568D01*
X34388858Y17940046D01*
X34227954Y17779142D01*
X34097432Y17592735D01*
X34097431Y17592733D01*
X34001261Y17386498D01*
X34001258Y17386489D01*
X33942366Y17166698D01*
X33942364Y17166687D01*
X33922532Y16940002D01*
X33922532Y16939999D01*
X33942364Y16713314D01*
X33942366Y16713303D01*
X34001258Y16493512D01*
X34001261Y16493503D01*
X34097431Y16287268D01*
X34097432Y16287266D01*
X34227954Y16100859D01*
X34388858Y15939955D01*
X34417370Y15919991D01*
X34575266Y15809432D01*
X34633275Y15782382D01*
X34685714Y15736209D01*
X34704866Y15669016D01*
X34684650Y15602135D01*
X34633275Y15557619D01*
X34618793Y15550865D01*
X34575267Y15530569D01*
X34575265Y15530568D01*
X34388858Y15400046D01*
X34227954Y15239142D01*
X34097432Y15052735D01*
X34097431Y15052733D01*
X34001261Y14846498D01*
X34001258Y14846489D01*
X33942366Y14626698D01*
X33942364Y14626687D01*
X33922532Y14400002D01*
X33922532Y14399999D01*
X33942364Y14173314D01*
X33942366Y14173303D01*
X34001258Y13953512D01*
X34001261Y13953503D01*
X34097431Y13747268D01*
X34097432Y13747266D01*
X34227954Y13560859D01*
X34388858Y13399955D01*
X34388861Y13399953D01*
X34575266Y13269432D01*
X34633275Y13242382D01*
X34685714Y13196209D01*
X34704866Y13129016D01*
X34684650Y13062135D01*
X34633275Y13017618D01*
X34575267Y12990569D01*
X34575265Y12990568D01*
X34388858Y12860046D01*
X34227954Y12699142D01*
X34097432Y12512735D01*
X34097431Y12512733D01*
X34001261Y12306498D01*
X34001258Y12306489D01*
X33942366Y12086698D01*
X33942364Y12086687D01*
X33922532Y11860002D01*
X33922532Y11859999D01*
X33942364Y11633314D01*
X33942366Y11633303D01*
X34001258Y11413512D01*
X34001261Y11413503D01*
X34097431Y11207268D01*
X34097432Y11207266D01*
X34227954Y11020859D01*
X34388858Y10859955D01*
X34388861Y10859953D01*
X34575266Y10729432D01*
X34633275Y10702382D01*
X34685714Y10656209D01*
X34704866Y10589016D01*
X34684650Y10522135D01*
X34633275Y10477618D01*
X34575267Y10450569D01*
X34575265Y10450568D01*
X34388858Y10320046D01*
X34227954Y10159142D01*
X34097432Y9972735D01*
X34097431Y9972733D01*
X34001261Y9766498D01*
X34001258Y9766489D01*
X33942366Y9546698D01*
X33942364Y9546687D01*
X33922532Y9320002D01*
X33922532Y9319999D01*
X33942364Y9093314D01*
X33942366Y9093303D01*
X34001258Y8873512D01*
X34001261Y8873503D01*
X34097431Y8667268D01*
X34097432Y8667266D01*
X34227954Y8480859D01*
X34388858Y8319955D01*
X34388861Y8319953D01*
X34575266Y8189432D01*
X34633275Y8162382D01*
X34685714Y8116209D01*
X34704866Y8049016D01*
X34684650Y7982135D01*
X34633275Y7937618D01*
X34575267Y7910569D01*
X34575265Y7910568D01*
X34388858Y7780046D01*
X34227954Y7619142D01*
X34097432Y7432735D01*
X34097431Y7432733D01*
X34001261Y7226498D01*
X34001258Y7226489D01*
X33942366Y7006698D01*
X33942364Y7006687D01*
X33922532Y6780002D01*
X33922532Y6779999D01*
X33942364Y6553314D01*
X33942366Y6553303D01*
X34001258Y6333512D01*
X34001261Y6333503D01*
X34097431Y6127268D01*
X34097432Y6127266D01*
X34227954Y5940859D01*
X34388858Y5779955D01*
X34388861Y5779953D01*
X34575266Y5649432D01*
X34633275Y5622382D01*
X34685714Y5576209D01*
X34704866Y5509016D01*
X34684650Y5442135D01*
X34633275Y5397618D01*
X34575267Y5370569D01*
X34575265Y5370568D01*
X34388858Y5240046D01*
X34227954Y5079142D01*
X34097432Y4892735D01*
X34097431Y4892733D01*
X34001261Y4686498D01*
X34001258Y4686489D01*
X33942366Y4466698D01*
X33942364Y4466687D01*
X33922532Y4240002D01*
X33922532Y4239999D01*
X33942364Y4013314D01*
X33942366Y4013303D01*
X34001258Y3793512D01*
X34001261Y3793503D01*
X34097431Y3587268D01*
X34097432Y3587266D01*
X34227954Y3400859D01*
X34388858Y3239955D01*
X34388861Y3239953D01*
X34575266Y3109432D01*
X34781504Y3013261D01*
X34781509Y3013260D01*
X34781511Y3013259D01*
X34824404Y3001766D01*
X35001308Y2954365D01*
X35152482Y2941139D01*
X35227998Y2934532D01*
X35228000Y2934532D01*
X35228002Y2934532D01*
X35303518Y2941139D01*
X35454692Y2954365D01*
X35674496Y3013261D01*
X35880734Y3109432D01*
X36067139Y3239953D01*
X36228047Y3400861D01*
X36358568Y3587266D01*
X36454739Y3793504D01*
X36513635Y4013308D01*
X36533237Y4237364D01*
X36533468Y4239999D01*
X36533468Y4240002D01*
X36526875Y4315354D01*
X36513635Y4466692D01*
X36454739Y4686496D01*
X36358568Y4892734D01*
X36228047Y5079139D01*
X36228045Y5079142D01*
X36067141Y5240046D01*
X35880734Y5370568D01*
X35880728Y5370571D01*
X35822725Y5397618D01*
X35770285Y5443790D01*
X35751133Y5510983D01*
X35771348Y5577865D01*
X35822725Y5622382D01*
X35880734Y5649432D01*
X36067139Y5779953D01*
X36228047Y5940861D01*
X36358568Y6127266D01*
X36454739Y6333504D01*
X36513635Y6553308D01*
X36533468Y6780000D01*
X36531609Y6801244D01*
X36513635Y7006687D01*
X36513635Y7006692D01*
X36454739Y7226496D01*
X36358568Y7432734D01*
X36228047Y7619139D01*
X36228045Y7619142D01*
X36067141Y7780046D01*
X35880734Y7910568D01*
X35880728Y7910571D01*
X35822725Y7937618D01*
X35770285Y7983790D01*
X35751133Y8050983D01*
X35771348Y8117865D01*
X35822725Y8162382D01*
X35880734Y8189432D01*
X36067139Y8319953D01*
X36228047Y8480861D01*
X36358568Y8667266D01*
X36454739Y8873504D01*
X36513635Y9093308D01*
X36533468Y9320000D01*
X36513635Y9546692D01*
X36454739Y9766496D01*
X36358568Y9972734D01*
X36228047Y10159139D01*
X36228045Y10159142D01*
X36067141Y10320046D01*
X35880734Y10450568D01*
X35880728Y10450571D01*
X35822725Y10477618D01*
X35770285Y10523790D01*
X35751133Y10590983D01*
X35771348Y10657865D01*
X35822725Y10702382D01*
X35880734Y10729432D01*
X36067139Y10859953D01*
X36228047Y11020861D01*
X36358568Y11207266D01*
X36454739Y11413504D01*
X36513635Y11633308D01*
X36533468Y11860000D01*
X36513635Y12086692D01*
X36454739Y12306496D01*
X36358568Y12512734D01*
X36228047Y12699139D01*
X36228045Y12699142D01*
X36067141Y12860046D01*
X35880734Y12990568D01*
X35880728Y12990571D01*
X35822725Y13017618D01*
X35770285Y13063790D01*
X35751133Y13130983D01*
X35771348Y13197865D01*
X35822725Y13242382D01*
X35880734Y13269432D01*
X36067139Y13399953D01*
X36228047Y13560861D01*
X36358568Y13747266D01*
X36454739Y13953504D01*
X36513635Y14173308D01*
X36533468Y14400000D01*
X36513635Y14626692D01*
X36454739Y14846496D01*
X36358568Y15052734D01*
X36228047Y15239139D01*
X36228045Y15239142D01*
X36067141Y15400046D01*
X35880734Y15530568D01*
X35880728Y15530571D01*
X35841037Y15549079D01*
X35822724Y15557619D01*
X35770285Y15603790D01*
X35751133Y15670983D01*
X35771348Y15737865D01*
X35822725Y15782382D01*
X35880734Y15809432D01*
X36067139Y15939953D01*
X36228047Y16100861D01*
X36358568Y16287266D01*
X36454739Y16493504D01*
X36513635Y16713308D01*
X36533468Y16940000D01*
X36513635Y17166692D01*
X36454739Y17386496D01*
X36358568Y17592734D01*
X36245158Y17754702D01*
X36767500Y17754702D01*
X36767500Y17323299D01*
X36770401Y17286433D01*
X36770402Y17286427D01*
X36816254Y17128607D01*
X36816255Y17128604D01*
X36899917Y16987138D01*
X36904702Y16980969D01*
X36902369Y16979160D01*
X36929210Y16930005D01*
X36924226Y16860313D01*
X36903470Y16827979D01*
X36905097Y16826717D01*
X36900313Y16820551D01*
X36816718Y16679199D01*
X36770899Y16521487D01*
X36770704Y16519002D01*
X36770705Y16519000D01*
X39665396Y16519000D01*
X39732435Y16499315D01*
X39738281Y16495318D01*
X39846224Y16416893D01*
X39846229Y16416890D01*
X40019151Y16339899D01*
X40019156Y16339897D01*
X40204313Y16300541D01*
X40204314Y16300541D01*
X40393603Y16300541D01*
X40393605Y16300541D01*
X40578762Y16339897D01*
X40751689Y16416890D01*
X40904830Y16528153D01*
X41031492Y16668825D01*
X41126138Y16832757D01*
X41184633Y17012785D01*
X41204419Y17201041D01*
X41184633Y17389297D01*
X41126138Y17569325D01*
X41031492Y17733257D01*
X40904830Y17873929D01*
X40896759Y17879793D01*
X40751693Y17985190D01*
X40751688Y17985193D01*
X40578766Y18062184D01*
X40578762Y18062185D01*
X40513629Y18076030D01*
X40452147Y18109223D01*
X40451730Y18109639D01*
X40439421Y18121948D01*
X40439414Y18121954D01*
X40360822Y18174467D01*
X40360723Y18174532D01*
X40316495Y18204084D01*
X40316494Y18204085D01*
X40316492Y18204086D01*
X40179917Y18260657D01*
X40179907Y18260660D01*
X40034920Y18289500D01*
X40034918Y18289500D01*
X39902679Y18289500D01*
X39835640Y18309185D01*
X39789885Y18361989D01*
X39779941Y18431147D01*
X39783603Y18448095D01*
X39815099Y18556506D01*
X39815100Y18556512D01*
X39815295Y18558999D01*
X39815295Y18559000D01*
X36770705Y18559000D01*
X36770704Y18558999D01*
X36770899Y18556514D01*
X36816718Y18398802D01*
X36900314Y18257448D01*
X36905100Y18251278D01*
X36902640Y18249371D01*
X36929210Y18200712D01*
X36924226Y18131020D01*
X36903162Y18098219D01*
X36904699Y18097026D01*
X36899915Y18090860D01*
X36816255Y17949397D01*
X36816254Y17949394D01*
X36770402Y17791574D01*
X36770401Y17791568D01*
X36767500Y17754702D01*
X36245158Y17754702D01*
X36228047Y17779139D01*
X36228045Y17779142D01*
X36067141Y17940046D01*
X35880734Y18070568D01*
X35880728Y18070571D01*
X35822725Y18097618D01*
X35770285Y18143790D01*
X35751133Y18210983D01*
X35771348Y18277865D01*
X35822725Y18322382D01*
X35880734Y18349432D01*
X36067139Y18479953D01*
X36228047Y18640861D01*
X36358568Y18827266D01*
X36454739Y19033504D01*
X36513635Y19253308D01*
X36533468Y19480000D01*
X36532830Y19487288D01*
X36527786Y19544951D01*
X36513635Y19706692D01*
X36480863Y19828999D01*
X36770704Y19828999D01*
X36770899Y19826514D01*
X36816718Y19668802D01*
X36900314Y19527448D01*
X36905100Y19521278D01*
X36902753Y19519458D01*
X36929564Y19470358D01*
X36924580Y19400666D01*
X36903541Y19367931D01*
X36905100Y19366722D01*
X36900314Y19360553D01*
X36816718Y19219199D01*
X36770899Y19061487D01*
X36770704Y19059002D01*
X36770705Y19059000D01*
X38043000Y19059000D01*
X38543000Y19059000D01*
X39815295Y19059000D01*
X39815295Y19059002D01*
X39815100Y19061487D01*
X39769281Y19219199D01*
X39685685Y19360553D01*
X39680900Y19366722D01*
X39683252Y19368547D01*
X39656445Y19417595D01*
X39661402Y19487288D01*
X39682465Y19520064D01*
X39680900Y19521278D01*
X39685685Y19527448D01*
X39769281Y19668802D01*
X39815100Y19826514D01*
X39815295Y19828999D01*
X39815295Y19829000D01*
X38543000Y19829000D01*
X38543000Y19059000D01*
X38043000Y19059000D01*
X38043000Y19829000D01*
X36770705Y19829000D01*
X36770704Y19828999D01*
X36480863Y19828999D01*
X36454739Y19926496D01*
X36358568Y20132734D01*
X36228047Y20319139D01*
X36228045Y20319142D01*
X36067141Y20480046D01*
X35880734Y20610568D01*
X35880728Y20610571D01*
X35846255Y20626646D01*
X35822724Y20637619D01*
X35770285Y20683790D01*
X35751133Y20750983D01*
X35771348Y20817865D01*
X35822725Y20862382D01*
X35880734Y20889432D01*
X36067139Y21019953D01*
X36146185Y21098999D01*
X36770704Y21098999D01*
X36770899Y21096514D01*
X36816718Y20938802D01*
X36900314Y20797448D01*
X36905100Y20791278D01*
X36902753Y20789458D01*
X36929564Y20740358D01*
X36924580Y20670666D01*
X36903541Y20637931D01*
X36905100Y20636722D01*
X36900314Y20630553D01*
X36816718Y20489199D01*
X36770899Y20331487D01*
X36770704Y20329002D01*
X36770705Y20329000D01*
X38043000Y20329000D01*
X38543000Y20329000D01*
X39815295Y20329000D01*
X39815295Y20329002D01*
X39815100Y20331487D01*
X39769281Y20489199D01*
X39685685Y20630553D01*
X39680900Y20636722D01*
X39683252Y20638547D01*
X39656445Y20687595D01*
X39661402Y20757288D01*
X39682465Y20790064D01*
X39680900Y20791278D01*
X39685685Y20797448D01*
X39769281Y20938802D01*
X39815100Y21096514D01*
X39815295Y21098999D01*
X39815295Y21099000D01*
X38543000Y21099000D01*
X38543000Y20329000D01*
X38043000Y20329000D01*
X38043000Y21099000D01*
X36770705Y21099000D01*
X36770704Y21098999D01*
X36146185Y21098999D01*
X36228047Y21180861D01*
X36358568Y21367266D01*
X36454739Y21573504D01*
X36513635Y21793308D01*
X36532649Y22010642D01*
X36533468Y22019999D01*
X36533468Y22020002D01*
X36513635Y22246687D01*
X36513635Y22246692D01*
X36454739Y22466496D01*
X36358568Y22672734D01*
X36245158Y22834702D01*
X36767500Y22834702D01*
X36767500Y22403299D01*
X36770401Y22366433D01*
X36770402Y22366427D01*
X36816254Y22208607D01*
X36816255Y22208604D01*
X36899917Y22067138D01*
X36904702Y22060969D01*
X36902369Y22059160D01*
X36929210Y22010005D01*
X36924226Y21940313D01*
X36903470Y21907979D01*
X36905097Y21906717D01*
X36900313Y21900551D01*
X36816718Y21759199D01*
X36770899Y21601487D01*
X36770704Y21599002D01*
X36770705Y21599000D01*
X39815295Y21599000D01*
X39815295Y21599002D01*
X39815100Y21601487D01*
X39769281Y21759199D01*
X39685685Y21900553D01*
X39680900Y21906722D01*
X39683366Y21908636D01*
X39656802Y21957224D01*
X39661749Y22026918D01*
X39682856Y22059768D01*
X39681301Y22060974D01*
X39686077Y22067132D01*
X39686081Y22067135D01*
X39769744Y22208602D01*
X39815598Y22366431D01*
X39818500Y22403306D01*
X39818500Y22834694D01*
X39815598Y22871569D01*
X39769744Y23029398D01*
X39686081Y23170865D01*
X39686079Y23170867D01*
X39686076Y23170871D01*
X39569870Y23287077D01*
X39569862Y23287083D01*
X39450175Y23357865D01*
X39428398Y23370744D01*
X39428397Y23370745D01*
X39428396Y23370745D01*
X39428393Y23370746D01*
X39270573Y23416598D01*
X39270567Y23416599D01*
X39233701Y23419500D01*
X39233694Y23419500D01*
X37352306Y23419500D01*
X37352298Y23419500D01*
X37315432Y23416599D01*
X37315426Y23416598D01*
X37157606Y23370746D01*
X37157603Y23370745D01*
X37016137Y23287083D01*
X37016129Y23287077D01*
X36899923Y23170871D01*
X36899917Y23170863D01*
X36816255Y23029397D01*
X36816254Y23029394D01*
X36770402Y22871574D01*
X36770401Y22871568D01*
X36767500Y22834702D01*
X36245158Y22834702D01*
X36228047Y22859139D01*
X36228045Y22859142D01*
X36067141Y23020046D01*
X35880734Y23150568D01*
X35880728Y23150571D01*
X35853038Y23163483D01*
X35822724Y23177619D01*
X35770285Y23223790D01*
X35751133Y23290983D01*
X35771348Y23357865D01*
X35822725Y23402382D01*
X35880734Y23429432D01*
X36067139Y23559953D01*
X36228047Y23720861D01*
X36358568Y23907266D01*
X36454739Y24113504D01*
X36513635Y24333308D01*
X36533468Y24560000D01*
X36513635Y24786692D01*
X36454739Y25006496D01*
X36358568Y25212734D01*
X36228047Y25399139D01*
X36228045Y25399142D01*
X36067141Y25560046D01*
X35880734Y25690568D01*
X35880728Y25690571D01*
X35822725Y25717618D01*
X35770285Y25763790D01*
X35751133Y25830983D01*
X35771348Y25897865D01*
X35822725Y25942382D01*
X35880734Y25969432D01*
X36067139Y26099953D01*
X36228047Y26260861D01*
X36358568Y26447266D01*
X36454739Y26653504D01*
X36513635Y26873308D01*
X36533468Y27100000D01*
X36513635Y27326692D01*
X36454739Y27546496D01*
X36358568Y27752734D01*
X36228047Y27939139D01*
X36228045Y27939142D01*
X36067141Y28100046D01*
X35880734Y28230568D01*
X35880728Y28230571D01*
X35822725Y28257618D01*
X35770285Y28303790D01*
X35751133Y28370983D01*
X35771348Y28437865D01*
X35822725Y28482382D01*
X35880734Y28509432D01*
X36067139Y28639953D01*
X36228047Y28800861D01*
X36358568Y28987266D01*
X36454739Y29193504D01*
X36513635Y29413308D01*
X36533468Y29640000D01*
X36513635Y29866692D01*
X36454739Y30086496D01*
X36358568Y30292734D01*
X36228047Y30479139D01*
X36228045Y30479142D01*
X36067141Y30640046D01*
X35880735Y30770567D01*
X35880736Y30770567D01*
X35880734Y30770568D01*
X35840935Y30789127D01*
X35788497Y30835299D01*
X35769346Y30902493D01*
X35789562Y30969374D01*
X35805656Y30989184D01*
X35837490Y31021018D01*
X35872762Y31045715D01*
X35880734Y31049432D01*
X35962966Y31107011D01*
X36034466Y31157075D01*
X36100672Y31179402D01*
X36105589Y31179500D01*
X42108500Y31179500D01*
X42175539Y31159815D01*
X42221294Y31107011D01*
X42232500Y31055500D01*
X42232500Y17278783D01*
X42212815Y17211744D01*
X42196181Y17191102D01*
X41040899Y16035819D01*
X40979576Y16002334D01*
X40953218Y15999500D01*
X39887560Y15999500D01*
X39821151Y16019000D01*
X36770705Y16019000D01*
X36770704Y16018999D01*
X36770899Y16016514D01*
X36816718Y15858802D01*
X36900314Y15717448D01*
X36905100Y15711278D01*
X36902640Y15709371D01*
X36929210Y15660712D01*
X36924226Y15591020D01*
X36903162Y15558219D01*
X36904699Y15557026D01*
X36899915Y15550860D01*
X36816255Y15409397D01*
X36816254Y15409394D01*
X36770402Y15251574D01*
X36770401Y15251568D01*
X36767500Y15214702D01*
X36767500Y14783299D01*
X36770401Y14746433D01*
X36770402Y14746427D01*
X36816254Y14588607D01*
X36816255Y14588604D01*
X36899917Y14447138D01*
X36904702Y14440969D01*
X36902256Y14439073D01*
X36928857Y14390358D01*
X36923873Y14320666D01*
X36903069Y14288297D01*
X36904702Y14287031D01*
X36899917Y14280863D01*
X36816255Y14139397D01*
X36816254Y14139394D01*
X36770402Y13981574D01*
X36770401Y13981568D01*
X36767500Y13944702D01*
X36767500Y13513299D01*
X36770401Y13476433D01*
X36770402Y13476427D01*
X36816254Y13318607D01*
X36816255Y13318604D01*
X36899917Y13177138D01*
X36899923Y13177130D01*
X37016129Y13060924D01*
X37016133Y13060921D01*
X37016135Y13060919D01*
X37157602Y12977256D01*
X37189499Y12967989D01*
X37315426Y12931403D01*
X37315429Y12931403D01*
X37315431Y12931402D01*
X37352306Y12928500D01*
X37352314Y12928500D01*
X39233686Y12928500D01*
X39233694Y12928500D01*
X39270569Y12931402D01*
X39270571Y12931403D01*
X39270573Y12931403D01*
X39312191Y12943495D01*
X39428398Y12977256D01*
X39569865Y13060919D01*
X39686081Y13177135D01*
X39769744Y13318602D01*
X39815598Y13476431D01*
X39818500Y13513306D01*
X39818500Y13874500D01*
X39838185Y13941539D01*
X39890989Y13987294D01*
X39942500Y13998500D01*
X41517543Y13998500D01*
X41585962Y14012110D01*
X41620173Y14018915D01*
X41710836Y14036949D01*
X41764165Y14059039D01*
X41892914Y14112368D01*
X42056782Y14221861D01*
X42196139Y14361218D01*
X42196139Y14361220D01*
X42206347Y14371427D01*
X42206348Y14371430D01*
X44010139Y16175218D01*
X44046980Y16230354D01*
X44119632Y16339086D01*
X44119969Y16339899D01*
X44165798Y16450540D01*
X44188519Y16505395D01*
X44195051Y16521164D01*
X44233500Y16714459D01*
X44233500Y16911540D01*
X44233500Y32498541D01*
X44233500Y37219541D01*
X44233500Y59095541D01*
X44232066Y59102748D01*
X44223581Y59145404D01*
X44212927Y59198965D01*
X44219153Y59268553D01*
X44219947Y59270520D01*
X44239238Y59317088D01*
X44262051Y59372164D01*
X44262350Y59373663D01*
X44296984Y59547782D01*
X44300500Y59565459D01*
X44300500Y59762540D01*
X44300500Y76028541D01*
X44292991Y76066290D01*
X44262052Y76221835D01*
X44186632Y76403914D01*
X44186631Y76403915D01*
X44186628Y76403921D01*
X44077140Y76567781D01*
X44077137Y76567785D01*
X41660209Y78984711D01*
X41660206Y78984715D01*
X41660206Y78984714D01*
X41653139Y78991781D01*
X41653139Y78991782D01*
X41513782Y79131139D01*
X41513781Y79131140D01*
X41513780Y79131141D01*
X41349920Y79240629D01*
X41349911Y79240634D01*
X41266683Y79275108D01*
X41221165Y79293962D01*
X41194500Y79305007D01*
X41167837Y79316051D01*
X41167833Y79316053D01*
X41030188Y79343431D01*
X40993090Y79350811D01*
X40974542Y79354500D01*
X40974541Y79354500D01*
X38159459Y79354500D01*
X38159458Y79354500D01*
X38143183Y79351263D01*
X38128706Y79348383D01*
X38104515Y79346000D01*
X36732705Y79346000D01*
X36732704Y79345999D01*
X36732899Y79343514D01*
X36778718Y79185802D01*
X36862314Y79044448D01*
X36867100Y79038278D01*
X36864640Y79036371D01*
X36891210Y78987712D01*
X36886226Y78918020D01*
X36865162Y78885219D01*
X36866699Y78884026D01*
X36861915Y78877860D01*
X36778255Y78736397D01*
X36778254Y78736394D01*
X36732402Y78578574D01*
X36732401Y78578568D01*
X36729500Y78541702D01*
X36729500Y78110299D01*
X36732401Y78073433D01*
X36732402Y78073427D01*
X36778254Y77915607D01*
X36778255Y77915604D01*
X36861917Y77774138D01*
X36866702Y77767969D01*
X36864256Y77766073D01*
X36890857Y77717358D01*
X36885873Y77647666D01*
X36865069Y77615297D01*
X36866702Y77614031D01*
X36861917Y77607863D01*
X36778255Y77466397D01*
X36778254Y77466394D01*
X36732402Y77308574D01*
X36732401Y77308568D01*
X36729500Y77271702D01*
X36729500Y76840299D01*
X36732401Y76803433D01*
X36732402Y76803427D01*
X36778254Y76645607D01*
X36778255Y76645604D01*
X36861917Y76504138D01*
X36861923Y76504130D01*
X36978129Y76387924D01*
X36978133Y76387921D01*
X36978135Y76387919D01*
X37119602Y76304256D01*
X37126469Y76302261D01*
X37277426Y76258403D01*
X37277429Y76258403D01*
X37277431Y76258402D01*
X37314306Y76255500D01*
X37314314Y76255500D01*
X39195686Y76255500D01*
X39195694Y76255500D01*
X39232569Y76258402D01*
X39232571Y76258403D01*
X39232573Y76258403D01*
X39274191Y76270495D01*
X39390398Y76304256D01*
X39531865Y76387919D01*
X39648081Y76504135D01*
X39731744Y76645602D01*
X39777598Y76803431D01*
X39780500Y76840306D01*
X39780500Y77229500D01*
X39800185Y77296539D01*
X39852989Y77342294D01*
X39904500Y77353500D01*
X40410218Y77353500D01*
X40477257Y77333815D01*
X40497899Y77317181D01*
X42263181Y75551899D01*
X42296666Y75490576D01*
X42299500Y75464218D01*
X42299500Y60129782D01*
X42279815Y60062743D01*
X42263181Y60042101D01*
X41656358Y59435279D01*
X41595035Y59401794D01*
X41525343Y59406778D01*
X41469410Y59448650D01*
X41444993Y59514114D01*
X41450746Y59561277D01*
X41459228Y59587380D01*
X41479014Y59775636D01*
X41459228Y59963892D01*
X41403567Y60135199D01*
X41400735Y60143914D01*
X41400734Y60143915D01*
X41400733Y60143920D01*
X41306087Y60307852D01*
X41179425Y60448524D01*
X41135813Y60480210D01*
X41026288Y60559785D01*
X41026283Y60559788D01*
X40853361Y60636779D01*
X40853356Y60636781D01*
X40707555Y60667771D01*
X40668200Y60676136D01*
X40478908Y60676136D01*
X40446451Y60669238D01*
X40293751Y60636781D01*
X40293746Y60636779D01*
X40120824Y60559788D01*
X40120820Y60559785D01*
X40047232Y60506321D01*
X39981426Y60482842D01*
X39913372Y60498668D01*
X39883292Y60522468D01*
X39852295Y60556000D01*
X36807705Y60556000D01*
X36807704Y60555999D01*
X36807899Y60553514D01*
X36853718Y60395802D01*
X36937314Y60254448D01*
X36942100Y60248278D01*
X36939640Y60246371D01*
X36966210Y60197712D01*
X36961226Y60128020D01*
X36940162Y60095219D01*
X36941699Y60094026D01*
X36936915Y60087860D01*
X36853255Y59946397D01*
X36853254Y59946394D01*
X36807402Y59788574D01*
X36807401Y59788568D01*
X36804500Y59751702D01*
X36804500Y59320299D01*
X36807401Y59283433D01*
X36807402Y59283427D01*
X36853254Y59125607D01*
X36853255Y59125604D01*
X36936917Y58984138D01*
X36941702Y58977969D01*
X36939369Y58976160D01*
X36966210Y58927005D01*
X36961226Y58857313D01*
X36940470Y58824979D01*
X36942097Y58823717D01*
X36937313Y58817551D01*
X36853718Y58676199D01*
X36807899Y58518487D01*
X36807704Y58516002D01*
X36807705Y58516000D01*
X39852295Y58516000D01*
X39852295Y58516002D01*
X39852100Y58518489D01*
X39852099Y58518495D01*
X39820603Y58626905D01*
X39820802Y58696775D01*
X39858744Y58755445D01*
X39922383Y58784288D01*
X39939679Y58785500D01*
X40407838Y58785500D01*
X40538327Y58811457D01*
X40552831Y58814342D01*
X40689413Y58870916D01*
X40689419Y58870921D01*
X40694792Y58873791D01*
X40695126Y58873165D01*
X40731874Y58888671D01*
X40732657Y58888838D01*
X40802285Y58903637D01*
X40871950Y58898321D01*
X40927683Y58856185D01*
X40951789Y58790605D01*
X40936612Y58722403D01*
X40915745Y58694666D01*
X40268899Y58047819D01*
X40207576Y58014334D01*
X40181218Y58011500D01*
X39910694Y58011500D01*
X39895369Y58016000D01*
X36807705Y58016000D01*
X36807704Y58015999D01*
X36807899Y58013514D01*
X36853718Y57855802D01*
X36937314Y57714448D01*
X36942100Y57708278D01*
X36939640Y57706371D01*
X36966210Y57657712D01*
X36961226Y57588020D01*
X36940162Y57555219D01*
X36941699Y57554026D01*
X36936915Y57547860D01*
X36853255Y57406397D01*
X36853254Y57406394D01*
X36807402Y57248574D01*
X36807401Y57248568D01*
X36804500Y57211702D01*
X36804500Y56780299D01*
X36807401Y56743433D01*
X36807402Y56743427D01*
X36853254Y56585607D01*
X36853255Y56585604D01*
X36936917Y56444138D01*
X36941702Y56437969D01*
X36939256Y56436073D01*
X36965857Y56387358D01*
X36960873Y56317666D01*
X36940069Y56285297D01*
X36941702Y56284031D01*
X36936917Y56277863D01*
X36853255Y56136397D01*
X36853254Y56136394D01*
X36807402Y55978574D01*
X36807401Y55978568D01*
X36804500Y55941702D01*
X36804500Y55510299D01*
X36807401Y55473433D01*
X36807402Y55473427D01*
X36853254Y55315607D01*
X36853255Y55315604D01*
X36936917Y55174138D01*
X36936923Y55174130D01*
X37053129Y55057924D01*
X37053133Y55057921D01*
X37053135Y55057919D01*
X37194602Y54974256D01*
X37236224Y54962164D01*
X37352426Y54928403D01*
X37352429Y54928403D01*
X37352431Y54928402D01*
X37389306Y54925500D01*
X37389314Y54925500D01*
X39270686Y54925500D01*
X39270694Y54925500D01*
X39307569Y54928402D01*
X39307571Y54928403D01*
X39307573Y54928403D01*
X39349191Y54940495D01*
X39465398Y54974256D01*
X39606865Y55057919D01*
X39723081Y55174135D01*
X39806744Y55315602D01*
X39852598Y55473431D01*
X39855500Y55510306D01*
X39855500Y55886500D01*
X39875185Y55953539D01*
X39927989Y55999294D01*
X39979500Y56010500D01*
X40745542Y56010500D01*
X40764870Y56014345D01*
X40842188Y56029725D01*
X40938836Y56048949D01*
X41009369Y56078165D01*
X41120914Y56124368D01*
X41284782Y56233861D01*
X41424139Y56373218D01*
X41424140Y56373221D01*
X41431206Y56380286D01*
X41431208Y56380290D01*
X42020820Y56969901D01*
X42082142Y57003385D01*
X42151834Y56998401D01*
X42207767Y56956529D01*
X42232184Y56891065D01*
X42232500Y56882219D01*
X42232500Y38925572D01*
X42212815Y38858533D01*
X42160011Y38812778D01*
X42090853Y38802834D01*
X42035615Y38825254D01*
X41885734Y38934149D01*
X41885729Y38934152D01*
X41712807Y39011143D01*
X41712802Y39011145D01*
X41567001Y39042135D01*
X41527646Y39050500D01*
X41338354Y39050500D01*
X41189296Y39018817D01*
X41181736Y39017210D01*
X41155955Y39014500D01*
X39938679Y39014500D01*
X39871640Y39034185D01*
X39825885Y39086989D01*
X39815941Y39156147D01*
X39819603Y39173095D01*
X39851099Y39281506D01*
X39851100Y39281512D01*
X39851295Y39283999D01*
X39851295Y39284000D01*
X36806705Y39284000D01*
X36806704Y39283999D01*
X36806899Y39281514D01*
X36852718Y39123802D01*
X36936314Y38982448D01*
X36941100Y38976278D01*
X36938640Y38974371D01*
X36965210Y38925712D01*
X36960226Y38856020D01*
X36939162Y38823219D01*
X36940699Y38822026D01*
X36935915Y38815860D01*
X36852255Y38674397D01*
X36852254Y38674394D01*
X36806402Y38516574D01*
X36806401Y38516568D01*
X36803500Y38479702D01*
X36803500Y38048299D01*
X36806401Y38011433D01*
X36806402Y38011427D01*
X36852254Y37853607D01*
X36852255Y37853604D01*
X36935917Y37712138D01*
X36940702Y37705969D01*
X36938369Y37704160D01*
X36965210Y37655005D01*
X36960226Y37585313D01*
X36939470Y37552979D01*
X36941097Y37551717D01*
X36936313Y37545551D01*
X36852718Y37404199D01*
X36806899Y37246487D01*
X36806704Y37244002D01*
X36806705Y37244000D01*
X39851295Y37244000D01*
X39851295Y37244002D01*
X39851100Y37246489D01*
X39851099Y37246495D01*
X39819603Y37354905D01*
X39819802Y37424775D01*
X39857744Y37483445D01*
X39921383Y37512288D01*
X39938679Y37513500D01*
X40739157Y37513500D01*
X40806196Y37493815D01*
X40821618Y37480704D01*
X40822300Y37481460D01*
X40827129Y37477112D01*
X40980265Y37365852D01*
X40980270Y37365849D01*
X41153192Y37288858D01*
X41153197Y37288856D01*
X41338354Y37249500D01*
X41338355Y37249500D01*
X41527644Y37249500D01*
X41527646Y37249500D01*
X41650196Y37275549D01*
X41719861Y37270233D01*
X41775594Y37228096D01*
X41799700Y37162517D01*
X41784523Y37094315D01*
X41763657Y37066578D01*
X41654733Y36957655D01*
X41457897Y36760818D01*
X41396576Y36727334D01*
X41370218Y36724500D01*
X39923560Y36724500D01*
X39857151Y36744000D01*
X36806705Y36744000D01*
X36806704Y36743999D01*
X36806899Y36741514D01*
X36852718Y36583802D01*
X36936314Y36442448D01*
X36941100Y36436278D01*
X36938640Y36434371D01*
X36965210Y36385712D01*
X36960226Y36316020D01*
X36939162Y36283219D01*
X36940699Y36282026D01*
X36935915Y36275860D01*
X36852255Y36134397D01*
X36852254Y36134394D01*
X36806402Y35976574D01*
X36806401Y35976568D01*
X36803500Y35939702D01*
X36803500Y35508299D01*
X36806401Y35471433D01*
X36806402Y35471427D01*
X36852254Y35313607D01*
X36852255Y35313604D01*
X36935917Y35172138D01*
X36940702Y35165969D01*
X36938256Y35164073D01*
X36964857Y35115358D01*
X36959873Y35045666D01*
X36939069Y35013297D01*
X36940702Y35012031D01*
X36935917Y35005863D01*
X36852255Y34864397D01*
X36852254Y34864394D01*
X36806402Y34706574D01*
X36806401Y34706568D01*
X36803500Y34669702D01*
X36803500Y34238299D01*
X36806401Y34201433D01*
X36806402Y34201427D01*
X36852254Y34043607D01*
X36852255Y34043604D01*
X36935917Y33902138D01*
X36935923Y33902130D01*
X37052129Y33785924D01*
X37052133Y33785921D01*
X37052135Y33785919D01*
X37193602Y33702256D01*
X37235224Y33690164D01*
X37351426Y33656403D01*
X37351429Y33656403D01*
X37351431Y33656402D01*
X37388306Y33653500D01*
X37388314Y33653500D01*
X39269686Y33653500D01*
X39269694Y33653500D01*
X39306569Y33656402D01*
X39306571Y33656403D01*
X39306573Y33656403D01*
X39348191Y33668495D01*
X39464398Y33702256D01*
X39605865Y33785919D01*
X39722081Y33902135D01*
X39805744Y34043602D01*
X39851598Y34201431D01*
X39854500Y34238306D01*
X39854500Y34599500D01*
X39874185Y34666539D01*
X39926989Y34712294D01*
X39978500Y34723500D01*
X41934542Y34723500D01*
X41982864Y34733113D01*
X42031188Y34742725D01*
X42084312Y34753292D01*
X42153903Y34747063D01*
X42209080Y34704198D01*
X42232322Y34638308D01*
X42232500Y34631674D01*
X42232500Y33304500D01*
X42212815Y33237461D01*
X42160011Y33191706D01*
X42108500Y33180500D01*
X36105588Y33180500D01*
X36038549Y33200185D01*
X36034465Y33202925D01*
X35985142Y33237461D01*
X35880734Y33310568D01*
X35822724Y33337619D01*
X35770285Y33383790D01*
X35751133Y33450983D01*
X35771348Y33517865D01*
X35822725Y33562382D01*
X35880734Y33589432D01*
X36067139Y33719953D01*
X36228047Y33880861D01*
X36358568Y34067266D01*
X36454739Y34273504D01*
X36513635Y34493308D01*
X36533468Y34720000D01*
X36513635Y34946692D01*
X36454739Y35166496D01*
X36358568Y35372734D01*
X36228047Y35559139D01*
X36228045Y35559142D01*
X36067141Y35720046D01*
X35880734Y35850568D01*
X35880732Y35850569D01*
X35822725Y35877618D01*
X35822132Y35877895D01*
X35769694Y35924066D01*
X35750542Y35991260D01*
X35770758Y36058141D01*
X35822134Y36102659D01*
X35880484Y36129868D01*
X36066820Y36260343D01*
X36227657Y36421180D01*
X36358134Y36607518D01*
X36454265Y36813674D01*
X36454269Y36813683D01*
X36506872Y37010000D01*
X35661012Y37010000D01*
X35693925Y37067007D01*
X35728000Y37194174D01*
X35728000Y37325826D01*
X35693925Y37452993D01*
X35661012Y37510000D01*
X36506872Y37510000D01*
X36506872Y37510001D01*
X36454269Y37706318D01*
X36454265Y37706327D01*
X36358134Y37912483D01*
X36227657Y38098821D01*
X36066820Y38259658D01*
X35880482Y38390135D01*
X35822133Y38417343D01*
X35769694Y38463516D01*
X35750542Y38530709D01*
X35770758Y38597590D01*
X35822129Y38642105D01*
X35880734Y38669432D01*
X36067139Y38799953D01*
X36228047Y38960861D01*
X36358568Y39147266D01*
X36454739Y39353504D01*
X36513635Y39573308D01*
X36533468Y39800000D01*
X36513635Y40026692D01*
X36455123Y40245064D01*
X36454741Y40246489D01*
X36454738Y40246498D01*
X36358568Y40452734D01*
X36287662Y40553999D01*
X36806704Y40553999D01*
X36806899Y40551514D01*
X36852718Y40393802D01*
X36936314Y40252448D01*
X36941100Y40246278D01*
X36938753Y40244458D01*
X36965564Y40195358D01*
X36960580Y40125666D01*
X36939541Y40092931D01*
X36941100Y40091722D01*
X36936314Y40085553D01*
X36852718Y39944199D01*
X36806899Y39786487D01*
X36806704Y39784002D01*
X36806705Y39784000D01*
X38079000Y39784000D01*
X38579000Y39784000D01*
X39851295Y39784000D01*
X39851295Y39784002D01*
X39851100Y39786487D01*
X39805281Y39944199D01*
X39721685Y40085553D01*
X39716900Y40091722D01*
X39719252Y40093547D01*
X39692445Y40142595D01*
X39697402Y40212288D01*
X39718465Y40245064D01*
X39716900Y40246278D01*
X39721685Y40252448D01*
X39805281Y40393802D01*
X39851100Y40551514D01*
X39851295Y40553999D01*
X39851295Y40554000D01*
X38579000Y40554000D01*
X38579000Y39784000D01*
X38079000Y39784000D01*
X38079000Y40554000D01*
X36806705Y40554000D01*
X36806704Y40553999D01*
X36287662Y40553999D01*
X36228047Y40639139D01*
X36228045Y40639142D01*
X36067141Y40800046D01*
X35880734Y40930568D01*
X35880732Y40930569D01*
X35674497Y41026739D01*
X35674488Y41026742D01*
X35454697Y41085634D01*
X35454693Y41085635D01*
X35454692Y41085635D01*
X35454691Y41085636D01*
X35454686Y41085636D01*
X35228002Y41105468D01*
X35227998Y41105468D01*
X35001313Y41085636D01*
X35001302Y41085634D01*
X34781511Y41026742D01*
X34781502Y41026739D01*
X34575267Y40930569D01*
X34575265Y40930568D01*
X34388858Y40800046D01*
X34227954Y40639142D01*
X34097432Y40452735D01*
X34097431Y40452733D01*
X34001261Y40246498D01*
X34001258Y40246489D01*
X33942366Y40026698D01*
X33942364Y40026687D01*
X33922532Y39800002D01*
X33922532Y39799999D01*
X33942364Y39573314D01*
X33942366Y39573303D01*
X34001258Y39353512D01*
X34001261Y39353503D01*
X34097431Y39147268D01*
X34097432Y39147266D01*
X34227954Y38960859D01*
X34388858Y38799955D01*
X34388861Y38799953D01*
X34575266Y38669432D01*
X34633865Y38642107D01*
X34686305Y38595935D01*
X34705457Y38528742D01*
X34685242Y38461861D01*
X34633867Y38417343D01*
X34575515Y38390133D01*
X34389179Y38259658D01*
X34228342Y38098821D01*
X34097865Y37912483D01*
X34001734Y37706327D01*
X34001730Y37706318D01*
X33949127Y37510001D01*
X33949128Y37510000D01*
X34794988Y37510000D01*
X34762075Y37452993D01*
X34728000Y37325826D01*
X34728000Y37194174D01*
X34762075Y37067007D01*
X34794988Y37010000D01*
X33949128Y37010000D01*
X34001730Y36813683D01*
X34001734Y36813674D01*
X34097865Y36607518D01*
X34228342Y36421180D01*
X34389179Y36260343D01*
X34575518Y36129866D01*
X34575520Y36129865D01*
X34633865Y36102658D01*
X34686305Y36056486D01*
X34705457Y35989293D01*
X34685242Y35922411D01*
X34633867Y35877895D01*
X34575268Y35850569D01*
X34575264Y35850567D01*
X34388858Y35720046D01*
X34227954Y35559142D01*
X34097432Y35372735D01*
X34097431Y35372733D01*
X34001261Y35166498D01*
X34001258Y35166489D01*
X33942366Y34946698D01*
X33942364Y34946687D01*
X33922532Y34720002D01*
X33922532Y34719999D01*
X33942364Y34493314D01*
X33942366Y34493303D01*
X34001258Y34273512D01*
X34001261Y34273503D01*
X34097431Y34067268D01*
X34097432Y34067266D01*
X34227954Y33880859D01*
X34388858Y33719955D01*
X34388861Y33719953D01*
X34575266Y33589432D01*
X34618422Y33569308D01*
X34633275Y33562382D01*
X34685714Y33516209D01*
X34704866Y33449016D01*
X34684650Y33382135D01*
X34633275Y33337618D01*
X34575267Y33310569D01*
X34575265Y33310568D01*
X34388858Y33180046D01*
X34227954Y33019142D01*
X34097432Y32832736D01*
X34093712Y32824758D01*
X34069015Y32789491D01*
X27283355Y26003829D01*
X21906174Y20626649D01*
X21906174Y20626648D01*
X21906172Y20626646D01*
X21875038Y20583794D01*
X21790476Y20467406D01*
X21700669Y20291149D01*
X21699608Y20287388D01*
X21640291Y20104831D01*
X21640291Y20104828D01*
X21609500Y19910423D01*
X21609500Y3617336D01*
X21589815Y3550297D01*
X21573181Y3529655D01*
X20854345Y2810819D01*
X20793022Y2777334D01*
X20766664Y2774500D01*
X20481744Y2774500D01*
X20414705Y2794185D01*
X20368950Y2846989D01*
X20359006Y2916147D01*
X20388031Y2979703D01*
X20430527Y3008961D01*
X20429589Y3010973D01*
X20434498Y3013262D01*
X20640734Y3109432D01*
X20827139Y3239953D01*
X20988047Y3400861D01*
X21118568Y3587266D01*
X21214739Y3793504D01*
X21273635Y4013308D01*
X21293237Y4237364D01*
X21293468Y4239999D01*
X21293468Y4240002D01*
X21286875Y4315354D01*
X21273635Y4466692D01*
X21214739Y4686496D01*
X21118568Y4892734D01*
X20988047Y5079139D01*
X20988045Y5079142D01*
X20827141Y5240046D01*
X20640734Y5370568D01*
X20640728Y5370571D01*
X20582725Y5397618D01*
X20530285Y5443790D01*
X20511133Y5510983D01*
X20531348Y5577865D01*
X20582725Y5622382D01*
X20640734Y5649432D01*
X20827139Y5779953D01*
X20988047Y5940861D01*
X21118568Y6127266D01*
X21214739Y6333504D01*
X21273635Y6553308D01*
X21293468Y6780000D01*
X21291609Y6801244D01*
X21273635Y7006687D01*
X21273635Y7006692D01*
X21214739Y7226496D01*
X21118568Y7432734D01*
X20988047Y7619139D01*
X20988045Y7619142D01*
X20827141Y7780046D01*
X20640734Y7910568D01*
X20640728Y7910571D01*
X20582725Y7937618D01*
X20530285Y7983790D01*
X20511133Y8050983D01*
X20531348Y8117865D01*
X20582725Y8162382D01*
X20640734Y8189432D01*
X20827139Y8319953D01*
X20988047Y8480861D01*
X21118568Y8667266D01*
X21214739Y8873504D01*
X21273635Y9093308D01*
X21293468Y9320000D01*
X21273635Y9546692D01*
X21214739Y9766496D01*
X21118568Y9972734D01*
X20988047Y10159139D01*
X20988045Y10159142D01*
X20827141Y10320046D01*
X20640734Y10450568D01*
X20640728Y10450571D01*
X20582725Y10477618D01*
X20530285Y10523790D01*
X20511133Y10590983D01*
X20531348Y10657865D01*
X20582725Y10702382D01*
X20640734Y10729432D01*
X20827139Y10859953D01*
X20988047Y11020861D01*
X21118568Y11207266D01*
X21214739Y11413504D01*
X21273635Y11633308D01*
X21293468Y11860000D01*
X21273635Y12086692D01*
X21214739Y12306496D01*
X21118568Y12512734D01*
X20988047Y12699139D01*
X20988045Y12699142D01*
X20827141Y12860046D01*
X20640734Y12990568D01*
X20640728Y12990571D01*
X20582725Y13017618D01*
X20530285Y13063790D01*
X20511133Y13130983D01*
X20531348Y13197865D01*
X20582725Y13242382D01*
X20640734Y13269432D01*
X20827139Y13399953D01*
X20988047Y13560861D01*
X21118568Y13747266D01*
X21214739Y13953504D01*
X21273635Y14173308D01*
X21293468Y14400000D01*
X21273635Y14626692D01*
X21214739Y14846496D01*
X21118568Y15052734D01*
X20988047Y15239139D01*
X20988045Y15239142D01*
X20827141Y15400046D01*
X20640734Y15530568D01*
X20640728Y15530571D01*
X20601037Y15549079D01*
X20582724Y15557619D01*
X20530285Y15603790D01*
X20511133Y15670983D01*
X20531348Y15737865D01*
X20582725Y15782382D01*
X20640734Y15809432D01*
X20827139Y15939953D01*
X20988047Y16100861D01*
X21118568Y16287266D01*
X21214739Y16493504D01*
X21273635Y16713308D01*
X21293468Y16940000D01*
X21273635Y17166692D01*
X21214739Y17386496D01*
X21118568Y17592734D01*
X20988047Y17779139D01*
X20988045Y17779142D01*
X20827141Y17940046D01*
X20640734Y18070568D01*
X20640728Y18070571D01*
X20582725Y18097618D01*
X20530285Y18143790D01*
X20511133Y18210983D01*
X20531348Y18277865D01*
X20582725Y18322382D01*
X20640734Y18349432D01*
X20827139Y18479953D01*
X20988047Y18640861D01*
X21118568Y18827266D01*
X21214739Y19033504D01*
X21273635Y19253308D01*
X21293468Y19480000D01*
X21292830Y19487288D01*
X21287786Y19544951D01*
X21273635Y19706692D01*
X21214739Y19926496D01*
X21118568Y20132734D01*
X20988047Y20319139D01*
X20988045Y20319142D01*
X20827141Y20480046D01*
X20640734Y20610568D01*
X20640728Y20610571D01*
X20606255Y20626646D01*
X20582724Y20637619D01*
X20530285Y20683790D01*
X20511133Y20750983D01*
X20531348Y20817865D01*
X20582725Y20862382D01*
X20640734Y20889432D01*
X20827139Y21019953D01*
X20988047Y21180861D01*
X21118568Y21367266D01*
X21214739Y21573504D01*
X21273635Y21793308D01*
X21292649Y22010642D01*
X21293468Y22019999D01*
X21293468Y22020002D01*
X21273635Y22246687D01*
X21273635Y22246692D01*
X21214739Y22466496D01*
X21118568Y22672734D01*
X20988047Y22859139D01*
X20988045Y22859142D01*
X20827141Y23020046D01*
X20640734Y23150568D01*
X20640728Y23150571D01*
X20613038Y23163483D01*
X20582724Y23177619D01*
X20530285Y23223790D01*
X20511133Y23290983D01*
X20531348Y23357865D01*
X20582725Y23402382D01*
X20640734Y23429432D01*
X20827139Y23559953D01*
X20988047Y23720861D01*
X21118568Y23907266D01*
X21214739Y24113504D01*
X21273635Y24333308D01*
X21293468Y24560000D01*
X21273635Y24786692D01*
X21214739Y25006496D01*
X21118568Y25212734D01*
X20988047Y25399139D01*
X20988045Y25399142D01*
X20827141Y25560046D01*
X20640734Y25690568D01*
X20640728Y25690571D01*
X20582725Y25717618D01*
X20530285Y25763790D01*
X20511133Y25830983D01*
X20531348Y25897865D01*
X20582725Y25942382D01*
X20640734Y25969432D01*
X20827139Y26099953D01*
X20988047Y26260861D01*
X21118568Y26447266D01*
X21214739Y26653504D01*
X21273635Y26873308D01*
X21293468Y27100000D01*
X21273635Y27326692D01*
X21214739Y27546496D01*
X21118568Y27752734D01*
X20988047Y27939139D01*
X20988045Y27939142D01*
X20827141Y28100046D01*
X20640734Y28230568D01*
X20640728Y28230571D01*
X20582725Y28257618D01*
X20530285Y28303790D01*
X20511133Y28370983D01*
X20531348Y28437865D01*
X20582725Y28482382D01*
X20640734Y28509432D01*
X20827139Y28639953D01*
X20988047Y28800861D01*
X21118568Y28987266D01*
X21214739Y29193504D01*
X21273635Y29413308D01*
X21293468Y29640000D01*
X21273635Y29866692D01*
X21214739Y30086496D01*
X21118568Y30292734D01*
X20988047Y30479139D01*
X20988045Y30479142D01*
X20827141Y30640046D01*
X20640734Y30770568D01*
X20640732Y30770569D01*
X20629275Y30775912D01*
X20582132Y30797895D01*
X20529694Y30844066D01*
X20510542Y30911260D01*
X20530758Y30978141D01*
X20582134Y31022659D01*
X20640484Y31049868D01*
X20826820Y31180343D01*
X20987657Y31341180D01*
X21118134Y31527518D01*
X21214265Y31733674D01*
X21214269Y31733683D01*
X21266872Y31930000D01*
X20421012Y31930000D01*
X20453925Y31987007D01*
X20488000Y32114174D01*
X20488000Y32245826D01*
X20453925Y32372993D01*
X20421012Y32430000D01*
X21266872Y32430000D01*
X21266872Y32430001D01*
X21214269Y32626318D01*
X21214265Y32626327D01*
X21118134Y32832483D01*
X20987657Y33018821D01*
X20826820Y33179658D01*
X20640482Y33310135D01*
X20582133Y33337343D01*
X20529694Y33383516D01*
X20510542Y33450709D01*
X20530758Y33517590D01*
X20582129Y33562105D01*
X20640734Y33589432D01*
X20827139Y33719953D01*
X20988047Y33880861D01*
X21118568Y34067266D01*
X21214739Y34273504D01*
X21273635Y34493308D01*
X21293468Y34720000D01*
X21273635Y34946692D01*
X21214739Y35166496D01*
X21118568Y35372734D01*
X20988047Y35559139D01*
X20988045Y35559142D01*
X20827141Y35720046D01*
X20640734Y35850568D01*
X20640728Y35850571D01*
X20582725Y35877618D01*
X20530285Y35923790D01*
X20511133Y35990983D01*
X20531348Y36057865D01*
X20582725Y36102382D01*
X20583319Y36102659D01*
X20640734Y36129432D01*
X20827139Y36259953D01*
X20988047Y36420861D01*
X21118568Y36607266D01*
X21214739Y36813504D01*
X21273635Y37033308D01*
X21292286Y37246489D01*
X21293468Y37259999D01*
X21293468Y37260002D01*
X21274473Y37477112D01*
X21273635Y37486692D01*
X21214739Y37706496D01*
X21118568Y37912734D01*
X20988047Y38099139D01*
X20988045Y38099142D01*
X20827143Y38260044D01*
X20802536Y38277274D01*
X20758912Y38331851D01*
X20751719Y38401350D01*
X20783241Y38463704D01*
X20843471Y38499118D01*
X20860404Y38502139D01*
X20895483Y38505909D01*
X21030331Y38556204D01*
X21145546Y38642454D01*
X21231796Y38757669D01*
X21282091Y38892517D01*
X21288500Y38952127D01*
X21288499Y40647872D01*
X21282091Y40707483D01*
X21247567Y40800046D01*
X21231797Y40842329D01*
X21231793Y40842336D01*
X21145547Y40957545D01*
X21145544Y40957548D01*
X21030335Y41043794D01*
X21030328Y41043798D01*
X20895482Y41094092D01*
X20895483Y41094092D01*
X20835883Y41100499D01*
X20835881Y41100500D01*
X20835873Y41100500D01*
X20835864Y41100500D01*
X19140129Y41100500D01*
X19140123Y41100499D01*
X19080516Y41094092D01*
X18945671Y41043798D01*
X18945664Y41043794D01*
X18830455Y40957548D01*
X18830452Y40957545D01*
X18744206Y40842336D01*
X18744202Y40842329D01*
X18693908Y40707483D01*
X18689486Y40666345D01*
X18687501Y40647877D01*
X18687500Y40647865D01*
X18687500Y38952130D01*
X18687501Y38952124D01*
X18693908Y38892517D01*
X18744202Y38757672D01*
X18744206Y38757665D01*
X18830452Y38642456D01*
X18830455Y38642453D01*
X18945664Y38556207D01*
X18945671Y38556203D01*
X18990618Y38539439D01*
X19080517Y38505909D01*
X19115596Y38502138D01*
X19180144Y38475401D01*
X19219993Y38418009D01*
X19222488Y38348184D01*
X19186836Y38288095D01*
X19173464Y38277275D01*
X19148858Y38260046D01*
X18987954Y38099142D01*
X18857432Y37912735D01*
X18857431Y37912733D01*
X18761261Y37706498D01*
X18761258Y37706489D01*
X18702366Y37486698D01*
X18702364Y37486687D01*
X18682532Y37260002D01*
X18682532Y37259999D01*
X18702364Y37033314D01*
X18702366Y37033303D01*
X18761258Y36813512D01*
X18761261Y36813503D01*
X18857431Y36607268D01*
X18857432Y36607266D01*
X18987954Y36420859D01*
X19148858Y36259955D01*
X19148861Y36259953D01*
X19335266Y36129432D01*
X19392681Y36102659D01*
X19393275Y36102382D01*
X19445714Y36056209D01*
X19464866Y35989016D01*
X19444650Y35922135D01*
X19393275Y35877618D01*
X19335267Y35850569D01*
X19335265Y35850568D01*
X19148858Y35720046D01*
X18987954Y35559142D01*
X18857432Y35372735D01*
X18857431Y35372733D01*
X18761261Y35166498D01*
X18761258Y35166489D01*
X18702366Y34946698D01*
X18702364Y34946687D01*
X18682532Y34720002D01*
X18682532Y34719999D01*
X18702364Y34493314D01*
X18702366Y34493303D01*
X18761258Y34273512D01*
X18761261Y34273503D01*
X18857431Y34067268D01*
X18857432Y34067266D01*
X18987954Y33880859D01*
X19148858Y33719955D01*
X19148861Y33719953D01*
X19335266Y33589432D01*
X19393865Y33562107D01*
X19446305Y33515935D01*
X19465457Y33448742D01*
X19445242Y33381861D01*
X19393867Y33337343D01*
X19335515Y33310133D01*
X19149179Y33179658D01*
X18988342Y33018821D01*
X18857865Y32832483D01*
X18761734Y32626327D01*
X18761730Y32626318D01*
X18709127Y32430001D01*
X18709128Y32430000D01*
X19554988Y32430000D01*
X19522075Y32372993D01*
X19488000Y32245826D01*
X19488000Y32114174D01*
X19522075Y31987007D01*
X19554988Y31930000D01*
X18709128Y31930000D01*
X18761730Y31733683D01*
X18761734Y31733674D01*
X18857865Y31527518D01*
X18988342Y31341180D01*
X19149179Y31180343D01*
X19335518Y31049866D01*
X19335520Y31049865D01*
X19393865Y31022658D01*
X19446305Y30976486D01*
X19465457Y30909293D01*
X19445242Y30842411D01*
X19393867Y30797895D01*
X19335268Y30770569D01*
X19335264Y30770567D01*
X19148858Y30640046D01*
X18987954Y30479142D01*
X18857432Y30292735D01*
X18857431Y30292733D01*
X18761261Y30086498D01*
X18761258Y30086489D01*
X18702366Y29866698D01*
X18702364Y29866687D01*
X18682532Y29640002D01*
X18682532Y29639999D01*
X18702364Y29413314D01*
X18702366Y29413303D01*
X18761258Y29193512D01*
X18761261Y29193503D01*
X18857431Y28987268D01*
X18857432Y28987266D01*
X18987954Y28800859D01*
X19148858Y28639955D01*
X19148861Y28639953D01*
X19335266Y28509432D01*
X19393275Y28482382D01*
X19445714Y28436209D01*
X19464866Y28369016D01*
X19444650Y28302135D01*
X19393275Y28257618D01*
X19335267Y28230569D01*
X19335265Y28230568D01*
X19148858Y28100046D01*
X18987954Y27939142D01*
X18857432Y27752735D01*
X18857431Y27752733D01*
X18761261Y27546498D01*
X18761258Y27546489D01*
X18702366Y27326698D01*
X18702364Y27326687D01*
X18682532Y27100002D01*
X18682532Y27099999D01*
X18702364Y26873314D01*
X18702366Y26873303D01*
X18761258Y26653512D01*
X18761261Y26653503D01*
X18857431Y26447268D01*
X18857432Y26447266D01*
X18987954Y26260859D01*
X19148858Y26099955D01*
X19148861Y26099953D01*
X19335266Y25969432D01*
X19393275Y25942382D01*
X19445714Y25896209D01*
X19464866Y25829016D01*
X19444650Y25762135D01*
X19393275Y25717618D01*
X19335267Y25690569D01*
X19335265Y25690568D01*
X19148858Y25560046D01*
X18987954Y25399142D01*
X18857432Y25212735D01*
X18857431Y25212733D01*
X18761261Y25006498D01*
X18761258Y25006489D01*
X18702366Y24786698D01*
X18702364Y24786687D01*
X18682532Y24560002D01*
X18682532Y24559999D01*
X18702364Y24333314D01*
X18702366Y24333303D01*
X18761258Y24113512D01*
X18761261Y24113503D01*
X18857431Y23907268D01*
X18857432Y23907266D01*
X18987954Y23720859D01*
X19148858Y23559955D01*
X19172687Y23543270D01*
X19335266Y23429432D01*
X19372707Y23411973D01*
X19393275Y23402382D01*
X19445714Y23356209D01*
X19464866Y23289016D01*
X19444650Y23222135D01*
X19393275Y23177619D01*
X19376272Y23169690D01*
X19335267Y23150569D01*
X19335265Y23150568D01*
X19148858Y23020046D01*
X18987954Y22859142D01*
X18857432Y22672735D01*
X18857431Y22672733D01*
X18761261Y22466498D01*
X18761258Y22466489D01*
X18702366Y22246698D01*
X18702364Y22246687D01*
X18682532Y22020002D01*
X18682532Y22019999D01*
X18702364Y21793314D01*
X18702366Y21793303D01*
X18761258Y21573512D01*
X18761261Y21573503D01*
X18857431Y21367268D01*
X18857432Y21367266D01*
X18987954Y21180859D01*
X19148858Y21019955D01*
X19148861Y21019953D01*
X19335266Y20889432D01*
X19393275Y20862382D01*
X19445714Y20816209D01*
X19464866Y20749016D01*
X19444650Y20682135D01*
X19393275Y20637618D01*
X19335267Y20610569D01*
X19335265Y20610568D01*
X19148858Y20480046D01*
X18987954Y20319142D01*
X18857432Y20132735D01*
X18857431Y20132733D01*
X18761261Y19926498D01*
X18761258Y19926489D01*
X18702366Y19706698D01*
X18702364Y19706687D01*
X18682532Y19480002D01*
X18682532Y19479999D01*
X18702364Y19253314D01*
X18702366Y19253303D01*
X18761258Y19033512D01*
X18761261Y19033503D01*
X18857431Y18827268D01*
X18857432Y18827266D01*
X18987954Y18640859D01*
X19148858Y18479955D01*
X19148861Y18479953D01*
X19335266Y18349432D01*
X19365656Y18335261D01*
X19393275Y18322382D01*
X19445714Y18276209D01*
X19464866Y18209016D01*
X19444650Y18142135D01*
X19393275Y18097618D01*
X19335267Y18070569D01*
X19335265Y18070568D01*
X19148858Y17940046D01*
X18987954Y17779142D01*
X18857432Y17592735D01*
X18857431Y17592733D01*
X18761261Y17386498D01*
X18761258Y17386489D01*
X18702366Y17166698D01*
X18702364Y17166687D01*
X18682532Y16940002D01*
X18682532Y16939999D01*
X18702364Y16713314D01*
X18702366Y16713303D01*
X18761258Y16493512D01*
X18761261Y16493503D01*
X18857431Y16287268D01*
X18857432Y16287266D01*
X18987954Y16100859D01*
X19148858Y15939955D01*
X19177370Y15919991D01*
X19335266Y15809432D01*
X19393275Y15782382D01*
X19445714Y15736209D01*
X19464866Y15669016D01*
X19444650Y15602135D01*
X19393275Y15557619D01*
X19378793Y15550865D01*
X19335267Y15530569D01*
X19335265Y15530568D01*
X19148858Y15400046D01*
X18987954Y15239142D01*
X18857432Y15052735D01*
X18857431Y15052733D01*
X18761261Y14846498D01*
X18761258Y14846489D01*
X18702366Y14626698D01*
X18702364Y14626687D01*
X18682532Y14400002D01*
X18682532Y14399999D01*
X18702364Y14173314D01*
X18702366Y14173303D01*
X18761258Y13953512D01*
X18761261Y13953503D01*
X18857431Y13747268D01*
X18857432Y13747266D01*
X18987954Y13560859D01*
X19148858Y13399955D01*
X19148861Y13399953D01*
X19335266Y13269432D01*
X19393275Y13242382D01*
X19445714Y13196209D01*
X19464866Y13129016D01*
X19444650Y13062135D01*
X19393275Y13017618D01*
X19335267Y12990569D01*
X19335265Y12990568D01*
X19148858Y12860046D01*
X18987954Y12699142D01*
X18857432Y12512735D01*
X18857431Y12512733D01*
X18761261Y12306498D01*
X18761258Y12306489D01*
X18702366Y12086698D01*
X18702364Y12086687D01*
X18682532Y11860002D01*
X18682532Y11859999D01*
X18702364Y11633314D01*
X18702366Y11633303D01*
X18761258Y11413512D01*
X18761261Y11413503D01*
X18857431Y11207268D01*
X18857432Y11207266D01*
X18987954Y11020859D01*
X19148858Y10859955D01*
X19148861Y10859953D01*
X19335266Y10729432D01*
X19393275Y10702382D01*
X19445714Y10656209D01*
X19464866Y10589016D01*
X19444650Y10522135D01*
X19393275Y10477618D01*
X19335267Y10450569D01*
X19335265Y10450568D01*
X19148858Y10320046D01*
X18987954Y10159142D01*
X18857432Y9972735D01*
X18857431Y9972733D01*
X18761261Y9766498D01*
X18761258Y9766489D01*
X18702366Y9546698D01*
X18702364Y9546687D01*
X18682532Y9320002D01*
X18682532Y9319999D01*
X18702364Y9093314D01*
X18702366Y9093303D01*
X18761258Y8873512D01*
X18761261Y8873503D01*
X18857431Y8667268D01*
X18857432Y8667266D01*
X18987954Y8480859D01*
X19148858Y8319955D01*
X19148861Y8319953D01*
X19335266Y8189432D01*
X19393275Y8162382D01*
X19445714Y8116209D01*
X19464866Y8049016D01*
X19444650Y7982135D01*
X19393275Y7937618D01*
X19335267Y7910569D01*
X19335265Y7910568D01*
X19148858Y7780046D01*
X18987954Y7619142D01*
X18857432Y7432735D01*
X18857431Y7432733D01*
X18761261Y7226498D01*
X18761258Y7226489D01*
X18702366Y7006698D01*
X18702364Y7006687D01*
X18682532Y6780002D01*
X18682532Y6779999D01*
X18702364Y6553314D01*
X18702366Y6553303D01*
X18761258Y6333512D01*
X18761261Y6333503D01*
X18857431Y6127268D01*
X18857432Y6127266D01*
X18987954Y5940859D01*
X19148858Y5779955D01*
X19148861Y5779953D01*
X19335266Y5649432D01*
X19393275Y5622382D01*
X19445714Y5576209D01*
X19464866Y5509016D01*
X19444650Y5442135D01*
X19393275Y5397618D01*
X19335267Y5370569D01*
X19335265Y5370568D01*
X19148858Y5240046D01*
X18987954Y5079142D01*
X18857432Y4892735D01*
X18857431Y4892733D01*
X18761261Y4686498D01*
X18761258Y4686489D01*
X18702366Y4466698D01*
X18702364Y4466687D01*
X18682532Y4240002D01*
X18682532Y4239999D01*
X18702364Y4013314D01*
X18702366Y4013303D01*
X18761258Y3793512D01*
X18761261Y3793503D01*
X18857431Y3587268D01*
X18857432Y3587266D01*
X18987954Y3400859D01*
X19148858Y3239955D01*
X19148861Y3239953D01*
X19335266Y3109432D01*
X19541502Y3013262D01*
X19546411Y3010973D01*
X19545326Y3008647D01*
X19592932Y2973593D01*
X19617866Y2908324D01*
X19603555Y2839936D01*
X19554542Y2790141D01*
X19494256Y2774500D01*
X16825336Y2774500D01*
X16758297Y2794185D01*
X16737655Y2810819D01*
X13936819Y5611655D01*
X13903334Y5672978D01*
X13900500Y5699336D01*
X13900500Y16723415D01*
X13906569Y16761734D01*
X13919709Y16802175D01*
X13926571Y16845499D01*
X13926571Y16845500D01*
X13950500Y16996578D01*
X13950500Y20078980D01*
X13952027Y20098378D01*
X13975500Y20246578D01*
X13975500Y20443422D01*
X13952027Y20591622D01*
X13950500Y20611020D01*
X13950500Y23078980D01*
X13952027Y23098378D01*
X13975500Y23246578D01*
X13975500Y23443422D01*
X13957042Y23559955D01*
X13944709Y23637826D01*
X13883883Y23825026D01*
X13814014Y23962154D01*
X13800499Y24018448D01*
X13800499Y24045002D01*
X13800498Y24045019D01*
X13789999Y24147797D01*
X13789998Y24147800D01*
X13735672Y24311744D01*
X13734814Y24314334D01*
X13642712Y24463656D01*
X13518656Y24587712D01*
X13369334Y24679814D01*
X13202797Y24734999D01*
X13202795Y24735000D01*
X13100010Y24745500D01*
X12349998Y24745500D01*
X12349980Y24745499D01*
X12247203Y24735000D01*
X12247200Y24734999D01*
X12080668Y24679815D01*
X12080663Y24679813D01*
X11931342Y24587711D01*
X11807289Y24463658D01*
X11715187Y24314337D01*
X11715185Y24314332D01*
X11689015Y24235355D01*
X11660001Y24147797D01*
X11660001Y24147796D01*
X11660000Y24147796D01*
X11649500Y24045017D01*
X11649500Y24041421D01*
X11632180Y23980004D01*
X11632688Y23979745D01*
X11631389Y23977197D01*
X11631232Y23976638D01*
X11630477Y23975407D01*
X11541115Y23800027D01*
X11541114Y23800024D01*
X11502998Y23682711D01*
X11480290Y23612824D01*
X11480290Y23612823D01*
X11449500Y23418423D01*
X11449500Y17416586D01*
X11443431Y17378267D01*
X11430290Y17337827D01*
X11399500Y17143423D01*
X11399500Y13019500D01*
X11379815Y12952461D01*
X11327011Y12906706D01*
X11275500Y12895500D01*
X11224500Y12895500D01*
X11157461Y12915185D01*
X11111706Y12967989D01*
X11100500Y13019500D01*
X11100499Y14245002D01*
X11100498Y14245019D01*
X11089999Y14347797D01*
X11089998Y14347800D01*
X11082167Y14371433D01*
X11034814Y14514334D01*
X10942712Y14663656D01*
X10886819Y14719549D01*
X10853334Y14780872D01*
X10850500Y14807230D01*
X10850500Y15519337D01*
X10868962Y15584434D01*
X10909809Y15650658D01*
X10909808Y15650658D01*
X10909814Y15650666D01*
X10964999Y15817203D01*
X10975500Y15919991D01*
X10975499Y18170008D01*
X10964999Y18272797D01*
X10909814Y18439334D01*
X10817712Y18588656D01*
X10693656Y18712712D01*
X10564945Y18792101D01*
X10544336Y18804813D01*
X10544335Y18804814D01*
X10544334Y18804814D01*
X10544328Y18804816D01*
X10498221Y18820095D01*
X10440777Y18859868D01*
X10413955Y18924384D01*
X10426271Y18993160D01*
X10472131Y19043339D01*
X10568343Y19102683D01*
X10692315Y19226655D01*
X10784356Y19375876D01*
X10784358Y19375881D01*
X10839505Y19542303D01*
X10839506Y19542310D01*
X10849999Y19645014D01*
X10850000Y19645027D01*
X10850000Y20095000D01*
X9649000Y20095000D01*
X9581961Y20114685D01*
X9536206Y20167489D01*
X9525000Y20219000D01*
X9525000Y20471000D01*
X9544685Y20538039D01*
X9597489Y20583794D01*
X9649000Y20595000D01*
X10849999Y20595000D01*
X10849999Y21044972D01*
X10849998Y21044987D01*
X10839505Y21147698D01*
X10784358Y21314120D01*
X10784356Y21314125D01*
X10692315Y21463346D01*
X10568345Y21587316D01*
X10419124Y21679357D01*
X10419119Y21679359D01*
X10274460Y21727294D01*
X10217015Y21767067D01*
X10190192Y21831583D01*
X10202507Y21900358D01*
X10250050Y21951558D01*
X10274460Y21962706D01*
X10419119Y22010642D01*
X10419124Y22010644D01*
X10568345Y22102685D01*
X10692315Y22226655D01*
X10784356Y22375876D01*
X10784358Y22375881D01*
X10839505Y22542303D01*
X10839506Y22542310D01*
X10849999Y22645014D01*
X10850000Y22645027D01*
X10850000Y23095000D01*
X8700001Y23095000D01*
X8700001Y22645014D01*
X8710494Y22542303D01*
X8765641Y22375881D01*
X8765643Y22375876D01*
X8857684Y22226655D01*
X8981654Y22102685D01*
X9130875Y22010644D01*
X9130880Y22010642D01*
X9275539Y21962707D01*
X9332984Y21922935D01*
X9359807Y21858419D01*
X9347492Y21789643D01*
X9299949Y21738443D01*
X9275540Y21727295D01*
X9130878Y21679358D01*
X9130875Y21679357D01*
X8981654Y21587316D01*
X8857684Y21463346D01*
X8765643Y21314125D01*
X8765641Y21314120D01*
X8717706Y21169461D01*
X8677933Y21112016D01*
X8613417Y21085193D01*
X8544641Y21097508D01*
X8493442Y21145051D01*
X8482294Y21169461D01*
X8434358Y21314120D01*
X8434356Y21314125D01*
X8342315Y21463346D01*
X8218345Y21587316D01*
X8069124Y21679357D01*
X8069119Y21679359D01*
X7902697Y21734506D01*
X7902690Y21734507D01*
X7799986Y21745000D01*
X7675000Y21745000D01*
X7675000Y20219000D01*
X7655315Y20151961D01*
X7602511Y20106206D01*
X7551000Y20095000D01*
X6350001Y20095000D01*
X6350001Y19645014D01*
X6360494Y19542303D01*
X6415641Y19375881D01*
X6415643Y19375876D01*
X6507684Y19226655D01*
X6631656Y19102683D01*
X6759618Y19023756D01*
X6806343Y18971808D01*
X6817566Y18902846D01*
X6789723Y18838763D01*
X6731654Y18799907D01*
X6704253Y18794599D01*
X6672509Y18792101D01*
X6672504Y18792100D01*
X6514806Y18746284D01*
X6514803Y18746283D01*
X6373447Y18662686D01*
X6373438Y18662679D01*
X6257321Y18546562D01*
X6257312Y18546551D01*
X6257017Y18546050D01*
X6256683Y18545739D01*
X6252537Y18540393D01*
X6251674Y18541063D01*
X6205943Y18498371D01*
X6137200Y18485873D01*
X6072614Y18512524D01*
X6048063Y18540860D01*
X6047861Y18540702D01*
X6044967Y18544432D01*
X6043559Y18546058D01*
X6043085Y18546860D01*
X6043076Y18546871D01*
X5926870Y18663077D01*
X5926862Y18663083D01*
X5786179Y18746282D01*
X5785398Y18746744D01*
X5785397Y18746745D01*
X5785396Y18746745D01*
X5785393Y18746747D01*
X5661317Y18782794D01*
X5608231Y18814189D01*
X5511819Y18910601D01*
X5478334Y18971924D01*
X5475500Y18998282D01*
X5475500Y19328202D01*
X5484368Y19368205D01*
X5482542Y19368810D01*
X5484814Y19375666D01*
X5539999Y19542203D01*
X5550500Y19644991D01*
X5550500Y19671557D01*
X5564013Y19727848D01*
X5633884Y19864975D01*
X5694709Y20052174D01*
X5703048Y20104826D01*
X5725500Y20246578D01*
X5725500Y21044987D01*
X6350000Y21044987D01*
X6350000Y20595000D01*
X7175000Y20595000D01*
X7175000Y21745000D01*
X7050027Y21745000D01*
X7050012Y21744999D01*
X6947302Y21734506D01*
X6780880Y21679359D01*
X6780875Y21679357D01*
X6631654Y21587316D01*
X6507684Y21463346D01*
X6415643Y21314125D01*
X6415641Y21314120D01*
X6360494Y21147698D01*
X6360493Y21147691D01*
X6350000Y21044987D01*
X5725500Y21044987D01*
X5725500Y24044987D01*
X8700000Y24044987D01*
X8700000Y23595000D01*
X9525000Y23595000D01*
X10025000Y23595000D01*
X10849999Y23595000D01*
X10849999Y24044972D01*
X10849998Y24044987D01*
X10839505Y24147698D01*
X10784358Y24314120D01*
X10784356Y24314125D01*
X10692315Y24463346D01*
X10568345Y24587316D01*
X10419124Y24679357D01*
X10419119Y24679359D01*
X10252697Y24734506D01*
X10252690Y24734507D01*
X10149986Y24745000D01*
X10025000Y24745000D01*
X10025000Y23595000D01*
X9525000Y23595000D01*
X9525000Y24745000D01*
X9400027Y24745000D01*
X9400012Y24744999D01*
X9297302Y24734506D01*
X9130880Y24679359D01*
X9130875Y24679357D01*
X8981654Y24587316D01*
X8857684Y24463346D01*
X8765643Y24314125D01*
X8765641Y24314120D01*
X8710494Y24147698D01*
X8710493Y24147691D01*
X8700000Y24044987D01*
X5725500Y24044987D01*
X5725500Y32199423D01*
X5694711Y32393817D01*
X5694707Y32393834D01*
X5693059Y32398907D01*
X5693059Y32398906D01*
X5660049Y32500500D01*
X5633884Y32581026D01*
X5633882Y32581029D01*
X5633882Y32581031D01*
X5580916Y32684982D01*
X5544524Y32756405D01*
X5428828Y32915646D01*
X2810819Y35533655D01*
X2777334Y35594978D01*
X2774500Y35621336D01*
X2774500Y37290736D01*
X2794185Y37357775D01*
X2846989Y37403530D01*
X2916147Y37413474D01*
X2950905Y37403118D01*
X3136507Y37316571D01*
X3136516Y37316567D01*
X3350000Y37259366D01*
X3350000Y38156988D01*
X3407007Y38124075D01*
X3534174Y38090000D01*
X3665826Y38090000D01*
X3792993Y38124075D01*
X3850000Y38156988D01*
X3850000Y37259367D01*
X4063483Y37316567D01*
X4063492Y37316571D01*
X4277578Y37416400D01*
X4471082Y37551895D01*
X4638105Y37718918D01*
X4773600Y37912422D01*
X4873429Y38126508D01*
X4873432Y38126514D01*
X4930636Y38340000D01*
X4033012Y38340000D01*
X4065925Y38397007D01*
X4100000Y38524174D01*
X4100000Y38655826D01*
X4065925Y38782993D01*
X4033012Y38840000D01*
X4930636Y38840000D01*
X4930635Y38840001D01*
X4873432Y39053487D01*
X4873429Y39053493D01*
X4773600Y39267578D01*
X4773599Y39267580D01*
X4638113Y39461074D01*
X4638108Y39461080D01*
X4471078Y39628110D01*
X4285405Y39758121D01*
X4241780Y39812698D01*
X4234588Y39882196D01*
X4266110Y39944551D01*
X4285406Y39961270D01*
X4378831Y40026687D01*
X4471401Y40091505D01*
X4638495Y40258599D01*
X4774035Y40452170D01*
X4873903Y40666337D01*
X4935063Y40894592D01*
X4955659Y41130000D01*
X4935063Y41365408D01*
X4873903Y41593663D01*
X4774035Y41807829D01*
X4762713Y41823999D01*
X36806704Y41823999D01*
X36806899Y41821514D01*
X36852718Y41663802D01*
X36936314Y41522448D01*
X36941100Y41516278D01*
X36938753Y41514458D01*
X36965564Y41465358D01*
X36960580Y41395666D01*
X36939541Y41362931D01*
X36941100Y41361722D01*
X36936314Y41355553D01*
X36852718Y41214199D01*
X36806899Y41056487D01*
X36806704Y41054002D01*
X36806705Y41054000D01*
X38079000Y41054000D01*
X38579000Y41054000D01*
X39851295Y41054000D01*
X39851295Y41054002D01*
X39851100Y41056487D01*
X39805281Y41214199D01*
X39721685Y41355553D01*
X39716900Y41361722D01*
X39719252Y41363547D01*
X39692445Y41412595D01*
X39697402Y41482288D01*
X39718465Y41515064D01*
X39716900Y41516278D01*
X39721685Y41522448D01*
X39805281Y41663802D01*
X39851100Y41821514D01*
X39851295Y41823999D01*
X39851295Y41824000D01*
X38579000Y41824000D01*
X38579000Y41054000D01*
X38079000Y41054000D01*
X38079000Y41824000D01*
X36806705Y41824000D01*
X36806704Y41823999D01*
X4762713Y41823999D01*
X4638495Y42001401D01*
X4638494Y42001403D01*
X4471402Y42168494D01*
X4471396Y42168499D01*
X4285842Y42298425D01*
X4242217Y42353002D01*
X4235023Y42422500D01*
X4266546Y42484855D01*
X4285842Y42501575D01*
X4357139Y42551498D01*
X4471401Y42631505D01*
X4638495Y42798599D01*
X4774035Y42992170D01*
X4873903Y43206337D01*
X4935063Y43434592D01*
X4946009Y43559702D01*
X36803500Y43559702D01*
X36803500Y43128299D01*
X36806401Y43091433D01*
X36806402Y43091427D01*
X36852254Y42933607D01*
X36852255Y42933604D01*
X36935917Y42792138D01*
X36940702Y42785969D01*
X36938369Y42784160D01*
X36965210Y42735005D01*
X36960226Y42665313D01*
X36939470Y42632979D01*
X36941097Y42631717D01*
X36936313Y42625551D01*
X36852718Y42484199D01*
X36806899Y42326487D01*
X36806704Y42324002D01*
X36806705Y42324000D01*
X39851295Y42324000D01*
X39851295Y42324002D01*
X39851100Y42326487D01*
X39805281Y42484199D01*
X39721685Y42625553D01*
X39716900Y42631722D01*
X39719366Y42633636D01*
X39692802Y42682224D01*
X39697749Y42751918D01*
X39718856Y42784768D01*
X39717301Y42785974D01*
X39722077Y42792132D01*
X39722081Y42792135D01*
X39805744Y42933602D01*
X39851598Y43091431D01*
X39854500Y43128306D01*
X39854500Y43559694D01*
X39851598Y43596569D01*
X39805744Y43754398D01*
X39722081Y43895865D01*
X39722079Y43895867D01*
X39722076Y43895871D01*
X39605870Y44012077D01*
X39605862Y44012083D01*
X39464396Y44095745D01*
X39464393Y44095746D01*
X39306573Y44141598D01*
X39306567Y44141599D01*
X39269701Y44144500D01*
X39269694Y44144500D01*
X37388306Y44144500D01*
X37388298Y44144500D01*
X37351432Y44141599D01*
X37351426Y44141598D01*
X37193606Y44095746D01*
X37193603Y44095745D01*
X37052137Y44012083D01*
X37052129Y44012077D01*
X36935923Y43895871D01*
X36935917Y43895863D01*
X36852255Y43754397D01*
X36852254Y43754394D01*
X36806402Y43596574D01*
X36806401Y43596568D01*
X36803500Y43559702D01*
X4946009Y43559702D01*
X4955659Y43670000D01*
X4935063Y43905408D01*
X4873903Y44133663D01*
X4774035Y44347829D01*
X4638495Y44541401D01*
X4638494Y44541403D01*
X4471402Y44708494D01*
X4471396Y44708499D01*
X4285842Y44838425D01*
X4242217Y44893002D01*
X4235023Y44962500D01*
X4266546Y45024855D01*
X4285842Y45041575D01*
X4308026Y45057109D01*
X4471401Y45171505D01*
X4638495Y45338599D01*
X4774035Y45532170D01*
X4873903Y45746337D01*
X4935063Y45974592D01*
X4955659Y46210000D01*
X4935063Y46445408D01*
X4873903Y46673663D01*
X4774035Y46887829D01*
X4638495Y47081401D01*
X4638494Y47081403D01*
X4471402Y47248494D01*
X4471396Y47248499D01*
X4285842Y47378425D01*
X4242217Y47433002D01*
X4235023Y47502500D01*
X4266546Y47564855D01*
X4285842Y47581575D01*
X4308026Y47597109D01*
X4471401Y47711505D01*
X4638495Y47878599D01*
X4774035Y48072170D01*
X4873903Y48286337D01*
X4935063Y48514592D01*
X4955659Y48750000D01*
X4935063Y48985408D01*
X4873903Y49213663D01*
X4774035Y49427829D01*
X4638495Y49621401D01*
X4638494Y49621403D01*
X4471402Y49788494D01*
X4471401Y49788495D01*
X4285405Y49918731D01*
X4241781Y49973308D01*
X4234588Y50042807D01*
X4266110Y50105161D01*
X4285405Y50121881D01*
X4471082Y50251895D01*
X4638105Y50418918D01*
X4773600Y50612422D01*
X4873429Y50826508D01*
X4873432Y50826514D01*
X4930636Y51040000D01*
X4033012Y51040000D01*
X4065925Y51097007D01*
X4100000Y51224174D01*
X4100000Y51355826D01*
X4065925Y51482993D01*
X4033012Y51540000D01*
X4930636Y51540000D01*
X4930635Y51540001D01*
X4873432Y51753487D01*
X4873429Y51753493D01*
X4773600Y51967578D01*
X4773599Y51967580D01*
X4638113Y52161074D01*
X4638108Y52161080D01*
X4471078Y52328110D01*
X4285405Y52458121D01*
X4241780Y52512698D01*
X4234588Y52582196D01*
X4266110Y52644551D01*
X4285406Y52661270D01*
X4471401Y52791505D01*
X4638495Y52958599D01*
X4774035Y53152170D01*
X4873903Y53366337D01*
X4935063Y53594592D01*
X4955659Y53830000D01*
X4935063Y54065408D01*
X4873903Y54293663D01*
X4774035Y54507829D01*
X4638495Y54701401D01*
X4638494Y54701403D01*
X4471402Y54868494D01*
X4471396Y54868499D01*
X4285842Y54998425D01*
X4242217Y55053002D01*
X4235023Y55122500D01*
X4266546Y55184855D01*
X4285842Y55201575D01*
X4346931Y55244350D01*
X4471401Y55331505D01*
X4638495Y55498599D01*
X4774035Y55692170D01*
X4873903Y55906337D01*
X4935063Y56134592D01*
X4955659Y56370000D01*
X4955377Y56373218D01*
X4936796Y56585602D01*
X4935063Y56605408D01*
X4873903Y56833663D01*
X4774035Y57047829D01*
X4659291Y57211702D01*
X4638494Y57241403D01*
X4471402Y57408494D01*
X4471396Y57408499D01*
X4285842Y57538425D01*
X4242217Y57593002D01*
X4235023Y57662500D01*
X4266546Y57724855D01*
X4285842Y57741575D01*
X4394274Y57817500D01*
X4471401Y57871505D01*
X4638495Y58038599D01*
X4653097Y58059455D01*
X4685781Y58091435D01*
X4747782Y58132861D01*
X4887139Y58272218D01*
X4996632Y58436086D01*
X5072051Y58618165D01*
X5087688Y58696775D01*
X5110500Y58811457D01*
X5110500Y59008544D01*
X5072052Y59201830D01*
X5072051Y59201831D01*
X5072051Y59201835D01*
X5044416Y59268553D01*
X4996635Y59383908D01*
X4996628Y59383921D01*
X4887139Y59547782D01*
X4887136Y59547786D01*
X4747784Y59687138D01*
X4722741Y59703871D01*
X4685782Y59728566D01*
X4653100Y59760542D01*
X4638495Y59781401D01*
X4516179Y59903717D01*
X4482696Y59965037D01*
X4487680Y60034729D01*
X4529551Y60090663D01*
X4560529Y60107578D01*
X4692086Y60156646D01*
X4692093Y60156650D01*
X4807187Y60242810D01*
X4807190Y60242813D01*
X4893350Y60357907D01*
X4893354Y60357914D01*
X4943596Y60492621D01*
X4943598Y60492628D01*
X4949999Y60552156D01*
X4950000Y60552173D01*
X4950000Y61200000D01*
X4033012Y61200000D01*
X4065925Y61257007D01*
X4100000Y61384174D01*
X4100000Y61515826D01*
X4065925Y61642993D01*
X4033012Y61700000D01*
X4950000Y61700000D01*
X4950000Y61825999D01*
X36807704Y61825999D01*
X36807899Y61823514D01*
X36853718Y61665802D01*
X36937314Y61524448D01*
X36942100Y61518278D01*
X36939753Y61516458D01*
X36966564Y61467358D01*
X36961580Y61397666D01*
X36940541Y61364931D01*
X36942100Y61363722D01*
X36937314Y61357553D01*
X36853718Y61216199D01*
X36807899Y61058487D01*
X36807704Y61056002D01*
X36807705Y61056000D01*
X38080000Y61056000D01*
X38580000Y61056000D01*
X39852295Y61056000D01*
X39852295Y61056002D01*
X39852100Y61058487D01*
X39806281Y61216199D01*
X39722685Y61357553D01*
X39717900Y61363722D01*
X39720252Y61365547D01*
X39693445Y61414595D01*
X39698402Y61484288D01*
X39719465Y61517064D01*
X39717900Y61518278D01*
X39722685Y61524448D01*
X39806281Y61665802D01*
X39852100Y61823514D01*
X39852295Y61825999D01*
X39852295Y61826000D01*
X38580000Y61826000D01*
X38580000Y61056000D01*
X38080000Y61056000D01*
X38080000Y61826000D01*
X36807705Y61826000D01*
X36807704Y61825999D01*
X4950000Y61825999D01*
X4950000Y62347828D01*
X4949999Y62347845D01*
X4943598Y62407373D01*
X4943596Y62407380D01*
X4893354Y62542087D01*
X4893350Y62542094D01*
X4807190Y62657188D01*
X4807187Y62657191D01*
X4692093Y62743351D01*
X4692086Y62743355D01*
X4557379Y62793597D01*
X4557372Y62793599D01*
X4497844Y62800000D01*
X3850000Y62800000D01*
X3850000Y61883012D01*
X3792993Y61915925D01*
X3665826Y61950000D01*
X3534174Y61950000D01*
X3407007Y61915925D01*
X3350000Y61883012D01*
X3350000Y62800000D01*
X2702155Y62800000D01*
X2642627Y62793599D01*
X2642620Y62793597D01*
X2507913Y62743355D01*
X2507906Y62743351D01*
X2392812Y62657191D01*
X2392809Y62657188D01*
X2306649Y62542094D01*
X2306645Y62542087D01*
X2256403Y62407380D01*
X2256401Y62407373D01*
X2250000Y62347845D01*
X2250000Y61700000D01*
X3166988Y61700000D01*
X3134075Y61642993D01*
X3100000Y61515826D01*
X3100000Y61384174D01*
X3134075Y61257007D01*
X3166988Y61200000D01*
X2250000Y61200000D01*
X2250000Y60552156D01*
X2256401Y60492628D01*
X2256403Y60492621D01*
X2306645Y60357914D01*
X2306649Y60357907D01*
X2392809Y60242813D01*
X2392812Y60242810D01*
X2507906Y60156650D01*
X2507913Y60156646D01*
X2639470Y60107579D01*
X2695403Y60065708D01*
X2719821Y60000244D01*
X2704970Y59931971D01*
X2683819Y59903716D01*
X2561503Y59781400D01*
X2425965Y59587831D01*
X2425964Y59587829D01*
X2326098Y59373665D01*
X2326094Y59373656D01*
X2264938Y59145414D01*
X2264936Y59145404D01*
X2244341Y58910001D01*
X2244341Y58910000D01*
X2264936Y58674597D01*
X2264938Y58674587D01*
X2326094Y58446345D01*
X2326096Y58446341D01*
X2326097Y58446337D01*
X2330880Y58436080D01*
X2425965Y58232170D01*
X2425967Y58232166D01*
X2561501Y58038605D01*
X2561506Y58038598D01*
X2728597Y57871507D01*
X2728603Y57871502D01*
X2914158Y57741575D01*
X2957783Y57686998D01*
X2964977Y57617500D01*
X2933454Y57555145D01*
X2914158Y57538425D01*
X2728597Y57408495D01*
X2561505Y57241403D01*
X2425965Y57047831D01*
X2425964Y57047829D01*
X2326098Y56833665D01*
X2326094Y56833656D01*
X2264938Y56605414D01*
X2264936Y56605404D01*
X2244341Y56370001D01*
X2244341Y56370000D01*
X2264936Y56134597D01*
X2264938Y56134587D01*
X2326094Y55906345D01*
X2326096Y55906341D01*
X2326097Y55906337D01*
X2425965Y55692170D01*
X2425967Y55692166D01*
X2561501Y55498605D01*
X2561506Y55498598D01*
X2728597Y55331507D01*
X2728603Y55331502D01*
X2914158Y55201575D01*
X2957783Y55146998D01*
X2964977Y55077500D01*
X2933454Y55015145D01*
X2914158Y54998425D01*
X2728597Y54868495D01*
X2561505Y54701403D01*
X2425965Y54507831D01*
X2425964Y54507829D01*
X2326098Y54293665D01*
X2326094Y54293656D01*
X2264938Y54065414D01*
X2264936Y54065404D01*
X2244341Y53830001D01*
X2244341Y53830000D01*
X2264936Y53594597D01*
X2264938Y53594587D01*
X2326094Y53366345D01*
X2326096Y53366341D01*
X2326097Y53366337D01*
X2425965Y53152170D01*
X2425967Y53152166D01*
X2561501Y52958605D01*
X2561506Y52958598D01*
X2728597Y52791507D01*
X2728603Y52791502D01*
X2914594Y52661270D01*
X2958219Y52606693D01*
X2965413Y52537195D01*
X2933890Y52474840D01*
X2914595Y52458120D01*
X2728922Y52328110D01*
X2728920Y52328109D01*
X2561891Y52161080D01*
X2561886Y52161074D01*
X2426400Y51967580D01*
X2426399Y51967578D01*
X2326570Y51753493D01*
X2326567Y51753487D01*
X2269364Y51540001D01*
X2269364Y51540000D01*
X3166988Y51540000D01*
X3134075Y51482993D01*
X3100000Y51355826D01*
X3100000Y51224174D01*
X3134075Y51097007D01*
X3166988Y51040000D01*
X2269364Y51040000D01*
X2326567Y50826514D01*
X2326570Y50826508D01*
X2426399Y50612422D01*
X2561894Y50418918D01*
X2728917Y50251895D01*
X2914595Y50121881D01*
X2958219Y50067304D01*
X2965412Y49997805D01*
X2933890Y49935451D01*
X2914595Y49918731D01*
X2728594Y49788492D01*
X2561505Y49621403D01*
X2425965Y49427831D01*
X2425964Y49427829D01*
X2326098Y49213665D01*
X2326094Y49213656D01*
X2264938Y48985414D01*
X2264936Y48985404D01*
X2244341Y48750001D01*
X2244341Y48750000D01*
X2264936Y48514597D01*
X2264938Y48514587D01*
X2326094Y48286345D01*
X2326096Y48286341D01*
X2326097Y48286337D01*
X2425965Y48072170D01*
X2425967Y48072166D01*
X2561501Y47878605D01*
X2561506Y47878598D01*
X2728597Y47711507D01*
X2728603Y47711502D01*
X2914158Y47581575D01*
X2957783Y47526998D01*
X2964977Y47457500D01*
X2933454Y47395145D01*
X2914158Y47378425D01*
X2728597Y47248495D01*
X2561505Y47081403D01*
X2425965Y46887831D01*
X2425964Y46887829D01*
X2326098Y46673665D01*
X2326094Y46673656D01*
X2264938Y46445414D01*
X2264936Y46445404D01*
X2244341Y46210001D01*
X2244341Y46210000D01*
X2264936Y45974597D01*
X2264938Y45974587D01*
X2326094Y45746345D01*
X2326096Y45746341D01*
X2326097Y45746337D01*
X2425965Y45532170D01*
X2425967Y45532166D01*
X2561501Y45338605D01*
X2561506Y45338598D01*
X2728597Y45171507D01*
X2728603Y45171502D01*
X2914158Y45041575D01*
X2957783Y44986998D01*
X2964977Y44917500D01*
X2933454Y44855145D01*
X2914158Y44838425D01*
X2728597Y44708495D01*
X2561505Y44541403D01*
X2425965Y44347831D01*
X2425964Y44347829D01*
X2326098Y44133665D01*
X2326094Y44133656D01*
X2264938Y43905414D01*
X2264936Y43905404D01*
X2244341Y43670001D01*
X2244341Y43670000D01*
X2264936Y43434597D01*
X2264938Y43434587D01*
X2326094Y43206345D01*
X2326096Y43206341D01*
X2326097Y43206337D01*
X2362480Y43128314D01*
X2425965Y42992170D01*
X2425967Y42992166D01*
X2534281Y42837479D01*
X2561505Y42798599D01*
X2728599Y42631505D01*
X2764917Y42606075D01*
X2808541Y42551498D01*
X2815734Y42481999D01*
X2784212Y42419645D01*
X2723982Y42384231D01*
X2693793Y42380500D01*
X2299497Y42380500D01*
X2105092Y42349710D01*
X1917888Y42288883D01*
X1742513Y42199524D01*
X1699806Y42168495D01*
X1583273Y42083828D01*
X1583271Y42083826D01*
X1583270Y42083826D01*
X570174Y41070730D01*
X570174Y41070729D01*
X570172Y41070727D01*
X550604Y41043794D01*
X454476Y40911487D01*
X365115Y40736108D01*
X365114Y40736105D01*
X339116Y40656087D01*
X304290Y40548905D01*
X304290Y40548904D01*
X273499Y40354502D01*
X273118Y40349648D01*
X248238Y40284358D01*
X192009Y40242884D01*
X122284Y40238394D01*
X61199Y40272312D01*
X28150Y40333871D01*
X25500Y40359370D01*
X25500Y63095999D01*
X36807704Y63095999D01*
X36807899Y63093514D01*
X36853718Y62935802D01*
X36937314Y62794448D01*
X36942100Y62788278D01*
X36939753Y62786458D01*
X36966564Y62737358D01*
X36961580Y62667666D01*
X36940541Y62634931D01*
X36942100Y62633722D01*
X36937314Y62627553D01*
X36853718Y62486199D01*
X36807899Y62328487D01*
X36807704Y62326002D01*
X36807705Y62326000D01*
X38080000Y62326000D01*
X38580000Y62326000D01*
X39852295Y62326000D01*
X39852295Y62326002D01*
X39852100Y62328487D01*
X39806281Y62486199D01*
X39722685Y62627553D01*
X39717900Y62633722D01*
X39720252Y62635547D01*
X39693445Y62684595D01*
X39698402Y62754288D01*
X39719465Y62787064D01*
X39717900Y62788278D01*
X39722685Y62794448D01*
X39806281Y62935802D01*
X39852100Y63093514D01*
X39852295Y63095999D01*
X39852295Y63096000D01*
X38580000Y63096000D01*
X38580000Y62326000D01*
X38080000Y62326000D01*
X38080000Y63096000D01*
X36807705Y63096000D01*
X36807704Y63095999D01*
X25500Y63095999D01*
X25500Y64831702D01*
X36804500Y64831702D01*
X36804500Y64400299D01*
X36807401Y64363433D01*
X36807402Y64363427D01*
X36853254Y64205607D01*
X36853255Y64205604D01*
X36936917Y64064138D01*
X36941702Y64057969D01*
X36939369Y64056160D01*
X36966210Y64007005D01*
X36961226Y63937313D01*
X36940470Y63904979D01*
X36942097Y63903717D01*
X36937313Y63897551D01*
X36853718Y63756199D01*
X36807899Y63598487D01*
X36807704Y63596002D01*
X36807705Y63596000D01*
X39852295Y63596000D01*
X39852295Y63596002D01*
X39852100Y63598487D01*
X39806281Y63756199D01*
X39722685Y63897553D01*
X39717900Y63903722D01*
X39720366Y63905636D01*
X39693802Y63954224D01*
X39698749Y64023918D01*
X39719856Y64056768D01*
X39718301Y64057974D01*
X39723077Y64064132D01*
X39723081Y64064135D01*
X39806744Y64205602D01*
X39852598Y64363431D01*
X39855500Y64400306D01*
X39855500Y64831694D01*
X39852598Y64868569D01*
X39806744Y65026398D01*
X39723081Y65167865D01*
X39723079Y65167867D01*
X39723076Y65167871D01*
X39606870Y65284077D01*
X39606862Y65284083D01*
X39465396Y65367745D01*
X39465393Y65367746D01*
X39307573Y65413598D01*
X39307567Y65413599D01*
X39270701Y65416500D01*
X39270694Y65416500D01*
X37389306Y65416500D01*
X37389298Y65416500D01*
X37352432Y65413599D01*
X37352426Y65413598D01*
X37194606Y65367746D01*
X37194603Y65367745D01*
X37053137Y65284083D01*
X37053129Y65284077D01*
X36936923Y65167871D01*
X36936917Y65167863D01*
X36853255Y65026397D01*
X36853254Y65026394D01*
X36807402Y64868574D01*
X36807401Y64868568D01*
X36804500Y64831702D01*
X25500Y64831702D01*
X25500Y67400500D01*
X45185Y67467539D01*
X97989Y67513294D01*
X149500Y67524500D01*
X2015017Y67524500D01*
X2015019Y67524500D01*
X2042768Y67535994D01*
X2064007Y67557233D01*
X2075501Y67584982D01*
X2075500Y81081702D01*
X36729500Y81081702D01*
X36729500Y80650299D01*
X36732401Y80613433D01*
X36732402Y80613427D01*
X36778254Y80455607D01*
X36778255Y80455604D01*
X36861917Y80314138D01*
X36866702Y80307969D01*
X36864369Y80306160D01*
X36891210Y80257005D01*
X36886226Y80187313D01*
X36865470Y80154979D01*
X36867097Y80153717D01*
X36862313Y80147551D01*
X36778718Y80006199D01*
X36732899Y79848487D01*
X36732704Y79846002D01*
X36732705Y79846000D01*
X39777296Y79846000D01*
X39789933Y79859671D01*
X39849894Y79895538D01*
X39880989Y79899500D01*
X39894644Y79899500D01*
X39894646Y79899500D01*
X40079803Y79938856D01*
X40252730Y80015849D01*
X40405871Y80127112D01*
X40532533Y80267784D01*
X40627179Y80431716D01*
X40685674Y80611744D01*
X40705460Y80800000D01*
X40685674Y80988256D01*
X40627179Y81168284D01*
X40532533Y81332216D01*
X40405871Y81472888D01*
X40405870Y81472889D01*
X40252734Y81584149D01*
X40252729Y81584152D01*
X40079807Y81661143D01*
X40079802Y81661145D01*
X39934001Y81692135D01*
X39894646Y81700500D01*
X39889083Y81700500D01*
X39822044Y81720185D01*
X39776289Y81772989D01*
X39766345Y81842147D01*
X39770007Y81859096D01*
X39777099Y81883509D01*
X39777100Y81883512D01*
X39777295Y81885999D01*
X39777295Y81886000D01*
X36732705Y81886000D01*
X36732704Y81885999D01*
X36732899Y81883514D01*
X36778718Y81725802D01*
X36862314Y81584448D01*
X36867100Y81578278D01*
X36864640Y81576371D01*
X36891210Y81527712D01*
X36886226Y81458020D01*
X36865162Y81425219D01*
X36866699Y81424026D01*
X36861915Y81417860D01*
X36778255Y81276397D01*
X36778254Y81276394D01*
X36732402Y81118574D01*
X36732401Y81118568D01*
X36729500Y81081702D01*
X2075500Y81081702D01*
X2075500Y83155999D01*
X36732704Y83155999D01*
X36732899Y83153514D01*
X36778718Y82995802D01*
X36862314Y82854448D01*
X36867100Y82848278D01*
X36864753Y82846458D01*
X36891564Y82797358D01*
X36886580Y82727666D01*
X36865541Y82694931D01*
X36867100Y82693722D01*
X36862314Y82687553D01*
X36778718Y82546199D01*
X36732899Y82388487D01*
X36732704Y82386002D01*
X36732705Y82386000D01*
X38005000Y82386000D01*
X38505000Y82386000D01*
X39777295Y82386000D01*
X39777295Y82386002D01*
X39777100Y82388487D01*
X39731281Y82546199D01*
X39647685Y82687553D01*
X39642900Y82693722D01*
X39645252Y82695547D01*
X39618445Y82744595D01*
X39623402Y82814288D01*
X39644465Y82847064D01*
X39642900Y82848278D01*
X39647685Y82854448D01*
X39731281Y82995802D01*
X39777100Y83153514D01*
X39777295Y83155999D01*
X39777295Y83156000D01*
X38505000Y83156000D01*
X38505000Y82386000D01*
X38005000Y82386000D01*
X38005000Y83156000D01*
X36732705Y83156000D01*
X36732704Y83155999D01*
X2075500Y83155999D01*
X2075500Y84425999D01*
X36732704Y84425999D01*
X36732899Y84423514D01*
X36778718Y84265802D01*
X36862314Y84124448D01*
X36867100Y84118278D01*
X36864753Y84116458D01*
X36891564Y84067358D01*
X36886580Y83997666D01*
X36865541Y83964931D01*
X36867100Y83963722D01*
X36862314Y83957553D01*
X36778718Y83816199D01*
X36732899Y83658487D01*
X36732704Y83656002D01*
X36732705Y83656000D01*
X38005000Y83656000D01*
X38505000Y83656000D01*
X39777295Y83656000D01*
X39777295Y83656002D01*
X39777100Y83658487D01*
X39731281Y83816199D01*
X39647685Y83957553D01*
X39642900Y83963722D01*
X39645252Y83965547D01*
X39618445Y84014595D01*
X39623402Y84084288D01*
X39644465Y84117064D01*
X39642900Y84118278D01*
X39647685Y84124448D01*
X39731281Y84265802D01*
X39777100Y84423514D01*
X39777295Y84425999D01*
X39777295Y84426000D01*
X38505000Y84426000D01*
X38505000Y83656000D01*
X38005000Y83656000D01*
X38005000Y84426000D01*
X36732705Y84426000D01*
X36732704Y84425999D01*
X2075500Y84425999D01*
X2075500Y86161702D01*
X36729500Y86161702D01*
X36729500Y85730299D01*
X36732401Y85693433D01*
X36732402Y85693427D01*
X36778254Y85535607D01*
X36778255Y85535604D01*
X36861917Y85394138D01*
X36866702Y85387969D01*
X36864369Y85386160D01*
X36891210Y85337005D01*
X36886226Y85267313D01*
X36865470Y85234979D01*
X36867097Y85233717D01*
X36862313Y85227551D01*
X36778718Y85086199D01*
X36732899Y84928487D01*
X36732704Y84926002D01*
X36732705Y84926000D01*
X39777295Y84926000D01*
X39777295Y84926002D01*
X39777100Y84928487D01*
X39731281Y85086199D01*
X39647685Y85227553D01*
X39642900Y85233722D01*
X39645366Y85235636D01*
X39618802Y85284224D01*
X39623749Y85353918D01*
X39644856Y85386768D01*
X39643301Y85387974D01*
X39648077Y85394132D01*
X39648081Y85394135D01*
X39731744Y85535602D01*
X39777598Y85693431D01*
X39780500Y85730306D01*
X39780500Y86161694D01*
X39777598Y86198569D01*
X39731744Y86356398D01*
X39648081Y86497865D01*
X39648079Y86497867D01*
X39648076Y86497871D01*
X39531870Y86614077D01*
X39531862Y86614083D01*
X39390396Y86697745D01*
X39390393Y86697746D01*
X39232573Y86743598D01*
X39232567Y86743599D01*
X39195701Y86746500D01*
X39195694Y86746500D01*
X37314306Y86746500D01*
X37314298Y86746500D01*
X37277432Y86743599D01*
X37277426Y86743598D01*
X37119606Y86697746D01*
X37119603Y86697745D01*
X36978137Y86614083D01*
X36978129Y86614077D01*
X36861923Y86497871D01*
X36861917Y86497863D01*
X36778255Y86356397D01*
X36778254Y86356394D01*
X36732402Y86198574D01*
X36732401Y86198568D01*
X36729500Y86161702D01*
X2075500Y86161702D01*
X2075500Y90500501D01*
X2095185Y90567539D01*
X2147989Y90613294D01*
X2199500Y90624500D01*
X5202289Y90624500D01*
X5202292Y90624500D01*
X5454502Y90647871D01*
X5605140Y90661829D01*
X5605141Y90661829D01*
X5605143Y90661830D01*
X5605149Y90661830D01*
X6002843Y90736172D01*
X6391982Y90846891D01*
X6769245Y90993044D01*
X7131413Y91173382D01*
X7475396Y91386368D01*
X7798261Y91630184D01*
X8097251Y91902750D01*
X8369817Y92201740D01*
X8613633Y92524605D01*
X8826618Y92868588D01*
X9006957Y93230756D01*
X9153109Y93608019D01*
X9263828Y93997158D01*
X9338170Y94394852D01*
X9375500Y94797709D01*
X9375500Y95000001D01*
X9375500Y95024532D01*
X9375500Y97800500D01*
X9395185Y97867539D01*
X9447989Y97913294D01*
X9499499Y97924500D01*
X50380401Y97924500D01*
X50447438Y97904815D01*
G37*
%TD.AperFunction*%
%TA.AperFunction,Conductor*%
G36*
X8655357Y19592493D02*
G01*
X8706557Y19544951D01*
X8717705Y19520541D01*
X8765642Y19375879D01*
X8765643Y19375876D01*
X8857684Y19226655D01*
X8981654Y19102685D01*
X9137025Y19006851D01*
X9135666Y19004649D01*
X9179026Y18966487D01*
X9198192Y18899298D01*
X9177991Y18832412D01*
X9139293Y18794717D01*
X9006347Y18712715D01*
X9006343Y18712712D01*
X8882289Y18588658D01*
X8790187Y18439337D01*
X8790186Y18439334D01*
X8735001Y18272797D01*
X8735001Y18272796D01*
X8735000Y18272796D01*
X8724500Y18170017D01*
X8724500Y18169500D01*
X8724468Y18169395D01*
X8724340Y18166861D01*
X8724179Y18166870D01*
X8724179Y18166868D01*
X8724155Y18166871D01*
X8723734Y18166892D01*
X8704815Y18102461D01*
X8652011Y18056706D01*
X8600500Y18045500D01*
X8574000Y18045500D01*
X8506961Y18065185D01*
X8461206Y18117989D01*
X8450000Y18169500D01*
X8450000Y18210635D01*
X8449999Y18210650D01*
X8447100Y18247490D01*
X8447099Y18247496D01*
X8401283Y18405194D01*
X8401282Y18405197D01*
X8317685Y18546553D01*
X8317678Y18546562D01*
X8201561Y18662679D01*
X8201552Y18662686D01*
X8060198Y18746282D01*
X8022957Y18757101D01*
X7964072Y18794708D01*
X7934865Y18858180D01*
X7944611Y18927367D01*
X7990215Y18980301D01*
X8018548Y18993884D01*
X8069119Y19010642D01*
X8069124Y19010644D01*
X8218345Y19102685D01*
X8342315Y19226655D01*
X8434356Y19375876D01*
X8434359Y19375883D01*
X8482293Y19520539D01*
X8522065Y19577984D01*
X8586581Y19604808D01*
X8655357Y19592493D01*
G37*
%TD.AperFunction*%
%TD*%
%TA.AperFunction,Conductor*%
%TO.N,Net-(J5-Pin_1)*%
G36*
X53972121Y38470998D02*
G01*
X54018614Y38417342D01*
X54030000Y38365000D01*
X54030000Y34072000D01*
X54009998Y34003879D01*
X53956342Y33957386D01*
X53904000Y33946000D01*
X46280000Y33946000D01*
X46211879Y33966002D01*
X46165386Y34019658D01*
X46154000Y34072000D01*
X46154000Y38365000D01*
X46174002Y38433121D01*
X46227658Y38479614D01*
X46280000Y38491000D01*
X53904000Y38491000D01*
X53972121Y38470998D01*
G37*
%TD.AperFunction*%
%TD*%
%TA.AperFunction,Conductor*%
%TO.N,Net-(J5-Pin_2)*%
G36*
X62972121Y43831998D02*
G01*
X63018614Y43778342D01*
X63030000Y43726000D01*
X63030000Y39406000D01*
X63009998Y39337879D01*
X62956342Y39291386D01*
X62904000Y39280000D01*
X46407000Y39280000D01*
X46338879Y39300002D01*
X46292386Y39353658D01*
X46281000Y39406000D01*
X46281000Y43726000D01*
X46301002Y43794121D01*
X46354658Y43840614D01*
X46407000Y43852000D01*
X62904000Y43852000D01*
X62972121Y43831998D01*
G37*
%TD.AperFunction*%
%TD*%
%TA.AperFunction,Conductor*%
%TO.N,Net-(J6-Pin_2)*%
G36*
X59333956Y86461998D02*
G01*
X59380449Y86408342D01*
X59390553Y86338068D01*
X59361059Y86273488D01*
X59320505Y86242478D01*
X59281007Y86223457D01*
X59105446Y86103764D01*
X59105446Y86103763D01*
X59778437Y85430772D01*
X59772374Y85428260D01*
X59633156Y85335238D01*
X59514762Y85216844D01*
X59421740Y85077626D01*
X59419228Y85071563D01*
X58746883Y85743908D01*
X58746881Y85743908D01*
X58697686Y85682220D01*
X58697683Y85682215D01*
X58564069Y85450789D01*
X58564066Y85450781D01*
X58466435Y85202019D01*
X58406970Y84941492D01*
X58387000Y84675000D01*
X58406970Y84408509D01*
X58466435Y84147982D01*
X58564066Y83899220D01*
X58564069Y83899212D01*
X58697682Y83667788D01*
X58697687Y83667780D01*
X58746881Y83606094D01*
X58746883Y83606094D01*
X59419228Y84278439D01*
X59421740Y84272374D01*
X59514762Y84133156D01*
X59633156Y84014762D01*
X59772374Y83921740D01*
X59778436Y83919229D01*
X59105446Y83246239D01*
X59105446Y83246237D01*
X59280990Y83126553D01*
X59280997Y83126549D01*
X59521766Y83010600D01*
X59521778Y83010595D01*
X59777122Y82931832D01*
X59777134Y82931830D01*
X60041387Y82892000D01*
X60308613Y82892000D01*
X60572865Y82931830D01*
X60572877Y82931832D01*
X60828221Y83010595D01*
X60828233Y83010600D01*
X61069002Y83126549D01*
X61069009Y83126553D01*
X61244552Y83246237D01*
X61244552Y83246239D01*
X60571562Y83919229D01*
X60577626Y83921740D01*
X60716844Y84014762D01*
X60835238Y84133156D01*
X60928260Y84272374D01*
X60930771Y84278438D01*
X61603116Y83606093D01*
X61603117Y83606094D01*
X61652312Y83667780D01*
X61652317Y83667788D01*
X61785930Y83899212D01*
X61785933Y83899220D01*
X61883564Y84147982D01*
X61943029Y84408509D01*
X61962999Y84675000D01*
X61943029Y84941492D01*
X61883564Y85202019D01*
X61785933Y85450781D01*
X61785930Y85450789D01*
X61652317Y85682213D01*
X61603116Y85743909D01*
X60930771Y85071564D01*
X60928260Y85077626D01*
X60835238Y85216844D01*
X60716844Y85335238D01*
X60577626Y85428260D01*
X60571562Y85430772D01*
X61244552Y86103763D01*
X61244552Y86103765D01*
X61069002Y86223452D01*
X61068999Y86223454D01*
X61029495Y86242478D01*
X60976799Y86290056D01*
X60958191Y86358571D01*
X60979579Y86426269D01*
X61034172Y86471658D01*
X61084165Y86482000D01*
X62933000Y86482000D01*
X63001121Y86461998D01*
X63047614Y86408342D01*
X63059000Y86356000D01*
X63059000Y81982000D01*
X63038998Y81913879D01*
X62985342Y81867386D01*
X62933000Y81856000D01*
X46336000Y81856000D01*
X46267879Y81876002D01*
X46221386Y81929658D01*
X46210000Y81982000D01*
X46210000Y86356000D01*
X46230002Y86424121D01*
X46283658Y86470614D01*
X46336000Y86482000D01*
X59265835Y86482000D01*
X59333956Y86461998D01*
G37*
%TD.AperFunction*%
%TD*%
%TA.AperFunction,Conductor*%
%TO.N,Net-(J3-Pin_1)*%
G36*
X54001121Y17772998D02*
G01*
X54047614Y17719342D01*
X54059000Y17667000D01*
X54059000Y13347000D01*
X54038998Y13278879D01*
X53985342Y13232386D01*
X53933000Y13221000D01*
X52061148Y13221000D01*
X51993027Y13241002D01*
X51946534Y13294658D01*
X51936430Y13364932D01*
X51965924Y13429512D01*
X52025650Y13467896D01*
X52047678Y13472278D01*
X52059094Y13473506D01*
X52195964Y13524556D01*
X52195965Y13524556D01*
X52312904Y13612096D01*
X52400444Y13729035D01*
X52400444Y13729036D01*
X52451494Y13865907D01*
X52457999Y13926403D01*
X52458000Y13926415D01*
X52458000Y14996000D01*
X51489823Y14996000D01*
X51492335Y15002064D01*
X51525000Y15166282D01*
X51525000Y15333718D01*
X51492335Y15497936D01*
X51489823Y15504000D01*
X52458000Y15504000D01*
X52458000Y16573586D01*
X52457999Y16573598D01*
X52451494Y16634094D01*
X52400444Y16770965D01*
X52400444Y16770966D01*
X52312904Y16887905D01*
X52195965Y16975445D01*
X52059093Y17026495D01*
X51998597Y17033000D01*
X50929000Y17033000D01*
X50929000Y16064824D01*
X50922936Y16067335D01*
X50758718Y16100000D01*
X50591282Y16100000D01*
X50427064Y16067335D01*
X50421000Y16064824D01*
X50421000Y17033000D01*
X49351402Y17033000D01*
X49290906Y17026495D01*
X49154035Y16975445D01*
X49154034Y16975445D01*
X49037095Y16887905D01*
X48949555Y16770966D01*
X48949555Y16770965D01*
X48898505Y16634094D01*
X48892000Y16573598D01*
X48892000Y15504000D01*
X49860177Y15504000D01*
X49857665Y15497936D01*
X49825000Y15333718D01*
X49825000Y15166282D01*
X49857665Y15002064D01*
X49860177Y14996000D01*
X48892000Y14996000D01*
X48892000Y13926403D01*
X48898505Y13865907D01*
X48949555Y13729036D01*
X48949555Y13729035D01*
X49037095Y13612096D01*
X49154034Y13524556D01*
X49290905Y13473506D01*
X49302322Y13472278D01*
X49367914Y13445108D01*
X49408404Y13386790D01*
X49410938Y13315838D01*
X49374710Y13254780D01*
X49311222Y13223002D01*
X49288852Y13221000D01*
X46498000Y13221000D01*
X46429879Y13241002D01*
X46383386Y13294658D01*
X46372000Y13347000D01*
X46372000Y17667000D01*
X46392002Y17735121D01*
X46445658Y17781614D01*
X46498000Y17793000D01*
X53933000Y17793000D01*
X54001121Y17772998D01*
G37*
%TD.AperFunction*%
%TD*%
%TA.AperFunction,Conductor*%
%TO.N,Net-(J4-Pin_2)*%
G36*
X59284722Y65145998D02*
G01*
X59331215Y65092342D01*
X59341319Y65022068D01*
X59311825Y64957488D01*
X59287579Y64935893D01*
X59130446Y64828764D01*
X59130446Y64828763D01*
X59803437Y64155772D01*
X59797374Y64153260D01*
X59658156Y64060238D01*
X59539762Y63941844D01*
X59446740Y63802626D01*
X59444228Y63796563D01*
X58771883Y64468908D01*
X58771881Y64468908D01*
X58722686Y64407220D01*
X58722683Y64407215D01*
X58589069Y64175789D01*
X58589066Y64175781D01*
X58491435Y63927019D01*
X58431970Y63666492D01*
X58412000Y63400000D01*
X58431970Y63133509D01*
X58491435Y62872982D01*
X58589066Y62624220D01*
X58589069Y62624212D01*
X58722682Y62392788D01*
X58722687Y62392780D01*
X58771881Y62331094D01*
X58771883Y62331094D01*
X59444228Y63003439D01*
X59446740Y62997374D01*
X59539762Y62858156D01*
X59658156Y62739762D01*
X59797374Y62646740D01*
X59803436Y62644229D01*
X59130446Y61971239D01*
X59130446Y61971237D01*
X59305990Y61851553D01*
X59305997Y61851549D01*
X59546766Y61735600D01*
X59546778Y61735595D01*
X59802122Y61656832D01*
X59802134Y61656830D01*
X60066387Y61617000D01*
X60333613Y61617000D01*
X60597865Y61656830D01*
X60597877Y61656832D01*
X60853221Y61735595D01*
X60853233Y61735600D01*
X61094002Y61851549D01*
X61094009Y61851553D01*
X61269552Y61971237D01*
X61269552Y61971239D01*
X60596562Y62644229D01*
X60602626Y62646740D01*
X60741844Y62739762D01*
X60860238Y62858156D01*
X60953260Y62997374D01*
X60955771Y63003438D01*
X61628116Y62331093D01*
X61628117Y62331094D01*
X61677312Y62392780D01*
X61677317Y62392788D01*
X61810930Y62624212D01*
X61810933Y62624220D01*
X61908564Y62872982D01*
X61968029Y63133509D01*
X61987999Y63400000D01*
X61968029Y63666492D01*
X61908564Y63927019D01*
X61810933Y64175781D01*
X61810930Y64175789D01*
X61677317Y64407213D01*
X61628116Y64468909D01*
X60955771Y63796564D01*
X60953260Y63802626D01*
X60860238Y63941844D01*
X60741844Y64060238D01*
X60602626Y64153260D01*
X60596562Y64155772D01*
X61269552Y64828763D01*
X61269552Y64828765D01*
X61112421Y64935894D01*
X61067404Y64990794D01*
X61059215Y65061316D01*
X61090453Y65125071D01*
X61151201Y65161817D01*
X61183399Y65166000D01*
X62904000Y65166000D01*
X62972121Y65145998D01*
X63018614Y65092342D01*
X63030000Y65040000D01*
X63030000Y60693000D01*
X63009998Y60624879D01*
X62956342Y60578386D01*
X62904000Y60567000D01*
X46234000Y60567000D01*
X46165879Y60587002D01*
X46119386Y60640658D01*
X46108000Y60693000D01*
X46108000Y65040000D01*
X46128002Y65108121D01*
X46181658Y65154614D01*
X46234000Y65166000D01*
X59216601Y65166000D01*
X59284722Y65145998D01*
G37*
%TD.AperFunction*%
%TD*%
%TA.AperFunction,Conductor*%
%TO.N,Net-(J4-Pin_1)*%
G36*
X53972121Y59784998D02*
G01*
X54018614Y59731342D01*
X54030000Y59679000D01*
X54030000Y55359000D01*
X54009998Y55290879D01*
X53956342Y55244386D01*
X53904000Y55233000D01*
X52455551Y55233000D01*
X52387430Y55253002D01*
X52340937Y55306658D01*
X52330833Y55376932D01*
X52354683Y55434509D01*
X52425444Y55529035D01*
X52425444Y55529036D01*
X52476494Y55665907D01*
X52482999Y55726403D01*
X52483000Y55726415D01*
X52483000Y56796000D01*
X51514823Y56796000D01*
X51517335Y56802064D01*
X51550000Y56966282D01*
X51550000Y57133718D01*
X51517335Y57297936D01*
X51514823Y57304000D01*
X52483000Y57304000D01*
X52483000Y58373586D01*
X52482999Y58373598D01*
X52476494Y58434094D01*
X52425444Y58570965D01*
X52425444Y58570966D01*
X52337904Y58687905D01*
X52220965Y58775445D01*
X52084093Y58826495D01*
X52023597Y58833000D01*
X50954000Y58833000D01*
X50954000Y57864824D01*
X50947936Y57867335D01*
X50783718Y57900000D01*
X50616282Y57900000D01*
X50452064Y57867335D01*
X50446000Y57864824D01*
X50446000Y58833000D01*
X49376402Y58833000D01*
X49315906Y58826495D01*
X49179035Y58775445D01*
X49179034Y58775445D01*
X49062095Y58687905D01*
X48974555Y58570966D01*
X48974555Y58570965D01*
X48923505Y58434094D01*
X48917000Y58373598D01*
X48917000Y57304000D01*
X49885177Y57304000D01*
X49882665Y57297936D01*
X49850000Y57133718D01*
X49850000Y56966282D01*
X49882665Y56802064D01*
X49885177Y56796000D01*
X48917000Y56796000D01*
X48917000Y55726403D01*
X48923505Y55665907D01*
X48974555Y55529036D01*
X48974555Y55529035D01*
X49045317Y55434509D01*
X49070128Y55367989D01*
X49055037Y55298615D01*
X49004834Y55248413D01*
X48944449Y55233000D01*
X46361000Y55233000D01*
X46292879Y55253002D01*
X46246386Y55306658D01*
X46235000Y55359000D01*
X46235000Y59679000D01*
X46255002Y59747121D01*
X46308658Y59793614D01*
X46361000Y59805000D01*
X53904000Y59805000D01*
X53972121Y59784998D01*
G37*
%TD.AperFunction*%
%TD*%
%TA.AperFunction,Conductor*%
%TO.N,Net-(J3-Pin_2)*%
G36*
X59055844Y23206998D02*
G01*
X59102337Y23153342D01*
X59112441Y23083068D01*
X59110047Y23077828D01*
X59105446Y23028763D01*
X59778437Y22355772D01*
X59772374Y22353260D01*
X59633156Y22260238D01*
X59514762Y22141844D01*
X59421740Y22002626D01*
X59419228Y21996563D01*
X58746883Y22668908D01*
X58746881Y22668908D01*
X58697686Y22607220D01*
X58697683Y22607215D01*
X58564069Y22375789D01*
X58564066Y22375781D01*
X58466435Y22127019D01*
X58406970Y21866492D01*
X58387000Y21600000D01*
X58406970Y21333509D01*
X58466435Y21072982D01*
X58564066Y20824220D01*
X58564069Y20824212D01*
X58697682Y20592788D01*
X58697687Y20592780D01*
X58746881Y20531094D01*
X58746883Y20531094D01*
X59419228Y21203439D01*
X59421740Y21197374D01*
X59514762Y21058156D01*
X59633156Y20939762D01*
X59772374Y20846740D01*
X59778436Y20844229D01*
X59105446Y20171239D01*
X59105446Y20171237D01*
X59280990Y20051553D01*
X59280997Y20051549D01*
X59521766Y19935600D01*
X59521778Y19935595D01*
X59777122Y19856832D01*
X59777134Y19856830D01*
X60041387Y19817000D01*
X60308613Y19817000D01*
X60572865Y19856830D01*
X60572877Y19856832D01*
X60828221Y19935595D01*
X60828233Y19935600D01*
X61069002Y20051549D01*
X61069009Y20051553D01*
X61244552Y20171237D01*
X61244552Y20171239D01*
X60571562Y20844229D01*
X60577626Y20846740D01*
X60716844Y20939762D01*
X60835238Y21058156D01*
X60928260Y21197374D01*
X60930771Y21203438D01*
X61603116Y20531093D01*
X61603117Y20531094D01*
X61652312Y20592780D01*
X61652317Y20592788D01*
X61785930Y20824212D01*
X61785933Y20824220D01*
X61883564Y21072982D01*
X61943029Y21333509D01*
X61962999Y21600000D01*
X61943029Y21866492D01*
X61883564Y22127019D01*
X61785933Y22375781D01*
X61785930Y22375789D01*
X61652317Y22607213D01*
X61603116Y22668909D01*
X60930771Y21996564D01*
X60928260Y22002626D01*
X60835238Y22141844D01*
X60716844Y22260238D01*
X60577626Y22353260D01*
X60571562Y22355772D01*
X61244552Y23028763D01*
X61239022Y23087739D01*
X61242073Y23088026D01*
X61238091Y23122309D01*
X61269325Y23186066D01*
X61330071Y23222815D01*
X61362276Y23227000D01*
X62933000Y23227000D01*
X63001121Y23206998D01*
X63047614Y23153342D01*
X63059000Y23101000D01*
X63059000Y18681000D01*
X63038998Y18612879D01*
X62985342Y18566386D01*
X62933000Y18555000D01*
X46498000Y18555000D01*
X46429879Y18575002D01*
X46383386Y18628658D01*
X46372000Y18681000D01*
X46372000Y23101000D01*
X46392002Y23169121D01*
X46445658Y23215614D01*
X46498000Y23227000D01*
X58987723Y23227000D01*
X59055844Y23206998D01*
G37*
%TD.AperFunction*%
%TD*%
%TA.AperFunction,Conductor*%
%TO.N,Net-(J6-Pin_1)*%
G36*
X54001121Y81127998D02*
G01*
X54047614Y81074342D01*
X54059000Y81022000D01*
X54059000Y76648000D01*
X54038998Y76579879D01*
X53985342Y76533386D01*
X53933000Y76522000D01*
X52441031Y76522000D01*
X52372910Y76542002D01*
X52326417Y76595658D01*
X52316313Y76665932D01*
X52340163Y76723509D01*
X52400444Y76804035D01*
X52400444Y76804036D01*
X52451494Y76940907D01*
X52457999Y77001403D01*
X52458000Y77001415D01*
X52458000Y78071000D01*
X51489823Y78071000D01*
X51492335Y78077064D01*
X51525000Y78241282D01*
X51525000Y78408718D01*
X51492335Y78572936D01*
X51489823Y78579000D01*
X52458000Y78579000D01*
X52458000Y79648586D01*
X52457999Y79648598D01*
X52451494Y79709094D01*
X52400444Y79845965D01*
X52400444Y79845966D01*
X52312904Y79962905D01*
X52195965Y80050445D01*
X52059093Y80101495D01*
X51998597Y80108000D01*
X50929000Y80108000D01*
X50929000Y79139824D01*
X50922936Y79142335D01*
X50758718Y79175000D01*
X50591282Y79175000D01*
X50427064Y79142335D01*
X50421000Y79139824D01*
X50421000Y80108000D01*
X49351402Y80108000D01*
X49290906Y80101495D01*
X49154035Y80050445D01*
X49154034Y80050445D01*
X49037095Y79962905D01*
X48949555Y79845966D01*
X48949555Y79845965D01*
X48898505Y79709094D01*
X48892000Y79648598D01*
X48892000Y78579000D01*
X49860177Y78579000D01*
X49857665Y78572936D01*
X49825000Y78408718D01*
X49825000Y78241282D01*
X49857665Y78077064D01*
X49860177Y78071000D01*
X48892000Y78071000D01*
X48892000Y77001403D01*
X48898505Y76940907D01*
X48949555Y76804036D01*
X48949555Y76804035D01*
X49009837Y76723509D01*
X49034648Y76656989D01*
X49019557Y76587615D01*
X48969355Y76537413D01*
X48908969Y76522000D01*
X46336000Y76522000D01*
X46267879Y76542002D01*
X46221386Y76595658D01*
X46210000Y76648000D01*
X46210000Y81022000D01*
X46230002Y81090121D01*
X46283658Y81136614D01*
X46336000Y81148000D01*
X53933000Y81148000D01*
X54001121Y81127998D01*
G37*
%TD.AperFunction*%
%TD*%
M02*
