%TF.GenerationSoftware,KiCad,Pcbnew,8.0.5*%
%TF.CreationDate,2024-09-27T10:22:32-04:00*%
%TF.ProjectId,BREAD_Slice,42524541-445f-4536-9c69-63652e6b6963,rev?*%
%TF.SameCoordinates,PX74eba40PY8552dc0*%
%TF.FileFunction,Legend,Bot*%
%TF.FilePolarity,Positive*%
%FSLAX46Y46*%
G04 Gerber Fmt 4.6, Leading zero omitted, Abs format (unit mm)*
G04 Created by KiCad (PCBNEW 8.0.5) date 2024-09-27 10:22:32*
%MOMM*%
%LPD*%
G01*
G04 APERTURE LIST*
%ADD10C,0.120000*%
%ADD11C,0.150000*%
G04 APERTURE END LIST*
D10*
X2450000Y26913000D02*
X3770000Y26913000D01*
X4250000Y26913000D02*
X5570000Y26913000D01*
X6050000Y26913000D02*
X7370000Y26913000D01*
X7850000Y26913000D02*
X9170000Y26913000D01*
X9650000Y26913000D02*
X10970000Y26913000D01*
X11450000Y26913000D02*
X12770000Y26913000D01*
X13250000Y26913000D02*
X14570000Y26913000D01*
X15050000Y26913000D02*
X16150000Y26913000D01*
X16150000Y26913000D02*
X16150000Y25593000D01*
X16150000Y25113000D02*
X16150000Y23793000D01*
X16150000Y23313000D02*
X16150000Y21993000D01*
X16150000Y21513000D02*
X16150000Y20193000D01*
X16150000Y19713000D02*
X16150000Y18393000D01*
X16150000Y17913000D02*
X16150000Y16593000D01*
X16150000Y16113000D02*
X16150000Y14793000D01*
X16150000Y14313000D02*
X16150000Y12993000D01*
X16150000Y12513000D02*
X16150000Y11193000D01*
X16150000Y10713000D02*
X16150000Y10445000D01*
X16150000Y10445000D02*
X14830000Y10445000D01*
X14350000Y10445000D02*
X13030000Y10445000D01*
X12550000Y10445000D02*
X11230000Y10445000D01*
X10750000Y10445000D02*
X9430000Y10445000D01*
X8950000Y10445000D02*
X7630000Y10445000D01*
X7150000Y10445000D02*
X5830000Y10445000D01*
X5350000Y10445000D02*
X4030000Y10445000D01*
X3550000Y10445000D02*
X2450000Y10445000D01*
X2450000Y10445000D02*
X2450000Y11765000D01*
X2450000Y12245000D02*
X2450000Y13565000D01*
X2450000Y14045000D02*
X2450000Y15365000D01*
X2450000Y15845000D02*
X2450000Y17165000D01*
X2450000Y17645000D02*
X2450000Y18965000D01*
X2450000Y19445000D02*
X2450000Y20765000D01*
X2450000Y21245000D02*
X2450000Y22565000D01*
X2450000Y23045000D02*
X2450000Y24365000D01*
X2450000Y24845000D02*
X2450000Y26165000D01*
X2450000Y26645000D02*
X2450000Y26913000D01*
D11*
X13773809Y25375181D02*
X14345237Y25375181D01*
X14059523Y25375181D02*
X14059523Y26375181D01*
X14059523Y26375181D02*
X14154761Y26232324D01*
X14154761Y26232324D02*
X14249999Y26137086D01*
X14249999Y26137086D02*
X14345237Y26089467D01*
X13392856Y26279943D02*
X13345237Y26327562D01*
X13345237Y26327562D02*
X13249999Y26375181D01*
X13249999Y26375181D02*
X13011904Y26375181D01*
X13011904Y26375181D02*
X12916666Y26327562D01*
X12916666Y26327562D02*
X12869047Y26279943D01*
X12869047Y26279943D02*
X12821428Y26184705D01*
X12821428Y26184705D02*
X12821428Y26089467D01*
X12821428Y26089467D02*
X12869047Y25946610D01*
X12869047Y25946610D02*
X13440475Y25375181D01*
X13440475Y25375181D02*
X12821428Y25375181D01*
X12535713Y26375181D02*
X12202380Y25375181D01*
X12202380Y25375181D02*
X11869047Y26375181D01*
X11535713Y25756134D02*
X10773809Y25756134D01*
X10297618Y26041848D02*
X9535714Y25756134D01*
X9535714Y25756134D02*
X10297618Y25470420D01*
X8583333Y26375181D02*
X9059523Y26375181D01*
X9059523Y26375181D02*
X9107142Y25898991D01*
X9107142Y25898991D02*
X9059523Y25946610D01*
X9059523Y25946610D02*
X8964285Y25994229D01*
X8964285Y25994229D02*
X8726190Y25994229D01*
X8726190Y25994229D02*
X8630952Y25946610D01*
X8630952Y25946610D02*
X8583333Y25898991D01*
X8583333Y25898991D02*
X8535714Y25803753D01*
X8535714Y25803753D02*
X8535714Y25565658D01*
X8535714Y25565658D02*
X8583333Y25470420D01*
X8583333Y25470420D02*
X8630952Y25422800D01*
X8630952Y25422800D02*
X8726190Y25375181D01*
X8726190Y25375181D02*
X8964285Y25375181D01*
X8964285Y25375181D02*
X9059523Y25422800D01*
X9059523Y25422800D02*
X9107142Y25470420D01*
X8249999Y26375181D02*
X7916666Y25375181D01*
X7916666Y25375181D02*
X7583333Y26375181D01*
X5916666Y25375181D02*
X6249999Y25851372D01*
X6488094Y25375181D02*
X6488094Y26375181D01*
X6488094Y26375181D02*
X6107142Y26375181D01*
X6107142Y26375181D02*
X6011904Y26327562D01*
X6011904Y26327562D02*
X5964285Y26279943D01*
X5964285Y26279943D02*
X5916666Y26184705D01*
X5916666Y26184705D02*
X5916666Y26041848D01*
X5916666Y26041848D02*
X5964285Y25946610D01*
X5964285Y25946610D02*
X6011904Y25898991D01*
X6011904Y25898991D02*
X6107142Y25851372D01*
X6107142Y25851372D02*
X6488094Y25851372D01*
X5107142Y25422800D02*
X5202380Y25375181D01*
X5202380Y25375181D02*
X5392856Y25375181D01*
X5392856Y25375181D02*
X5488094Y25422800D01*
X5488094Y25422800D02*
X5535713Y25518039D01*
X5535713Y25518039D02*
X5535713Y25898991D01*
X5535713Y25898991D02*
X5488094Y25994229D01*
X5488094Y25994229D02*
X5392856Y26041848D01*
X5392856Y26041848D02*
X5202380Y26041848D01*
X5202380Y26041848D02*
X5107142Y25994229D01*
X5107142Y25994229D02*
X5059523Y25898991D01*
X5059523Y25898991D02*
X5059523Y25803753D01*
X5059523Y25803753D02*
X5535713Y25708515D01*
X4202380Y26041848D02*
X4202380Y25232324D01*
X4202380Y25232324D02*
X4249999Y25137086D01*
X4249999Y25137086D02*
X4297618Y25089467D01*
X4297618Y25089467D02*
X4392856Y25041848D01*
X4392856Y25041848D02*
X4535713Y25041848D01*
X4535713Y25041848D02*
X4630951Y25089467D01*
X4202380Y25422800D02*
X4297618Y25375181D01*
X4297618Y25375181D02*
X4488094Y25375181D01*
X4488094Y25375181D02*
X4583332Y25422800D01*
X4583332Y25422800D02*
X4630951Y25470420D01*
X4630951Y25470420D02*
X4678570Y25565658D01*
X4678570Y25565658D02*
X4678570Y25851372D01*
X4678570Y25851372D02*
X4630951Y25946610D01*
X4630951Y25946610D02*
X4583332Y25994229D01*
X4583332Y25994229D02*
X4488094Y26041848D01*
X4488094Y26041848D02*
X4297618Y26041848D01*
X4297618Y26041848D02*
X4202380Y25994229D01*
X29764666Y10740125D02*
X30240856Y10740125D01*
X30240856Y10740125D02*
X30288475Y10263935D01*
X30288475Y10263935D02*
X30240856Y10311554D01*
X30240856Y10311554D02*
X30145618Y10359173D01*
X30145618Y10359173D02*
X29907523Y10359173D01*
X29907523Y10359173D02*
X29812285Y10311554D01*
X29812285Y10311554D02*
X29764666Y10263935D01*
X29764666Y10263935D02*
X29717047Y10168697D01*
X29717047Y10168697D02*
X29717047Y9930602D01*
X29717047Y9930602D02*
X29764666Y9835364D01*
X29764666Y9835364D02*
X29812285Y9787744D01*
X29812285Y9787744D02*
X29907523Y9740125D01*
X29907523Y9740125D02*
X30145618Y9740125D01*
X30145618Y9740125D02*
X30240856Y9787744D01*
X30240856Y9787744D02*
X30288475Y9835364D01*
X29431332Y10740125D02*
X29097999Y9740125D01*
X29097999Y9740125D02*
X28764666Y10740125D01*
X27669427Y9740125D02*
X27669427Y10740125D01*
X27240856Y10644887D02*
X27193237Y10692506D01*
X27193237Y10692506D02*
X27097999Y10740125D01*
X27097999Y10740125D02*
X26859904Y10740125D01*
X26859904Y10740125D02*
X26764666Y10692506D01*
X26764666Y10692506D02*
X26717047Y10644887D01*
X26717047Y10644887D02*
X26669428Y10549649D01*
X26669428Y10549649D02*
X26669428Y10454411D01*
X26669428Y10454411D02*
X26717047Y10311554D01*
X26717047Y10311554D02*
X27288475Y9740125D01*
X27288475Y9740125D02*
X26669428Y9740125D01*
X25669428Y9835364D02*
X25717047Y9787744D01*
X25717047Y9787744D02*
X25859904Y9740125D01*
X25859904Y9740125D02*
X25955142Y9740125D01*
X25955142Y9740125D02*
X26097999Y9787744D01*
X26097999Y9787744D02*
X26193237Y9882983D01*
X26193237Y9882983D02*
X26240856Y9978221D01*
X26240856Y9978221D02*
X26288475Y10168697D01*
X26288475Y10168697D02*
X26288475Y10311554D01*
X26288475Y10311554D02*
X26240856Y10502030D01*
X26240856Y10502030D02*
X26193237Y10597268D01*
X26193237Y10597268D02*
X26097999Y10692506D01*
X26097999Y10692506D02*
X25955142Y10740125D01*
X25955142Y10740125D02*
X25859904Y10740125D01*
X25859904Y10740125D02*
X25717047Y10692506D01*
X25717047Y10692506D02*
X25669428Y10644887D01*
X30550381Y8225420D02*
X30598000Y8177800D01*
X30598000Y8177800D02*
X30740857Y8130181D01*
X30740857Y8130181D02*
X30836095Y8130181D01*
X30836095Y8130181D02*
X30978952Y8177800D01*
X30978952Y8177800D02*
X31074190Y8273039D01*
X31074190Y8273039D02*
X31121809Y8368277D01*
X31121809Y8368277D02*
X31169428Y8558753D01*
X31169428Y8558753D02*
X31169428Y8701610D01*
X31169428Y8701610D02*
X31121809Y8892086D01*
X31121809Y8892086D02*
X31074190Y8987324D01*
X31074190Y8987324D02*
X30978952Y9082562D01*
X30978952Y9082562D02*
X30836095Y9130181D01*
X30836095Y9130181D02*
X30740857Y9130181D01*
X30740857Y9130181D02*
X30598000Y9082562D01*
X30598000Y9082562D02*
X30550381Y9034943D01*
X29978952Y8130181D02*
X30074190Y8177800D01*
X30074190Y8177800D02*
X30121809Y8225420D01*
X30121809Y8225420D02*
X30169428Y8320658D01*
X30169428Y8320658D02*
X30169428Y8606372D01*
X30169428Y8606372D02*
X30121809Y8701610D01*
X30121809Y8701610D02*
X30074190Y8749229D01*
X30074190Y8749229D02*
X29978952Y8796848D01*
X29978952Y8796848D02*
X29836095Y8796848D01*
X29836095Y8796848D02*
X29740857Y8749229D01*
X29740857Y8749229D02*
X29693238Y8701610D01*
X29693238Y8701610D02*
X29645619Y8606372D01*
X29645619Y8606372D02*
X29645619Y8320658D01*
X29645619Y8320658D02*
X29693238Y8225420D01*
X29693238Y8225420D02*
X29740857Y8177800D01*
X29740857Y8177800D02*
X29836095Y8130181D01*
X29836095Y8130181D02*
X29978952Y8130181D01*
X29217047Y8796848D02*
X29217047Y8130181D01*
X29217047Y8701610D02*
X29169428Y8749229D01*
X29169428Y8749229D02*
X29074190Y8796848D01*
X29074190Y8796848D02*
X28931333Y8796848D01*
X28931333Y8796848D02*
X28836095Y8749229D01*
X28836095Y8749229D02*
X28788476Y8653991D01*
X28788476Y8653991D02*
X28788476Y8130181D01*
X28312285Y8796848D02*
X28312285Y8130181D01*
X28312285Y8701610D02*
X28264666Y8749229D01*
X28264666Y8749229D02*
X28169428Y8796848D01*
X28169428Y8796848D02*
X28026571Y8796848D01*
X28026571Y8796848D02*
X27931333Y8749229D01*
X27931333Y8749229D02*
X27883714Y8653991D01*
X27883714Y8653991D02*
X27883714Y8130181D01*
X27026571Y8177800D02*
X27121809Y8130181D01*
X27121809Y8130181D02*
X27312285Y8130181D01*
X27312285Y8130181D02*
X27407523Y8177800D01*
X27407523Y8177800D02*
X27455142Y8273039D01*
X27455142Y8273039D02*
X27455142Y8653991D01*
X27455142Y8653991D02*
X27407523Y8749229D01*
X27407523Y8749229D02*
X27312285Y8796848D01*
X27312285Y8796848D02*
X27121809Y8796848D01*
X27121809Y8796848D02*
X27026571Y8749229D01*
X27026571Y8749229D02*
X26978952Y8653991D01*
X26978952Y8653991D02*
X26978952Y8558753D01*
X26978952Y8558753D02*
X27455142Y8463515D01*
X26121809Y8177800D02*
X26217047Y8130181D01*
X26217047Y8130181D02*
X26407523Y8130181D01*
X26407523Y8130181D02*
X26502761Y8177800D01*
X26502761Y8177800D02*
X26550380Y8225420D01*
X26550380Y8225420D02*
X26597999Y8320658D01*
X26597999Y8320658D02*
X26597999Y8606372D01*
X26597999Y8606372D02*
X26550380Y8701610D01*
X26550380Y8701610D02*
X26502761Y8749229D01*
X26502761Y8749229D02*
X26407523Y8796848D01*
X26407523Y8796848D02*
X26217047Y8796848D01*
X26217047Y8796848D02*
X26121809Y8749229D01*
X25836094Y8796848D02*
X25455142Y8796848D01*
X25693237Y9130181D02*
X25693237Y8273039D01*
X25693237Y8273039D02*
X25645618Y8177800D01*
X25645618Y8177800D02*
X25550380Y8130181D01*
X25550380Y8130181D02*
X25455142Y8130181D01*
X24978951Y8130181D02*
X25074189Y8177800D01*
X25074189Y8177800D02*
X25121808Y8225420D01*
X25121808Y8225420D02*
X25169427Y8320658D01*
X25169427Y8320658D02*
X25169427Y8606372D01*
X25169427Y8606372D02*
X25121808Y8701610D01*
X25121808Y8701610D02*
X25074189Y8749229D01*
X25074189Y8749229D02*
X24978951Y8796848D01*
X24978951Y8796848D02*
X24836094Y8796848D01*
X24836094Y8796848D02*
X24740856Y8749229D01*
X24740856Y8749229D02*
X24693237Y8701610D01*
X24693237Y8701610D02*
X24645618Y8606372D01*
X24645618Y8606372D02*
X24645618Y8320658D01*
X24645618Y8320658D02*
X24693237Y8225420D01*
X24693237Y8225420D02*
X24740856Y8177800D01*
X24740856Y8177800D02*
X24836094Y8130181D01*
X24836094Y8130181D02*
X24978951Y8130181D01*
X24217046Y8130181D02*
X24217046Y8796848D01*
X24217046Y8606372D02*
X24169427Y8701610D01*
X24169427Y8701610D02*
X24121808Y8749229D01*
X24121808Y8749229D02*
X24026570Y8796848D01*
X24026570Y8796848D02*
X23931332Y8796848D01*
X27921333Y2245181D02*
X27921333Y1530896D01*
X27921333Y1530896D02*
X27968952Y1388039D01*
X27968952Y1388039D02*
X28064190Y1292800D01*
X28064190Y1292800D02*
X28207047Y1245181D01*
X28207047Y1245181D02*
X28302285Y1245181D01*
X26921333Y1245181D02*
X27492761Y1245181D01*
X27207047Y1245181D02*
X27207047Y2245181D01*
X27207047Y2245181D02*
X27302285Y2102324D01*
X27302285Y2102324D02*
X27397523Y2007086D01*
X27397523Y2007086D02*
X27492761Y1959467D01*
X43740904Y45544181D02*
X43740904Y44734658D01*
X43740904Y44734658D02*
X43693285Y44639420D01*
X43693285Y44639420D02*
X43645666Y44591800D01*
X43645666Y44591800D02*
X43550428Y44544181D01*
X43550428Y44544181D02*
X43359952Y44544181D01*
X43359952Y44544181D02*
X43264714Y44591800D01*
X43264714Y44591800D02*
X43217095Y44639420D01*
X43217095Y44639420D02*
X43169476Y44734658D01*
X43169476Y44734658D02*
X43169476Y45544181D01*
X42264714Y45210848D02*
X42264714Y44544181D01*
X42502809Y45591800D02*
X42740904Y44877515D01*
X42740904Y44877515D02*
X42121857Y44877515D01*
X6116666Y21835420D02*
X6164285Y21787800D01*
X6164285Y21787800D02*
X6307142Y21740181D01*
X6307142Y21740181D02*
X6402380Y21740181D01*
X6402380Y21740181D02*
X6545237Y21787800D01*
X6545237Y21787800D02*
X6640475Y21883039D01*
X6640475Y21883039D02*
X6688094Y21978277D01*
X6688094Y21978277D02*
X6735713Y22168753D01*
X6735713Y22168753D02*
X6735713Y22311610D01*
X6735713Y22311610D02*
X6688094Y22502086D01*
X6688094Y22502086D02*
X6640475Y22597324D01*
X6640475Y22597324D02*
X6545237Y22692562D01*
X6545237Y22692562D02*
X6402380Y22740181D01*
X6402380Y22740181D02*
X6307142Y22740181D01*
X6307142Y22740181D02*
X6164285Y22692562D01*
X6164285Y22692562D02*
X6116666Y22644943D01*
X5164285Y21740181D02*
X5735713Y21740181D01*
X5449999Y21740181D02*
X5449999Y22740181D01*
X5449999Y22740181D02*
X5545237Y22597324D01*
X5545237Y22597324D02*
X5640475Y22502086D01*
X5640475Y22502086D02*
X5735713Y22454467D01*
X43666904Y88146181D02*
X43666904Y87336658D01*
X43666904Y87336658D02*
X43619285Y87241420D01*
X43619285Y87241420D02*
X43571666Y87193800D01*
X43571666Y87193800D02*
X43476428Y87146181D01*
X43476428Y87146181D02*
X43285952Y87146181D01*
X43285952Y87146181D02*
X43190714Y87193800D01*
X43190714Y87193800D02*
X43143095Y87241420D01*
X43143095Y87241420D02*
X43095476Y87336658D01*
X43095476Y87336658D02*
X43095476Y88146181D01*
X42143095Y88146181D02*
X42619285Y88146181D01*
X42619285Y88146181D02*
X42666904Y87669991D01*
X42666904Y87669991D02*
X42619285Y87717610D01*
X42619285Y87717610D02*
X42524047Y87765229D01*
X42524047Y87765229D02*
X42285952Y87765229D01*
X42285952Y87765229D02*
X42190714Y87717610D01*
X42190714Y87717610D02*
X42143095Y87669991D01*
X42143095Y87669991D02*
X42095476Y87574753D01*
X42095476Y87574753D02*
X42095476Y87336658D01*
X42095476Y87336658D02*
X42143095Y87241420D01*
X42143095Y87241420D02*
X42190714Y87193800D01*
X42190714Y87193800D02*
X42285952Y87146181D01*
X42285952Y87146181D02*
X42524047Y87146181D01*
X42524047Y87146181D02*
X42619285Y87193800D01*
X42619285Y87193800D02*
X42666904Y87241420D01*
X6911904Y15190181D02*
X6911904Y14380658D01*
X6911904Y14380658D02*
X6864285Y14285420D01*
X6864285Y14285420D02*
X6816666Y14237800D01*
X6816666Y14237800D02*
X6721428Y14190181D01*
X6721428Y14190181D02*
X6530952Y14190181D01*
X6530952Y14190181D02*
X6435714Y14237800D01*
X6435714Y14237800D02*
X6388095Y14285420D01*
X6388095Y14285420D02*
X6340476Y14380658D01*
X6340476Y14380658D02*
X6340476Y15190181D01*
X5340476Y14190181D02*
X5911904Y14190181D01*
X5626190Y14190181D02*
X5626190Y15190181D01*
X5626190Y15190181D02*
X5721428Y15047324D01*
X5721428Y15047324D02*
X5816666Y14952086D01*
X5816666Y14952086D02*
X5911904Y14904467D01*
X8716666Y15035420D02*
X8764285Y14987800D01*
X8764285Y14987800D02*
X8907142Y14940181D01*
X8907142Y14940181D02*
X9002380Y14940181D01*
X9002380Y14940181D02*
X9145237Y14987800D01*
X9145237Y14987800D02*
X9240475Y15083039D01*
X9240475Y15083039D02*
X9288094Y15178277D01*
X9288094Y15178277D02*
X9335713Y15368753D01*
X9335713Y15368753D02*
X9335713Y15511610D01*
X9335713Y15511610D02*
X9288094Y15702086D01*
X9288094Y15702086D02*
X9240475Y15797324D01*
X9240475Y15797324D02*
X9145237Y15892562D01*
X9145237Y15892562D02*
X9002380Y15940181D01*
X9002380Y15940181D02*
X8907142Y15940181D01*
X8907142Y15940181D02*
X8764285Y15892562D01*
X8764285Y15892562D02*
X8716666Y15844943D01*
X8335713Y15844943D02*
X8288094Y15892562D01*
X8288094Y15892562D02*
X8192856Y15940181D01*
X8192856Y15940181D02*
X7954761Y15940181D01*
X7954761Y15940181D02*
X7859523Y15892562D01*
X7859523Y15892562D02*
X7811904Y15844943D01*
X7811904Y15844943D02*
X7764285Y15749705D01*
X7764285Y15749705D02*
X7764285Y15654467D01*
X7764285Y15654467D02*
X7811904Y15511610D01*
X7811904Y15511610D02*
X8383332Y14940181D01*
X8383332Y14940181D02*
X7764285Y14940181D01*
X11416666Y18135420D02*
X11464285Y18087800D01*
X11464285Y18087800D02*
X11607142Y18040181D01*
X11607142Y18040181D02*
X11702380Y18040181D01*
X11702380Y18040181D02*
X11845237Y18087800D01*
X11845237Y18087800D02*
X11940475Y18183039D01*
X11940475Y18183039D02*
X11988094Y18278277D01*
X11988094Y18278277D02*
X12035713Y18468753D01*
X12035713Y18468753D02*
X12035713Y18611610D01*
X12035713Y18611610D02*
X11988094Y18802086D01*
X11988094Y18802086D02*
X11940475Y18897324D01*
X11940475Y18897324D02*
X11845237Y18992562D01*
X11845237Y18992562D02*
X11702380Y19040181D01*
X11702380Y19040181D02*
X11607142Y19040181D01*
X11607142Y19040181D02*
X11464285Y18992562D01*
X11464285Y18992562D02*
X11416666Y18944943D01*
X11083332Y19040181D02*
X10464285Y19040181D01*
X10464285Y19040181D02*
X10797618Y18659229D01*
X10797618Y18659229D02*
X10654761Y18659229D01*
X10654761Y18659229D02*
X10559523Y18611610D01*
X10559523Y18611610D02*
X10511904Y18563991D01*
X10511904Y18563991D02*
X10464285Y18468753D01*
X10464285Y18468753D02*
X10464285Y18230658D01*
X10464285Y18230658D02*
X10511904Y18135420D01*
X10511904Y18135420D02*
X10559523Y18087800D01*
X10559523Y18087800D02*
X10654761Y18040181D01*
X10654761Y18040181D02*
X10940475Y18040181D01*
X10940475Y18040181D02*
X11035713Y18087800D01*
X11035713Y18087800D02*
X11083332Y18135420D01*
X43741904Y66816181D02*
X43741904Y66006658D01*
X43741904Y66006658D02*
X43694285Y65911420D01*
X43694285Y65911420D02*
X43646666Y65863800D01*
X43646666Y65863800D02*
X43551428Y65816181D01*
X43551428Y65816181D02*
X43360952Y65816181D01*
X43360952Y65816181D02*
X43265714Y65863800D01*
X43265714Y65863800D02*
X43218095Y65911420D01*
X43218095Y65911420D02*
X43170476Y66006658D01*
X43170476Y66006658D02*
X43170476Y66816181D01*
X42789523Y66816181D02*
X42170476Y66816181D01*
X42170476Y66816181D02*
X42503809Y66435229D01*
X42503809Y66435229D02*
X42360952Y66435229D01*
X42360952Y66435229D02*
X42265714Y66387610D01*
X42265714Y66387610D02*
X42218095Y66339991D01*
X42218095Y66339991D02*
X42170476Y66244753D01*
X42170476Y66244753D02*
X42170476Y66006658D01*
X42170476Y66006658D02*
X42218095Y65911420D01*
X42218095Y65911420D02*
X42265714Y65863800D01*
X42265714Y65863800D02*
X42360952Y65816181D01*
X42360952Y65816181D02*
X42646666Y65816181D01*
X42646666Y65816181D02*
X42741904Y65863800D01*
X42741904Y65863800D02*
X42789523Y65911420D01*
X11416666Y21135420D02*
X11464285Y21087800D01*
X11464285Y21087800D02*
X11607142Y21040181D01*
X11607142Y21040181D02*
X11702380Y21040181D01*
X11702380Y21040181D02*
X11845237Y21087800D01*
X11845237Y21087800D02*
X11940475Y21183039D01*
X11940475Y21183039D02*
X11988094Y21278277D01*
X11988094Y21278277D02*
X12035713Y21468753D01*
X12035713Y21468753D02*
X12035713Y21611610D01*
X12035713Y21611610D02*
X11988094Y21802086D01*
X11988094Y21802086D02*
X11940475Y21897324D01*
X11940475Y21897324D02*
X11845237Y21992562D01*
X11845237Y21992562D02*
X11702380Y22040181D01*
X11702380Y22040181D02*
X11607142Y22040181D01*
X11607142Y22040181D02*
X11464285Y21992562D01*
X11464285Y21992562D02*
X11416666Y21944943D01*
X10559523Y21706848D02*
X10559523Y21040181D01*
X10797618Y22087800D02*
X11035713Y21373515D01*
X11035713Y21373515D02*
X10416666Y21373515D01*
X43704904Y24819181D02*
X43704904Y24009658D01*
X43704904Y24009658D02*
X43657285Y23914420D01*
X43657285Y23914420D02*
X43609666Y23866800D01*
X43609666Y23866800D02*
X43514428Y23819181D01*
X43514428Y23819181D02*
X43323952Y23819181D01*
X43323952Y23819181D02*
X43228714Y23866800D01*
X43228714Y23866800D02*
X43181095Y23914420D01*
X43181095Y23914420D02*
X43133476Y24009658D01*
X43133476Y24009658D02*
X43133476Y24819181D01*
X42704904Y24723943D02*
X42657285Y24771562D01*
X42657285Y24771562D02*
X42562047Y24819181D01*
X42562047Y24819181D02*
X42323952Y24819181D01*
X42323952Y24819181D02*
X42228714Y24771562D01*
X42228714Y24771562D02*
X42181095Y24723943D01*
X42181095Y24723943D02*
X42133476Y24628705D01*
X42133476Y24628705D02*
X42133476Y24533467D01*
X42133476Y24533467D02*
X42181095Y24390610D01*
X42181095Y24390610D02*
X42752523Y23819181D01*
X42752523Y23819181D02*
X42133476Y23819181D01*
X11416666Y14310181D02*
X11892856Y14310181D01*
X11892856Y14310181D02*
X11892856Y15310181D01*
X10559523Y14310181D02*
X11130951Y14310181D01*
X10845237Y14310181D02*
X10845237Y15310181D01*
X10845237Y15310181D02*
X10940475Y15167324D01*
X10940475Y15167324D02*
X11035713Y15072086D01*
X11035713Y15072086D02*
X11130951Y15024467D01*
D10*
%TO.C,J1*%
X24488000Y5185000D02*
X25538000Y5185000D01*
X24488000Y2685000D02*
X24488000Y5185000D01*
X29538000Y715000D02*
X25658000Y715000D01*
X29658000Y5185000D02*
X29658000Y6175000D01*
X30708000Y5185000D02*
X29658000Y5185000D01*
X30708000Y2685000D02*
X30708000Y5185000D01*
%TO.C,U4*%
X39119000Y44159000D02*
X42979000Y44159000D01*
X39119000Y43904000D02*
X39119000Y44159000D01*
X39119000Y33894000D02*
X39119000Y33639000D01*
X39119000Y33639000D02*
X42979000Y33639000D01*
X46839000Y44159000D02*
X42979000Y44159000D01*
X46839000Y43904000D02*
X46839000Y44159000D01*
X46839000Y33894000D02*
X46839000Y33639000D01*
X46839000Y33639000D02*
X42979000Y33639000D01*
X47691500Y43904000D02*
X47351500Y44374000D01*
X48031500Y44374000D01*
X47691500Y43904000D01*
G36*
X47691500Y43904000D02*
G01*
X47351500Y44374000D01*
X48031500Y44374000D01*
X47691500Y43904000D01*
G37*
%TO.C,C1*%
X5238748Y21255000D02*
X6661252Y21255000D01*
X5238748Y19435000D02*
X6661252Y19435000D01*
%TO.C,U5*%
X39045000Y86761000D02*
X42905000Y86761000D01*
X39045000Y86506000D02*
X39045000Y86761000D01*
X39045000Y76496000D02*
X39045000Y76241000D01*
X39045000Y76241000D02*
X42905000Y76241000D01*
X46765000Y86761000D02*
X42905000Y86761000D01*
X46765000Y86506000D02*
X46765000Y86761000D01*
X46765000Y76496000D02*
X46765000Y76241000D01*
X46765000Y76241000D02*
X42905000Y76241000D01*
X47617500Y86506000D02*
X47277500Y86976000D01*
X47957500Y86976000D01*
X47617500Y86506000D01*
G36*
X47617500Y86506000D02*
G01*
X47277500Y86976000D01*
X47957500Y86976000D01*
X47617500Y86506000D01*
G37*
%TO.C,U1*%
X5350000Y18605000D02*
X6150000Y18605000D01*
X5350000Y15485000D02*
X6150000Y15485000D01*
X6950000Y18605000D02*
X6150000Y18605000D01*
X6950000Y15485000D02*
X6150000Y15485000D01*
X5090000Y15205000D02*
X4610000Y15205000D01*
X4850000Y15535000D01*
X5090000Y15205000D01*
G36*
X5090000Y15205000D02*
G01*
X4610000Y15205000D01*
X4850000Y15535000D01*
X5090000Y15205000D01*
G37*
%TO.C,C2*%
X7838748Y14455000D02*
X9261252Y14455000D01*
X7838748Y12635000D02*
X9261252Y12635000D01*
%TO.C,C3*%
X11961252Y21255000D02*
X10538748Y21255000D01*
X11961252Y19435000D02*
X10538748Y19435000D01*
%TO.C,U3*%
X39120000Y65431000D02*
X42980000Y65431000D01*
X39120000Y65176000D02*
X39120000Y65431000D01*
X39120000Y55166000D02*
X39120000Y54911000D01*
X39120000Y54911000D02*
X42980000Y54911000D01*
X46840000Y65431000D02*
X42980000Y65431000D01*
X46840000Y65176000D02*
X46840000Y65431000D01*
X46840000Y55166000D02*
X46840000Y54911000D01*
X46840000Y54911000D02*
X42980000Y54911000D01*
X47692500Y65176000D02*
X47352500Y65646000D01*
X48032500Y65646000D01*
X47692500Y65176000D01*
G36*
X47692500Y65176000D02*
G01*
X47352500Y65646000D01*
X48032500Y65646000D01*
X47692500Y65176000D01*
G37*
%TO.C,C4*%
X11961252Y24255000D02*
X10538748Y24255000D01*
X11961252Y22435000D02*
X10538748Y22435000D01*
%TO.C,U2*%
X39083000Y23434000D02*
X42943000Y23434000D01*
X39083000Y23179000D02*
X39083000Y23434000D01*
X39083000Y13169000D02*
X39083000Y12914000D01*
X39083000Y12914000D02*
X42943000Y12914000D01*
X46803000Y23434000D02*
X42943000Y23434000D01*
X46803000Y23179000D02*
X46803000Y23434000D01*
X46803000Y13169000D02*
X46803000Y12914000D01*
X46803000Y12914000D02*
X42943000Y12914000D01*
X47655500Y23179000D02*
X47315500Y23649000D01*
X47995500Y23649000D01*
X47655500Y23179000D01*
G36*
X47655500Y23179000D02*
G01*
X47315500Y23649000D01*
X47995500Y23649000D01*
X47655500Y23179000D01*
G37*
%TO.C,L1*%
X11852064Y18405000D02*
X10647936Y18405000D01*
X11852064Y15685000D02*
X10647936Y15685000D01*
%TD*%
M02*
