%TF.GenerationSoftware,KiCad,Pcbnew,8.0.5*%
%TF.CreationDate,2024-09-27T10:22:32-04:00*%
%TF.ProjectId,BREAD_Slice,42524541-445f-4536-9c69-63652e6b6963,rev?*%
%TF.SameCoordinates,PX74eba40PY8552dc0*%
%TF.FileFunction,Paste,Bot*%
%TF.FilePolarity,Positive*%
%FSLAX46Y46*%
G04 Gerber Fmt 4.6, Leading zero omitted, Abs format (unit mm)*
G04 Created by KiCad (PCBNEW 8.0.5) date 2024-09-27 10:22:32*
%MOMM*%
%LPD*%
G01*
G04 APERTURE LIST*
G04 Aperture macros list*
%AMRoundRect*
0 Rectangle with rounded corners*
0 $1 Rounding radius*
0 $2 $3 $4 $5 $6 $7 $8 $9 X,Y pos of 4 corners*
0 Add a 4 corners polygon primitive as box body*
4,1,4,$2,$3,$4,$5,$6,$7,$8,$9,$2,$3,0*
0 Add four circle primitives for the rounded corners*
1,1,$1+$1,$2,$3*
1,1,$1+$1,$4,$5*
1,1,$1+$1,$6,$7*
1,1,$1+$1,$8,$9*
0 Add four rect primitives between the rounded corners*
20,1,$1+$1,$2,$3,$4,$5,0*
20,1,$1+$1,$4,$5,$6,$7,0*
20,1,$1+$1,$6,$7,$8,$9,0*
20,1,$1+$1,$8,$9,$2,$3,0*%
G04 Aperture macros list end*
%ADD10RoundRect,0.150000X0.150000X0.625000X-0.150000X0.625000X-0.150000X-0.625000X0.150000X-0.625000X0*%
%ADD11RoundRect,0.250000X0.350000X0.650000X-0.350000X0.650000X-0.350000X-0.650000X0.350000X-0.650000X0*%
%ADD12RoundRect,0.150000X0.875000X0.150000X-0.875000X0.150000X-0.875000X-0.150000X0.875000X-0.150000X0*%
%ADD13RoundRect,0.250000X0.325000X0.650000X-0.325000X0.650000X-0.325000X-0.650000X0.325000X-0.650000X0*%
%ADD14RoundRect,0.150000X-0.512500X-0.150000X0.512500X-0.150000X0.512500X0.150000X-0.512500X0.150000X0*%
%ADD15RoundRect,0.250000X-0.325000X-0.650000X0.325000X-0.650000X0.325000X0.650000X-0.325000X0.650000X0*%
%ADD16RoundRect,0.250000X-0.375000X-1.075000X0.375000X-1.075000X0.375000X1.075000X-0.375000X1.075000X0*%
G04 APERTURE END LIST*
D10*
%TO.C,J1*%
X29098000Y5400000D03*
X28098000Y5400000D03*
X27098000Y5400000D03*
X26098000Y5400000D03*
D11*
X30398000Y1525000D03*
X24798000Y1525000D03*
%TD*%
D12*
%TO.C,U4*%
X47629000Y43344000D03*
X47629000Y42074000D03*
X47629000Y40804000D03*
X47629000Y39534000D03*
X47629000Y38264000D03*
X47629000Y36994000D03*
X47629000Y35724000D03*
X47629000Y34454000D03*
X38329000Y34454000D03*
X38329000Y35724000D03*
X38329000Y36994000D03*
X38329000Y38264000D03*
X38329000Y39534000D03*
X38329000Y40804000D03*
X38329000Y42074000D03*
X38329000Y43344000D03*
%TD*%
D13*
%TO.C,C1*%
X7425000Y20345000D03*
X4475000Y20345000D03*
%TD*%
D12*
%TO.C,U5*%
X47555000Y85946000D03*
X47555000Y84676000D03*
X47555000Y83406000D03*
X47555000Y82136000D03*
X47555000Y80866000D03*
X47555000Y79596000D03*
X47555000Y78326000D03*
X47555000Y77056000D03*
X38255000Y77056000D03*
X38255000Y78326000D03*
X38255000Y79596000D03*
X38255000Y80866000D03*
X38255000Y82136000D03*
X38255000Y83406000D03*
X38255000Y84676000D03*
X38255000Y85946000D03*
%TD*%
D14*
%TO.C,U1*%
X5012500Y16095000D03*
X5012500Y17045000D03*
X5012500Y17995000D03*
X7287500Y17995000D03*
X7287500Y17045000D03*
X7287500Y16095000D03*
%TD*%
D13*
%TO.C,C2*%
X10025000Y13545000D03*
X7075000Y13545000D03*
%TD*%
D15*
%TO.C,C3*%
X9775000Y20345000D03*
X12725000Y20345000D03*
%TD*%
D12*
%TO.C,U3*%
X47630000Y64616000D03*
X47630000Y63346000D03*
X47630000Y62076000D03*
X47630000Y60806000D03*
X47630000Y59536000D03*
X47630000Y58266000D03*
X47630000Y56996000D03*
X47630000Y55726000D03*
X38330000Y55726000D03*
X38330000Y56996000D03*
X38330000Y58266000D03*
X38330000Y59536000D03*
X38330000Y60806000D03*
X38330000Y62076000D03*
X38330000Y63346000D03*
X38330000Y64616000D03*
%TD*%
D15*
%TO.C,C4*%
X9775000Y23345000D03*
X12725000Y23345000D03*
%TD*%
D12*
%TO.C,U2*%
X47593000Y22619000D03*
X47593000Y21349000D03*
X47593000Y20079000D03*
X47593000Y18809000D03*
X47593000Y17539000D03*
X47593000Y16269000D03*
X47593000Y14999000D03*
X47593000Y13729000D03*
X38293000Y13729000D03*
X38293000Y14999000D03*
X38293000Y16269000D03*
X38293000Y17539000D03*
X38293000Y18809000D03*
X38293000Y20079000D03*
X38293000Y21349000D03*
X38293000Y22619000D03*
%TD*%
D16*
%TO.C,L1*%
X9850000Y17045000D03*
X12650000Y17045000D03*
%TD*%
M02*
